<svg width="46" height="46" viewBox="0 0 46 46" fill="none" xmlns="http://www.w3.org/2000/svg">
<rect width="46" height="46" rx="23" fill="white"/>
<path d="M15.3941 22.9903C15.1314 22.7276 15 22.3933 15 21.9874C15 21.5815 15.1314 21.2472 15.3941 20.9845L21.987 14.394C22.1304 14.2507 22.2856 14.1495 22.4528 14.0903C22.62 14.031 22.7992 14.001 22.9903 14C23.1814 14 23.3606 14.0301 23.5278 14.0903C23.695 14.1504 23.8502 14.2517 23.9936 14.394L30.5865 20.9845C30.8492 21.2472 30.9868 21.5757 30.9992 21.9702C31.0117 22.3647 30.8741 22.7047 30.5865 22.9903C30.3237 23.253 29.9893 23.3843 29.5832 23.3843C29.1771 23.3843 28.8427 23.253 28.5799 22.9903L22.9903 17.4385L17.4007 22.9903C17.1379 23.253 16.8092 23.3905 16.4146 23.4029C16.02 23.4153 15.6798 23.2778 15.3941 22.9903ZM15.3941 31.5866C15.1314 31.3239 15 30.9896 15 30.5837C15 30.1778 15.1314 29.8435 15.3941 29.5808L21.987 22.9903C22.1304 22.847 22.2856 22.7458 22.4528 22.6866C22.62 22.6273 22.7992 22.5973 22.9903 22.5963C23.1814 22.5963 23.3606 22.6264 23.5278 22.6866C23.695 22.7467 23.8502 22.848 23.9936 22.9903L30.5865 29.5808C30.8492 29.8435 30.9868 30.172 30.9992 30.5665C31.0117 30.961 30.8741 31.301 30.5865 31.5866C30.3237 31.8493 29.9893 31.9806 29.5832 31.9806C29.1771 31.9806 28.8427 31.8493 28.5799 31.5866L22.9903 26.0348L17.4007 31.5866C17.1379 31.8493 16.8092 31.9868 16.4146 31.9992C16.02 32.0116 15.6798 31.8741 15.3941 31.5866Z" fill="#0E0E0E"/>
</svg>
