<svg width="16" height="18" viewBox="0 0 16 18" fill="none" xmlns="http://www.w3.org/2000/svg">
<path id="Vector" d="M0.39414 8.9903C0.13138 8.72764 0 8.39334 0 7.9874C0 7.58146 0.13138 7.24716 0.39414 6.9845L6.98703 0.393997C7.13036 0.250725 7.28562 0.14948 7.45284 0.0902608C7.62005 0.0310418 7.7992 0.000955145 7.9903 0C8.1814 0 8.36055 0.0300867 8.52776 0.0902608C8.69497 0.150435 8.85024 0.25168 8.99357 0.393997L15.5865 6.9845C15.8492 7.24716 15.9868 7.57573 15.9992 7.97021C16.0117 8.36468 15.8741 8.70471 15.5865 8.9903C15.3237 9.25297 14.9893 9.3843 14.5832 9.3843C14.1771 9.3843 13.8427 9.25297 13.5799 8.9903L7.9903 3.43852L2.40067 8.9903C2.13791 9.25297 1.80922 9.39051 1.41461 9.40292C1.01999 9.41534 0.679832 9.2778 0.39414 8.9903ZM0.39414 17.5866C0.13138 17.3239 0 16.9896 0 16.5837C0 16.1778 0.13138 15.8435 0.39414 15.5808L6.98703 8.9903C7.13036 8.84703 7.28562 8.74578 7.45284 8.68656C7.62005 8.62735 7.7992 8.59726 7.9903 8.5963C8.1814 8.5963 8.36055 8.62639 8.52776 8.68656C8.69497 8.74674 8.85024 8.84798 8.99357 8.9903L15.5865 15.5808C15.8492 15.8435 15.9868 16.172 15.9992 16.5665C16.0117 16.961 15.8741 17.301 15.5865 17.5866C15.3237 17.8493 14.9893 17.9806 14.5832 17.9806C14.1771 17.9806 13.8427 17.8493 13.5799 17.5866L7.9903 12.0348L2.40067 17.5866C2.13791 17.8493 1.80922 17.9868 1.41461 17.9992C1.01999 18.0116 0.679832 17.8741 0.39414 17.5866Z" fill="#0E0E0E"/>
</svg>
