<?xml version="1.0" encoding="utf-8"?>
<!-- Generator: Adobe Illustrator 26.0.3, SVG Export Plug-In . SVG Version: 6.00 Build 0)  -->
<svg version="1.1" id="Layer_1" xmlns="http://www.w3.org/2000/svg" xmlns:xlink="http://www.w3.org/1999/xlink" x="0px" y="0px"
	 viewBox="0 0 299 92.9" style="enable-background:new 0 0 299 92.9;" xml:space="preserve">
<style type="text/css">
	.st0{fill:url(#SVGID_1_);fill-opacity:0.6;}
	.st1{fill:#0279FC;}
	.st2{fill:#FF0000;}
	.st3{fill:#007AFF;}
</style>
<linearGradient id="SVGID_1_" gradientUnits="userSpaceOnUse" x1="201.033" y1="272.8898" x2="201.033" y2="205.2408" gradientTransform="matrix(1 0 0 -1 0 277.8898)">
	<stop  offset="0" style="stop-color:#007AFF"/>
	<stop  offset="1" style="stop-color:#FFFFFF;stop-opacity:0"/>
</linearGradient>
<path class="st0" d="M261.5,12c-9.3,2-28.2-7-28.2-7l-23.8,15.8c-0.4-0.1-0.9-0.3-1.3-0.5c3.5-5.7,3.1-9.3,3.1-9.3
	c-3.4,1.1-6.9,3.4-7.8,4c-1.9-1.9-3.9-1.7-5.4-0.1c-1.2-0.8-4.5-2.8-7.6-3.9c0,0-0.4,3.5,2.9,8.8c-0.5,0.2-0.9,0.4-1.4,0.6L168.9,5
	c0,0-19,9-28.2,7c0,0-14.2,15.6-30.5,19.9c1.6-0.4,12.6-2.5,16.4,5.2c0,0,17.2-4.5,26.3,8.8c0,0,15.6-8.3,28.6-2.1
	c5.4,2.5,8.8,8.8,8.8,8.8l11.6,20.1v-0.1l12.1-20.1l5-7.8c0.6-0.3,1.3-0.6,1.9-0.9c13.1-6.2,28.6,2.1,28.6,2.1
	c9.1-13.3,26.3-8.8,26.3-8.8c3.9-7.8,14.8-5.7,16.4-5.2C275.7,27.6,261.5,12,261.5,12z"/>
<g>
	<path class="st1" d="M186.9,20.8l-6.6-3.9c-3.8-2.3-7.6-4.7-11.4-7.1l3.2,24l-4.2-23.5l-13.2,26l12.1-26.1
		c-0.7,0.6-1.7,1.3-2.9,2.3c-2.5,2-6,4.5-9.5,6.8c-1.8,1.1-3.6,2.3-5.3,3.3c-0.9,0.5-1.7,1-2.5,1.4c-0.8,0.4-1.5,0.9-2.3,1.3
		c-2.9,1.4-4.8,2.3-4.8,2.3s1.9-1,4.7-2.5c0.7-0.4,1.4-0.8,2.2-1.3c0.8-0.5,1.6-1,2.4-1.5c1.7-1.1,3.4-2.3,5.1-3.5
		c3.4-2.5,6.8-5,9.2-7.1c1-0.8,1.8-1.5,2.4-2.1c-3.1,1.5-6.2,2.8-9.4,4c-2,0.7-3.9,1.3-6,1.8c-0.5,0.1-1,0.2-1.5,0.4
		c-0.5,0.1-1,0.2-1.6,0.3c-1,0.1-2.1,0.2-3.1,0.2c1.1-0.1,2.1-0.2,3.1-0.4c0.5-0.1,1-0.2,1.5-0.4c0.5-0.1,1-0.3,1.5-0.4
		c2-0.6,3.9-1.3,5.9-2.1c3.9-1.6,7.6-3.3,11.3-5.2l0.3-0.1l0.3,0.1c4.4,2.6,8.6,5.4,13,8.1l6.4,4.2c2.1,1.4,4.2,2.8,6.3,4.3
		C191.3,23.4,189.1,22.2,186.9,20.8z"/>
</g>
<g>
	<path class="st2" d="M197,19.7c-0.8-0.8-0.9-1.9-0.9-1.9s1.1,0.1,1.9,0.9c0.8,0.8,0.9,1.9,0.9,1.9S197.8,20.5,197,19.7z"/>
</g>
<g>
	<path class="st2" d="M205.6,19.7c-0.8,0.8-1.9,0.9-1.9,0.9s0.1-1.1,0.9-1.9s1.9-0.9,1.9-0.9S206.4,18.9,205.6,19.7z"/>
</g>
<g>
	<path class="st1" d="M257.8,25.4c-0.7-0.4-1.4-0.8-2.3-1.3c-0.8-0.4-1.6-0.9-2.5-1.4c-1.7-1-3.5-2.2-5.3-3.3
		c-3.5-2.3-7-4.8-9.5-6.8c-0.9-0.7-1.8-1.3-2.4-1.9l11.9,25.8l-13.3-26.3l-4.1,23.4l3.1-23.8c-3.6,2.4-7.3,4.7-11.1,7.1l-6.3,3.9
		c-2.1,1.3-4.2,2.5-6.3,3.7c2-1.4,4-2.9,6.1-4.2l6.1-4.2c4.1-2.7,8.2-5.4,12.4-8.1l0.3-0.1l0.3,0.1c3.6,1.9,7.4,3.6,11.3,5.2
		c1.9,0.8,3.9,1.4,5.8,2.1c0.5,0.1,1,0.3,1.5,0.4c0.5,0.1,1,0.3,1.5,0.4c1,0.2,2.1,0.4,3.1,0.4c-1.1,0-2.1-0.1-3.1-0.2
		c-0.5-0.1-1-0.1-1.6-0.3c-0.5-0.1-1-0.2-1.5-0.4c-2.1-0.4-4-1.1-6-1.8c-3.2-1.1-6.3-2.5-9.4-4c0.6,0.6,1.5,1.3,2.4,2.1
		c2.4,2,5.8,4.6,9.2,7.1c1.8,1.2,3.5,2.4,5.1,3.5c0.9,0.5,1.6,1,2.4,1.5c0.8,0.5,1.5,1,2.2,1.3c2.8,1.5,4.7,2.5,4.7,2.5
		S260.7,26.8,257.8,25.4z"/>
</g>
<path class="st3" d="M37.1,67.2c1.1,0.4,2.1,1.1,2.9,2.3c0.8,1.1,1.1,2.6,1.1,4.5c0,1.3-0.1,2.5-0.5,3.5c-0.4,1.1-0.9,2-1.7,2.8
	c-0.8,0.8-1.9,1.4-3.2,1.8s-3.1,0.7-5.1,0.7H8V64.4h22.8c0.6,0,1.1-0.1,1.6-0.4c0.4-0.3,0.6-0.8,0.6-1.6c0-0.8-0.2-1.3-0.7-1.6
	c-0.4-0.3-1-0.4-1.6-0.4H8l5.4-7.9h17.1c1.6,0,2.9,0.1,4.2,0.5c1.2,0.4,2.3,0.8,3.2,1.6c0.9,0.7,1.6,1.6,2.1,2.6
	c0.5,1.1,0.7,2.3,0.7,3.7c0,0.9-0.1,1.7-0.3,2.4c-0.2,0.7-0.5,1.3-0.8,1.8c-0.3,0.6-0.7,1-1.1,1.3C38,66.8,37.5,67.1,37.1,67.2z
	 M16,70.9v4.2h14.7c0.9,0,1.5-0.2,1.9-0.6c0.4-0.4,0.6-0.9,0.6-1.6c0-0.6-0.2-1.2-0.6-1.5c-0.4-0.4-1-0.5-1.9-0.5L16,70.9L16,70.9z"
	/>
<path class="st3" d="M56,82.8l4.8-7.8h6.5c0.8,0,1.6,0,2.4,0c0.9,0,1.6,0,2.2,0.1c-0.4-0.6-0.8-1.2-1.3-2.1
	c-0.5-0.8-0.9-1.6-1.4-2.3l-4.6-8L52.6,82.9h-9.5l16.6-27.4c0.6-0.8,1.2-1.6,2.1-2.3c0.9-0.7,1.9-1.1,3.1-1.1c1.2,0,2.2,0.4,3,1
	c0.8,0.6,1.5,1.5,2.1,2.4L86,82.9L56,82.8L56,82.8z"/>
<path class="st3" d="M148.7,75.1l-5.1,7.8h-12.9c-2.2,0-4.3-0.4-6.2-1.2c-1.9-0.8-3.6-1.8-4.9-3.3c-1.4-1.3-2.4-3-3.2-4.9
	c-0.8-1.9-1.1-4-1.1-6.1c0-2.2,0.4-4.2,1.1-6.1c0.8-1.8,1.9-3.4,3.2-4.7c1.4-1.3,3-2.3,4.9-3c1.9-0.7,4-1.1,6.2-1.1h18l-5.1,7.9
	h-12.9c-1.1,0-2.1,0.2-3,0.6c-0.9,0.4-1.7,0.8-2.4,1.5c-0.6,0.6-1.2,1.4-1.6,2.3c-0.4,0.9-0.6,1.9-0.6,3s0.2,2.1,0.6,3
	c0.4,0.9,0.9,1.6,1.6,2.3c0.7,0.6,1.5,1.1,2.4,1.5c0.9,0.4,1.9,0.5,3,0.5h18V75.1z"/>
<path class="st3" d="M162.4,82.8l4.8-7.8h6.5c0.8,0,1.6,0,2.4,0c0.9,0,1.6,0,2.2,0.1c-0.4-0.6-0.8-1.2-1.3-2.1
	c-0.5-0.8-0.9-1.6-1.4-2.3l-4.6-8L159,82.9h-9.4l16.6-27.4c0.6-0.8,1.2-1.6,2.1-2.3c0.9-0.7,1.9-1.1,3.1-1.1c1.2,0,2.2,0.4,3,1
	c0.8,0.6,1.5,1.5,2.1,2.4l16.1,27.4L162.4,82.8L162.4,82.8z"/>
<path class="st3" d="M256,75.1l-5.1,7.8h-24.8V52.5h29.8l-5.1,7.9h-16.6V64h20.4l-4.6,6.9h-15.8V75L256,75.1L256,75.1z"/>
<path class="st3" d="M223.2,52.5l-16.5,27.4c-0.6,0.8-1.3,1.6-2.1,2.3c-0.9,0.7-1.9,1.1-3.1,1.1c-1.2,0-2.2-0.4-3-1
	c-0.8-0.6-1.5-1.5-2.1-2.4l-16.1-27.4h9.8l11.6,20.1v-0.1l12.1-20.1H223.2z"/>
<path class="st3" d="M117.2,52.5l-5.1,7.8h-9.2v18.3l-8,4.2V60.3H82.8l5.1-7.8H117.2z"/>
</svg>
