<svg width="338" height="159" viewBox="0 0 338 159" fill="none" xmlns="http://www.w3.org/2000/svg">
<g filter="url(#filter0_dd_734_2411)">
<path d="M272.703 48.7013C263.826 50.5966 245.66 42 245.66 42L222.92 57.0948C222.51 56.9594 222.1 56.824 221.691 56.6209C225.037 51.2058 224.695 47.7536 224.695 47.7536C221.486 48.8366 218.071 51.0027 217.183 51.6119C215.408 49.7843 213.496 49.9874 212.062 51.4765C210.901 50.7319 207.759 48.769 204.755 47.7536C204.755 47.7536 204.413 51.0704 207.554 56.2148C207.076 56.4179 206.667 56.6209 206.257 56.7563L183.994 42C183.994 42 165.761 50.5966 156.951 48.7013C156.951 48.7013 143.362 63.6607 127.723 67.722C129.294 67.3836 139.811 65.2852 143.43 72.731C143.43 72.731 159.888 68.4666 168.561 81.1245C168.561 81.1245 183.448 73.1372 195.945 79.0939C201.135 81.5307 204.413 87.4874 204.413 87.4874L215.476 106.779V106.711L227.017 87.4874L231.797 80.0415C232.412 79.7708 233.027 79.4323 233.641 79.1616C246.138 73.2049 261.026 81.1922 261.026 81.1922C269.699 68.4666 286.156 72.7987 286.156 72.7987C289.844 65.3529 300.293 67.3836 301.863 67.7897C286.293 63.6606 272.703 48.7013 272.703 48.7013Z" fill="url(#paint0_linear_734_2411)" fill-opacity="0.6" shape-rendering="crispEdges"/>
</g>
<g filter="url(#filter1_dd_734_2411)">
<path d="M201.272 57.1626L194.989 53.4397C191.37 51.2059 187.682 48.9721 184.063 46.6707L187.136 69.6174L183.107 47.1445L170.473 72.0543L182.014 47.0768C181.331 47.6184 180.375 48.3629 179.214 49.3106C176.824 51.2059 173.478 53.575 170.132 55.8088C168.424 56.8918 166.717 58.0425 165.078 58.9902C164.259 59.464 163.439 59.9378 162.688 60.344C161.937 60.7501 161.254 61.2239 160.503 61.5624C157.771 62.9162 155.927 63.7961 155.927 63.7961C155.927 63.7961 157.703 62.8485 160.434 61.427C161.117 61.0886 161.8 60.6147 162.551 60.1409C163.303 59.6671 164.054 59.1933 164.873 58.7194C166.512 57.7041 168.151 56.5534 169.79 55.4026C173.068 53.0335 176.278 50.5967 178.6 48.6337C179.556 47.8891 180.307 47.2122 180.921 46.6707C177.985 48.0922 174.98 49.3783 171.907 50.4613C169.995 51.1382 168.151 51.7474 166.171 52.1535C165.693 52.2889 165.215 52.3566 164.737 52.492C164.259 52.5597 163.781 52.6951 163.234 52.7628C162.278 52.8981 161.254 52.9658 160.23 52.9658C161.254 52.8981 162.21 52.7628 163.166 52.5597C163.644 52.492 164.122 52.3566 164.6 52.2212C165.078 52.0859 165.556 51.9505 166.034 51.8151C167.946 51.2059 169.79 50.5967 171.634 49.8521C175.322 48.3629 178.941 46.7384 182.424 44.9108L182.697 44.7754L182.97 44.9108C187.136 47.4153 191.233 50.0552 195.399 52.6951L201.545 56.6887C203.594 58.0425 205.574 59.3963 207.623 60.8178C205.506 59.5994 203.389 58.4487 201.272 57.1626Z" fill="#0176F6"/>
</g>
<g filter="url(#filter2_dd_734_2411)">
<path d="M210.901 56.0796C210.15 55.335 210.013 54.252 210.013 54.252C210.013 54.252 211.106 54.3873 211.857 55.1319C212.608 55.8765 212.745 56.9595 212.745 56.9595C212.745 56.9595 211.652 56.8242 210.901 56.0796Z" fill="#007AFF"/>
</g>
<g filter="url(#filter3_dd_734_2411)">
<path d="M219.164 56.0796C218.413 56.8242 217.32 56.9595 217.32 56.9595C217.32 56.9595 217.457 55.8765 218.208 55.1319C218.959 54.3873 220.052 54.252 220.052 54.252C220.052 54.252 219.915 55.335 219.164 56.0796Z" fill="#007AFF"/>
</g>
<g filter="url(#filter4_dd_734_2411)">
<path d="M269.153 61.5624C268.47 61.2239 267.787 60.8178 266.967 60.344C266.216 59.9378 265.397 59.464 264.577 58.9902C262.938 58.0425 261.231 56.8918 259.524 55.8088C256.177 53.575 252.831 51.2059 250.441 49.3106C249.553 48.6337 248.734 48.0245 248.119 47.483L259.524 72.1896L246.753 47.0091L242.793 69.4144L245.797 46.603C242.315 48.9045 238.763 51.1382 235.212 53.372L229.203 57.0949C227.222 58.3133 225.174 59.5317 223.125 60.6824C225.037 59.3286 226.949 57.9072 228.93 56.6211L234.803 52.6274C238.763 50.0552 242.656 47.4153 246.685 44.9108L246.958 44.7754L247.231 44.9108C250.714 46.7384 254.334 48.3629 258.021 49.8521C259.865 50.5967 261.709 51.2059 263.621 51.8151C264.099 51.9505 264.577 52.0859 265.055 52.2212C265.533 52.3566 266.011 52.492 266.489 52.5597C267.445 52.7628 268.47 52.8981 269.426 52.9658C268.401 52.9658 267.445 52.8981 266.421 52.7628C265.943 52.6951 265.465 52.6274 264.919 52.492C264.441 52.4243 263.963 52.2889 263.485 52.1535C261.504 51.7474 259.66 51.0705 257.748 50.4613C254.675 49.3783 251.67 48.0922 248.734 46.6707C249.348 47.2122 250.168 47.8891 251.056 48.6337C253.378 50.5967 256.587 53.0335 259.865 55.4026C261.572 56.5534 263.211 57.7041 264.782 58.7194C265.602 59.1933 266.353 59.6671 267.104 60.1409C267.855 60.6147 268.538 61.0886 269.221 61.427C271.884 62.8485 273.728 63.7961 273.728 63.7961C273.728 63.7961 271.884 62.9162 269.153 61.5624Z" fill="#0176F6"/>
</g>
<g filter="url(#filter5_dd_734_2411)">
<path d="M57.8624 101.567C58.9551 101.973 59.8428 102.65 60.594 103.801C61.3452 104.884 61.6867 106.305 61.6867 108.065C61.6867 109.284 61.5501 110.434 61.2086 111.45C60.8672 112.465 60.3209 113.345 59.5697 114.09C58.8185 114.834 57.7941 115.443 56.4966 115.85C55.1991 116.256 53.5601 116.526 51.648 116.526H30V98.8595H51.8529C52.3992 98.8595 52.9455 98.7241 53.3553 98.4533C53.765 98.1826 53.9699 97.641 53.9699 96.8965C53.9699 96.1519 53.765 95.678 53.287 95.4073C52.8772 95.1365 52.3309 95.0012 51.7846 95.0012H30L35.1901 87.4199H51.5114C53.0138 87.4199 54.3113 87.5553 55.5405 87.8938C56.7015 88.2322 57.7258 88.706 58.6136 89.3829C59.4331 90.0598 60.116 90.8721 60.594 91.8874C61.0721 92.9028 61.2769 94.0535 61.2769 95.4073C61.2769 96.2873 61.2086 97.0318 61.0038 97.7087C60.7989 98.3856 60.5257 98.9271 60.2526 99.4687C59.9794 100.01 59.5697 100.416 59.1599 100.755C58.6819 101.161 58.2722 101.432 57.8624 101.567ZM37.6485 105.087V109.081H51.7163C52.5358 109.081 53.1504 108.878 53.4918 108.539C53.8333 108.201 54.0382 107.659 54.0382 107.05C54.0382 106.441 53.8333 105.899 53.4918 105.628C53.1504 105.29 52.5358 105.155 51.7163 105.155H37.6485V105.087Z" fill="#007AFF"/>
</g>
<g filter="url(#filter6_dd_734_2411)">
<path d="M75.9592 116.526L80.5346 109.08H86.749C87.5002 109.08 88.2514 109.08 89.0709 109.08C89.8904 109.08 90.5733 109.08 91.1879 109.148C90.8464 108.606 90.4367 107.997 89.9587 107.185C89.4806 106.373 89.0709 105.628 88.6611 104.951L84.2223 97.3022L72.6812 116.594H63.5986L79.442 90.3302C79.9883 89.5179 80.6029 88.7733 81.4224 88.0964C82.2419 87.4195 83.1979 87.0811 84.4272 87.0811C85.5881 87.0811 86.5442 87.4195 87.2953 88.0287C88.0465 88.6379 88.7294 89.4502 89.2758 90.3302L104.709 116.594H75.9592V116.526Z" fill="#007AFF"/>
</g>
<g filter="url(#filter7_dd_734_2411)">
<path d="M164.737 109.081L159.82 116.526H147.459C145.342 116.526 143.362 116.12 141.518 115.376C139.674 114.631 138.103 113.616 136.806 112.262C135.508 110.976 134.484 109.351 133.733 107.591C132.982 105.764 132.64 103.801 132.64 101.702C132.64 99.604 132.982 97.641 133.733 95.8811C134.484 94.1212 135.508 92.632 136.806 91.3459C138.103 90.0598 139.674 89.1122 141.518 88.4353C143.362 87.7584 145.342 87.4199 147.459 87.4199H164.737L159.82 95.0012H147.459C146.435 95.0012 145.479 95.2042 144.591 95.5427C143.703 95.8811 142.952 96.3549 142.337 96.9641C141.723 97.5733 141.176 98.3179 140.835 99.1979C140.494 100.078 140.289 101.026 140.289 102.041C140.289 103.056 140.494 104.004 140.835 104.884C141.176 105.764 141.723 106.441 142.337 107.05C143.02 107.659 143.771 108.133 144.659 108.471C145.547 108.81 146.503 108.945 147.527 108.945H164.737V109.081Z" fill="#007AFF"/>
</g>
<g filter="url(#filter8_dd_734_2411)">
<path d="M177.848 116.526L182.424 109.08H188.638C189.389 109.08 190.141 109.08 190.96 109.08C191.78 109.08 192.463 109.08 193.077 109.148C192.736 108.606 192.326 107.997 191.848 107.185C191.37 106.373 190.96 105.628 190.55 104.951L186.112 97.3022L174.57 116.594H165.556L181.399 90.3302C181.946 89.5179 182.56 88.7733 183.38 88.0964C184.199 87.4195 185.155 87.0811 186.385 87.0811C187.546 87.0811 188.502 87.4195 189.253 88.0287C190.004 88.6379 190.687 89.4502 191.233 90.3302L206.667 116.594H177.848V116.526Z" fill="#007AFF"/>
</g>
<g filter="url(#filter9_dd_734_2411)">
<path d="M267.445 109.08L262.528 116.526H238.763V87.4873H267.308L262.392 95.0685H246.48V98.5207H266.011L261.64 105.087H246.48V109.013H267.445V109.08Z" fill="#007AFF"/>
</g>
<g filter="url(#filter10_dd_734_2411)">
<path d="M236.032 87.4873L220.257 113.751C219.71 114.563 219.027 115.308 218.276 115.985C217.457 116.661 216.501 117 215.34 117C214.179 117 213.223 116.661 212.472 116.052C211.72 115.443 211.038 114.631 210.491 113.751L195.058 87.4873H204.413L215.476 106.779V106.711L227.017 87.4873H236.032Z" fill="#007AFF"/>
</g>
<g filter="url(#filter11_dd_734_2411)">
<path d="M134.552 87.4873L129.635 95.0008H120.826V112.532L113.177 116.526V95.0008H101.636L106.553 87.4873H134.552Z" fill="#007AFF"/>
</g>
<defs>
<filter id="filter0_dd_734_2411" x="97.7231" y="0" width="240.14" height="148.779" filterUnits="userSpaceOnUse" color-interpolation-filters="sRGB">
<feFlood flood-opacity="0" result="BackgroundImageFix"/>
<feColorMatrix in="SourceAlpha" type="matrix" values="0 0 0 0 0 0 0 0 0 0 0 0 0 0 0 0 0 0 127 0" result="hardAlpha"/>
<feOffset dx="6" dy="12"/>
<feGaussianBlur stdDeviation="15"/>
<feComposite in2="hardAlpha" operator="out"/>
<feColorMatrix type="matrix" values="0 0 0 0 0 0 0 0 0 0 0 0 0 0 0 0 0 0 0.25 0"/>
<feBlend mode="normal" in2="BackgroundImageFix" result="effect1_dropShadow_734_2411"/>
<feColorMatrix in="SourceAlpha" type="matrix" values="0 0 0 0 0 0 0 0 0 0 0 0 0 0 0 0 0 0 127 0" result="hardAlpha"/>
<feOffset dy="-12"/>
<feGaussianBlur stdDeviation="15"/>
<feComposite in2="hardAlpha" operator="out"/>
<feColorMatrix type="matrix" values="0 0 0 0 0 0 0 0 0 0 0 0 0 0 0 0 0 0 0.25 0"/>
<feBlend mode="normal" in2="effect1_dropShadow_734_2411" result="effect2_dropShadow_734_2411"/>
<feBlend mode="normal" in="SourceGraphic" in2="effect2_dropShadow_734_2411" result="shape"/>
</filter>
<filter id="filter1_dd_734_2411" x="125.927" y="2.77539" width="117.696" height="111.279" filterUnits="userSpaceOnUse" color-interpolation-filters="sRGB">
<feFlood flood-opacity="0" result="BackgroundImageFix"/>
<feColorMatrix in="SourceAlpha" type="matrix" values="0 0 0 0 0 0 0 0 0 0 0 0 0 0 0 0 0 0 127 0" result="hardAlpha"/>
<feOffset dx="6" dy="12"/>
<feGaussianBlur stdDeviation="15"/>
<feComposite in2="hardAlpha" operator="out"/>
<feColorMatrix type="matrix" values="0 0 0 0 0 0 0 0 0 0 0 0 0 0 0 0 0 0 0.25 0"/>
<feBlend mode="normal" in2="BackgroundImageFix" result="effect1_dropShadow_734_2411"/>
<feColorMatrix in="SourceAlpha" type="matrix" values="0 0 0 0 0 0 0 0 0 0 0 0 0 0 0 0 0 0 127 0" result="hardAlpha"/>
<feOffset dy="-12"/>
<feGaussianBlur stdDeviation="15"/>
<feComposite in2="hardAlpha" operator="out"/>
<feColorMatrix type="matrix" values="0 0 0 0 0 0 0 0 0 0 0 0 0 0 0 0 0 0 0.25 0"/>
<feBlend mode="normal" in2="effect1_dropShadow_734_2411" result="effect2_dropShadow_734_2411"/>
<feBlend mode="normal" in="SourceGraphic" in2="effect2_dropShadow_734_2411" result="shape"/>
</filter>
<filter id="filter2_dd_734_2411" x="180.013" y="12.252" width="68.7314" height="86.7075" filterUnits="userSpaceOnUse" color-interpolation-filters="sRGB">
<feFlood flood-opacity="0" result="BackgroundImageFix"/>
<feColorMatrix in="SourceAlpha" type="matrix" values="0 0 0 0 0 0 0 0 0 0 0 0 0 0 0 0 0 0 127 0" result="hardAlpha"/>
<feOffset dx="6" dy="12"/>
<feGaussianBlur stdDeviation="15"/>
<feComposite in2="hardAlpha" operator="out"/>
<feColorMatrix type="matrix" values="0 0 0 0 0 0 0 0 0 0 0 0 0 0 0 0 0 0 0.25 0"/>
<feBlend mode="normal" in2="BackgroundImageFix" result="effect1_dropShadow_734_2411"/>
<feColorMatrix in="SourceAlpha" type="matrix" values="0 0 0 0 0 0 0 0 0 0 0 0 0 0 0 0 0 0 127 0" result="hardAlpha"/>
<feOffset dy="-12"/>
<feGaussianBlur stdDeviation="15"/>
<feComposite in2="hardAlpha" operator="out"/>
<feColorMatrix type="matrix" values="0 0 0 0 0 0 0 0 0 0 0 0 0 0 0 0 0 0 0.25 0"/>
<feBlend mode="normal" in2="effect1_dropShadow_734_2411" result="effect2_dropShadow_734_2411"/>
<feBlend mode="normal" in="SourceGraphic" in2="effect2_dropShadow_734_2411" result="shape"/>
</filter>
<filter id="filter3_dd_734_2411" x="187.32" y="12.252" width="68.7314" height="86.7075" filterUnits="userSpaceOnUse" color-interpolation-filters="sRGB">
<feFlood flood-opacity="0" result="BackgroundImageFix"/>
<feColorMatrix in="SourceAlpha" type="matrix" values="0 0 0 0 0 0 0 0 0 0 0 0 0 0 0 0 0 0 127 0" result="hardAlpha"/>
<feOffset dx="6" dy="12"/>
<feGaussianBlur stdDeviation="15"/>
<feComposite in2="hardAlpha" operator="out"/>
<feColorMatrix type="matrix" values="0 0 0 0 0 0 0 0 0 0 0 0 0 0 0 0 0 0 0.25 0"/>
<feBlend mode="normal" in2="BackgroundImageFix" result="effect1_dropShadow_734_2411"/>
<feColorMatrix in="SourceAlpha" type="matrix" values="0 0 0 0 0 0 0 0 0 0 0 0 0 0 0 0 0 0 127 0" result="hardAlpha"/>
<feOffset dy="-12"/>
<feGaussianBlur stdDeviation="15"/>
<feComposite in2="hardAlpha" operator="out"/>
<feColorMatrix type="matrix" values="0 0 0 0 0 0 0 0 0 0 0 0 0 0 0 0 0 0 0.25 0"/>
<feBlend mode="normal" in2="effect1_dropShadow_734_2411" result="effect2_dropShadow_734_2411"/>
<feBlend mode="normal" in="SourceGraphic" in2="effect2_dropShadow_734_2411" result="shape"/>
</filter>
<filter id="filter4_dd_734_2411" x="193.125" y="2.77539" width="116.603" height="111.414" filterUnits="userSpaceOnUse" color-interpolation-filters="sRGB">
<feFlood flood-opacity="0" result="BackgroundImageFix"/>
<feColorMatrix in="SourceAlpha" type="matrix" values="0 0 0 0 0 0 0 0 0 0 0 0 0 0 0 0 0 0 127 0" result="hardAlpha"/>
<feOffset dx="6" dy="12"/>
<feGaussianBlur stdDeviation="15"/>
<feComposite in2="hardAlpha" operator="out"/>
<feColorMatrix type="matrix" values="0 0 0 0 0 0 0 0 0 0 0 0 0 0 0 0 0 0 0.25 0"/>
<feBlend mode="normal" in2="BackgroundImageFix" result="effect1_dropShadow_734_2411"/>
<feColorMatrix in="SourceAlpha" type="matrix" values="0 0 0 0 0 0 0 0 0 0 0 0 0 0 0 0 0 0 127 0" result="hardAlpha"/>
<feOffset dy="-12"/>
<feGaussianBlur stdDeviation="15"/>
<feComposite in2="hardAlpha" operator="out"/>
<feColorMatrix type="matrix" values="0 0 0 0 0 0 0 0 0 0 0 0 0 0 0 0 0 0 0.25 0"/>
<feBlend mode="normal" in2="effect1_dropShadow_734_2411" result="effect2_dropShadow_734_2411"/>
<feBlend mode="normal" in="SourceGraphic" in2="effect2_dropShadow_734_2411" result="shape"/>
</filter>
<filter id="filter5_dd_734_2411" x="0" y="45.4199" width="97.6865" height="113.106" filterUnits="userSpaceOnUse" color-interpolation-filters="sRGB">
<feFlood flood-opacity="0" result="BackgroundImageFix"/>
<feColorMatrix in="SourceAlpha" type="matrix" values="0 0 0 0 0 0 0 0 0 0 0 0 0 0 0 0 0 0 127 0" result="hardAlpha"/>
<feOffset dx="6" dy="12"/>
<feGaussianBlur stdDeviation="15"/>
<feComposite in2="hardAlpha" operator="out"/>
<feColorMatrix type="matrix" values="0 0 0 0 0 0 0 0 0 0 0 0 0 0 0 0 0 0 0.25 0"/>
<feBlend mode="normal" in2="BackgroundImageFix" result="effect1_dropShadow_734_2411"/>
<feColorMatrix in="SourceAlpha" type="matrix" values="0 0 0 0 0 0 0 0 0 0 0 0 0 0 0 0 0 0 127 0" result="hardAlpha"/>
<feOffset dy="-12"/>
<feGaussianBlur stdDeviation="15"/>
<feComposite in2="hardAlpha" operator="out"/>
<feColorMatrix type="matrix" values="0 0 0 0 0 0 0 0 0 0 0 0 0 0 0 0 0 0 0.25 0"/>
<feBlend mode="normal" in2="effect1_dropShadow_734_2411" result="effect2_dropShadow_734_2411"/>
<feBlend mode="normal" in="SourceGraphic" in2="effect2_dropShadow_734_2411" result="shape"/>
</filter>
<filter id="filter6_dd_734_2411" x="33.5986" y="45.0811" width="107.111" height="113.513" filterUnits="userSpaceOnUse" color-interpolation-filters="sRGB">
<feFlood flood-opacity="0" result="BackgroundImageFix"/>
<feColorMatrix in="SourceAlpha" type="matrix" values="0 0 0 0 0 0 0 0 0 0 0 0 0 0 0 0 0 0 127 0" result="hardAlpha"/>
<feOffset dx="6" dy="12"/>
<feGaussianBlur stdDeviation="15"/>
<feComposite in2="hardAlpha" operator="out"/>
<feColorMatrix type="matrix" values="0 0 0 0 0 0 0 0 0 0 0 0 0 0 0 0 0 0 0.25 0"/>
<feBlend mode="normal" in2="BackgroundImageFix" result="effect1_dropShadow_734_2411"/>
<feColorMatrix in="SourceAlpha" type="matrix" values="0 0 0 0 0 0 0 0 0 0 0 0 0 0 0 0 0 0 127 0" result="hardAlpha"/>
<feOffset dy="-12"/>
<feGaussianBlur stdDeviation="15"/>
<feComposite in2="hardAlpha" operator="out"/>
<feColorMatrix type="matrix" values="0 0 0 0 0 0 0 0 0 0 0 0 0 0 0 0 0 0 0.25 0"/>
<feBlend mode="normal" in2="effect1_dropShadow_734_2411" result="effect2_dropShadow_734_2411"/>
<feBlend mode="normal" in="SourceGraphic" in2="effect2_dropShadow_734_2411" result="shape"/>
</filter>
<filter id="filter7_dd_734_2411" x="102.64" y="45.4199" width="98.0962" height="113.106" filterUnits="userSpaceOnUse" color-interpolation-filters="sRGB">
<feFlood flood-opacity="0" result="BackgroundImageFix"/>
<feColorMatrix in="SourceAlpha" type="matrix" values="0 0 0 0 0 0 0 0 0 0 0 0 0 0 0 0 0 0 127 0" result="hardAlpha"/>
<feOffset dx="6" dy="12"/>
<feGaussianBlur stdDeviation="15"/>
<feComposite in2="hardAlpha" operator="out"/>
<feColorMatrix type="matrix" values="0 0 0 0 0 0 0 0 0 0 0 0 0 0 0 0 0 0 0.25 0"/>
<feBlend mode="normal" in2="BackgroundImageFix" result="effect1_dropShadow_734_2411"/>
<feColorMatrix in="SourceAlpha" type="matrix" values="0 0 0 0 0 0 0 0 0 0 0 0 0 0 0 0 0 0 127 0" result="hardAlpha"/>
<feOffset dy="-12"/>
<feGaussianBlur stdDeviation="15"/>
<feComposite in2="hardAlpha" operator="out"/>
<feColorMatrix type="matrix" values="0 0 0 0 0 0 0 0 0 0 0 0 0 0 0 0 0 0 0.25 0"/>
<feBlend mode="normal" in2="effect1_dropShadow_734_2411" result="effect2_dropShadow_734_2411"/>
<feBlend mode="normal" in="SourceGraphic" in2="effect2_dropShadow_734_2411" result="shape"/>
</filter>
<filter id="filter8_dd_734_2411" x="135.556" y="45.0811" width="107.111" height="113.513" filterUnits="userSpaceOnUse" color-interpolation-filters="sRGB">
<feFlood flood-opacity="0" result="BackgroundImageFix"/>
<feColorMatrix in="SourceAlpha" type="matrix" values="0 0 0 0 0 0 0 0 0 0 0 0 0 0 0 0 0 0 127 0" result="hardAlpha"/>
<feOffset dx="6" dy="12"/>
<feGaussianBlur stdDeviation="15"/>
<feComposite in2="hardAlpha" operator="out"/>
<feColorMatrix type="matrix" values="0 0 0 0 0 0 0 0 0 0 0 0 0 0 0 0 0 0 0.25 0"/>
<feBlend mode="normal" in2="BackgroundImageFix" result="effect1_dropShadow_734_2411"/>
<feColorMatrix in="SourceAlpha" type="matrix" values="0 0 0 0 0 0 0 0 0 0 0 0 0 0 0 0 0 0 127 0" result="hardAlpha"/>
<feOffset dy="-12"/>
<feGaussianBlur stdDeviation="15"/>
<feComposite in2="hardAlpha" operator="out"/>
<feColorMatrix type="matrix" values="0 0 0 0 0 0 0 0 0 0 0 0 0 0 0 0 0 0 0.25 0"/>
<feBlend mode="normal" in2="effect1_dropShadow_734_2411" result="effect2_dropShadow_734_2411"/>
<feBlend mode="normal" in="SourceGraphic" in2="effect2_dropShadow_734_2411" result="shape"/>
</filter>
<filter id="filter9_dd_734_2411" x="208.763" y="45.4873" width="94.6821" height="113.039" filterUnits="userSpaceOnUse" color-interpolation-filters="sRGB">
<feFlood flood-opacity="0" result="BackgroundImageFix"/>
<feColorMatrix in="SourceAlpha" type="matrix" values="0 0 0 0 0 0 0 0 0 0 0 0 0 0 0 0 0 0 127 0" result="hardAlpha"/>
<feOffset dx="6" dy="12"/>
<feGaussianBlur stdDeviation="15"/>
<feComposite in2="hardAlpha" operator="out"/>
<feColorMatrix type="matrix" values="0 0 0 0 0 0 0 0 0 0 0 0 0 0 0 0 0 0 0.25 0"/>
<feBlend mode="normal" in2="BackgroundImageFix" result="effect1_dropShadow_734_2411"/>
<feColorMatrix in="SourceAlpha" type="matrix" values="0 0 0 0 0 0 0 0 0 0 0 0 0 0 0 0 0 0 127 0" result="hardAlpha"/>
<feOffset dy="-12"/>
<feGaussianBlur stdDeviation="15"/>
<feComposite in2="hardAlpha" operator="out"/>
<feColorMatrix type="matrix" values="0 0 0 0 0 0 0 0 0 0 0 0 0 0 0 0 0 0 0.25 0"/>
<feBlend mode="normal" in2="effect1_dropShadow_734_2411" result="effect2_dropShadow_734_2411"/>
<feBlend mode="normal" in="SourceGraphic" in2="effect2_dropShadow_734_2411" result="shape"/>
</filter>
<filter id="filter10_dd_734_2411" x="165.058" y="45.4873" width="106.974" height="113.513" filterUnits="userSpaceOnUse" color-interpolation-filters="sRGB">
<feFlood flood-opacity="0" result="BackgroundImageFix"/>
<feColorMatrix in="SourceAlpha" type="matrix" values="0 0 0 0 0 0 0 0 0 0 0 0 0 0 0 0 0 0 127 0" result="hardAlpha"/>
<feOffset dx="6" dy="12"/>
<feGaussianBlur stdDeviation="15"/>
<feComposite in2="hardAlpha" operator="out"/>
<feColorMatrix type="matrix" values="0 0 0 0 0 0 0 0 0 0 0 0 0 0 0 0 0 0 0.25 0"/>
<feBlend mode="normal" in2="BackgroundImageFix" result="effect1_dropShadow_734_2411"/>
<feColorMatrix in="SourceAlpha" type="matrix" values="0 0 0 0 0 0 0 0 0 0 0 0 0 0 0 0 0 0 127 0" result="hardAlpha"/>
<feOffset dy="-12"/>
<feGaussianBlur stdDeviation="15"/>
<feComposite in2="hardAlpha" operator="out"/>
<feColorMatrix type="matrix" values="0 0 0 0 0 0 0 0 0 0 0 0 0 0 0 0 0 0 0.25 0"/>
<feBlend mode="normal" in2="effect1_dropShadow_734_2411" result="effect2_dropShadow_734_2411"/>
<feBlend mode="normal" in="SourceGraphic" in2="effect2_dropShadow_734_2411" result="shape"/>
</filter>
<filter id="filter11_dd_734_2411" x="71.6362" y="45.4873" width="98.916" height="113.039" filterUnits="userSpaceOnUse" color-interpolation-filters="sRGB">
<feFlood flood-opacity="0" result="BackgroundImageFix"/>
<feColorMatrix in="SourceAlpha" type="matrix" values="0 0 0 0 0 0 0 0 0 0 0 0 0 0 0 0 0 0 127 0" result="hardAlpha"/>
<feOffset dx="6" dy="12"/>
<feGaussianBlur stdDeviation="15"/>
<feComposite in2="hardAlpha" operator="out"/>
<feColorMatrix type="matrix" values="0 0 0 0 0 0 0 0 0 0 0 0 0 0 0 0 0 0 0.25 0"/>
<feBlend mode="normal" in2="BackgroundImageFix" result="effect1_dropShadow_734_2411"/>
<feColorMatrix in="SourceAlpha" type="matrix" values="0 0 0 0 0 0 0 0 0 0 0 0 0 0 0 0 0 0 127 0" result="hardAlpha"/>
<feOffset dy="-12"/>
<feGaussianBlur stdDeviation="15"/>
<feComposite in2="hardAlpha" operator="out"/>
<feColorMatrix type="matrix" values="0 0 0 0 0 0 0 0 0 0 0 0 0 0 0 0 0 0 0.25 0"/>
<feBlend mode="normal" in2="effect1_dropShadow_734_2411" result="effect2_dropShadow_734_2411"/>
<feBlend mode="normal" in="SourceGraphic" in2="effect2_dropShadow_734_2411" result="shape"/>
</filter>
<linearGradient id="paint0_linear_734_2411" x1="214.793" y1="42" x2="214.793" y2="106.779" gradientUnits="userSpaceOnUse">
<stop stop-color="white"/>
<stop offset="1" stop-color="white" stop-opacity="0"/>
</linearGradient>
</defs>
</svg>
