<svg width="315" height="226" viewBox="0 0 315 226" fill="none" xmlns="http://www.w3.org/2000/svg">
<path d="M226.226 105.361C219.121 106.877 204.584 100 204.584 100L186.386 112.076C186.058 111.968 185.73 111.859 185.402 111.697C188.08 107.365 187.807 104.603 187.807 104.603C185.238 105.469 182.506 107.202 181.795 107.69C180.374 106.227 178.844 106.39 177.696 107.581C176.767 106.986 174.253 105.415 171.849 104.603C171.849 104.603 171.576 107.256 174.09 111.372C173.707 111.534 173.379 111.697 173.051 111.805L155.235 100C155.235 100 140.644 106.877 133.594 105.361C133.594 105.361 122.719 117.329 110.204 120.578C111.461 120.307 119.877 118.628 122.773 124.585C122.773 124.585 135.944 121.173 142.884 131.3C142.884 131.3 154.798 124.91 164.799 129.675C168.952 131.625 171.576 136.39 171.576 136.39L180.429 151.823V151.769L189.665 136.39L193.49 130.433C193.982 130.217 194.474 129.946 194.966 129.729C204.967 124.964 216.88 131.354 216.88 131.354C223.821 121.173 236.992 124.639 236.992 124.639C239.943 118.682 248.304 120.307 249.561 120.632C237.101 117.329 226.226 105.361 226.226 105.361Z" fill="url(#paint0_linear_1252_34)" fill-opacity="0.6"/>
<g filter="url(#filter0_dd_1252_34)">
<path d="M169.062 112.13L164.034 109.152C161.138 107.365 158.187 105.578 155.29 103.737L157.749 122.094L154.525 104.116L144.415 124.043L153.651 104.061C153.104 104.495 152.339 105.09 151.41 105.849C149.497 107.365 146.819 109.26 144.142 111.047C142.775 111.913 141.409 112.834 140.098 113.592C139.442 113.971 138.786 114.35 138.185 114.675C137.584 115 137.037 115.379 136.436 115.65C134.25 116.733 132.774 117.437 132.774 117.437C132.774 117.437 134.195 116.679 136.381 115.542C136.928 115.271 137.474 114.892 138.075 114.513C138.677 114.134 139.278 113.755 139.934 113.376C141.245 112.563 142.557 111.643 143.868 110.722C146.492 108.827 149.06 106.877 150.918 105.307C151.683 104.711 152.284 104.17 152.776 103.737C150.426 104.874 148.022 105.903 145.562 106.769C144.032 107.311 142.557 107.798 140.972 108.123C140.589 108.231 140.207 108.285 139.824 108.394C139.442 108.448 139.059 108.556 138.622 108.61C137.857 108.719 137.037 108.773 136.217 108.773C137.037 108.719 137.802 108.61 138.567 108.448C138.95 108.394 139.332 108.285 139.715 108.177C140.098 108.069 140.48 107.96 140.863 107.852C142.393 107.365 143.868 106.877 145.344 106.282C148.295 105.09 151.191 103.791 153.979 102.329L154.197 102.22L154.416 102.329C157.749 104.332 161.028 106.444 164.362 108.556L169.281 111.751C170.92 112.834 172.505 113.917 174.144 115.054C172.45 114.08 170.756 113.159 169.062 112.13Z" fill="#007AFF"/>
</g>
<g filter="url(#filter1_dd_1252_34)">
<path d="M176.768 112.147C176.166 111.551 176.057 110.685 176.057 110.685C176.057 110.685 176.932 110.793 177.533 111.389C178.134 111.985 178.243 112.851 178.243 112.851C178.243 112.851 177.369 112.743 176.768 112.147Z" fill="black"/>
</g>
<g filter="url(#filter2_dd_1252_34)">
<path d="M183.38 112.147C182.779 112.743 181.905 112.851 181.905 112.851C181.905 112.851 182.014 111.985 182.615 111.389C183.216 110.793 184.091 110.685 184.091 110.685C184.091 110.685 183.981 111.551 183.38 112.147Z" fill="black"/>
</g>
<g filter="url(#filter3_dd_1252_34)">
<path d="M223.384 115.65C222.838 115.379 222.291 115.054 221.635 114.675C221.034 114.35 220.378 113.971 219.723 113.592C218.411 112.834 217.045 111.913 215.678 111.047C213.001 109.26 210.323 107.365 208.41 105.848C207.7 105.307 207.044 104.82 206.552 104.386L215.678 124.152L205.459 104.007L202.289 121.932L204.694 103.682C201.907 105.524 199.065 107.311 196.223 109.098L191.414 112.076C189.829 113.051 188.19 114.025 186.55 114.946C188.08 113.863 189.61 112.726 191.195 111.697L195.895 108.502C199.065 106.444 202.18 104.332 205.404 102.329L205.623 102.22L205.841 102.329C208.629 103.791 211.525 105.09 214.476 106.282C215.952 106.877 217.427 107.365 218.957 107.852C219.34 107.96 219.723 108.069 220.105 108.177C220.488 108.285 220.87 108.394 221.253 108.448C222.018 108.61 222.838 108.719 223.603 108.773C222.783 108.773 222.018 108.719 221.198 108.61C220.816 108.556 220.433 108.502 219.996 108.394C219.613 108.339 219.231 108.231 218.848 108.123C217.263 107.798 215.788 107.256 214.258 106.769C211.798 105.903 209.394 104.874 207.044 103.737C207.536 104.17 208.191 104.711 208.902 105.307C210.76 106.877 213.328 108.827 215.952 110.722C217.318 111.643 218.63 112.563 219.886 113.376C220.542 113.755 221.143 114.134 221.745 114.513C222.346 114.892 222.892 115.271 223.439 115.542C225.57 116.679 227.046 117.437 227.046 117.437C227.046 117.437 225.57 116.733 223.384 115.65Z" fill="#007AFF"/>
</g>
<path d="M54.2971 147.654C55.1715 147.979 55.882 148.52 56.4831 149.441C57.0843 150.307 57.3575 151.444 57.3575 152.852C57.3575 153.827 57.2482 154.748 56.975 155.56C56.7017 156.372 56.2645 157.076 55.6634 157.672C55.0622 158.267 54.2425 158.755 53.2041 159.08C52.1658 159.405 50.8542 159.621 49.324 159.621H32V145.488H49.488C49.9252 145.488 50.3624 145.379 50.6903 145.163C51.0182 144.946 51.1821 144.513 51.1821 143.917C51.1821 143.322 51.0182 142.942 50.6356 142.726C50.3077 142.509 49.8705 142.401 49.4333 142.401H32L36.1534 136.336H49.2147C50.417 136.336 51.4554 136.444 52.4391 136.715C53.3681 136.986 54.1878 137.365 54.8983 137.906C55.5541 138.448 56.1006 139.098 56.4831 139.91C56.8657 140.722 57.0296 141.643 57.0296 142.726C57.0296 143.43 56.975 144.025 56.811 144.567C56.6471 145.109 56.4285 145.542 56.2099 145.975C55.9913 146.408 55.6634 146.733 55.3355 147.004C54.9529 147.329 54.625 147.545 54.2971 147.654ZM38.1208 150.47V153.664H49.3787C50.0345 153.664 50.5263 153.502 50.7996 153.231C51.0728 152.961 51.2368 152.527 51.2368 152.04C51.2368 151.553 51.0728 151.119 50.7996 150.903C50.5263 150.632 50.0345 150.524 49.3787 150.524H38.1208V150.47Z" fill="#007AFF"/>
<path d="M68.7792 159.621L72.4407 153.664H77.4139C78.015 153.664 78.6162 153.664 79.272 153.664C79.9278 153.664 80.4743 153.664 80.9661 153.718C80.6929 153.285 80.365 152.798 79.9824 152.148C79.5999 151.498 79.272 150.902 78.9441 150.361L75.3918 144.242L66.156 159.675H58.8876L71.5663 138.664C72.0035 138.014 72.4954 137.419 73.1512 136.877C73.807 136.336 74.5721 136.065 75.5558 136.065C76.4848 136.065 77.2499 136.336 77.8511 136.823C78.4522 137.31 78.9987 137.96 79.4359 138.664L91.7868 159.675H68.7792V159.621Z" fill="#007AFF"/>
<path d="M139.824 153.664L135.889 159.621H125.998C124.304 159.621 122.719 159.296 121.243 158.701C119.768 158.105 118.511 157.293 117.472 156.21C116.434 155.181 115.614 153.881 115.013 152.473C114.412 151.011 114.139 149.441 114.139 147.762C114.139 146.083 114.412 144.513 115.013 143.105C115.614 141.697 116.434 140.506 117.472 139.477C118.511 138.448 119.768 137.69 121.243 137.148C122.719 136.607 124.304 136.336 125.998 136.336H139.824L135.889 142.401H125.998C125.178 142.401 124.413 142.563 123.702 142.834C122.992 143.105 122.391 143.484 121.899 143.971C121.407 144.459 120.97 145.054 120.697 145.758C120.423 146.462 120.259 147.22 120.259 148.033C120.259 148.845 120.423 149.603 120.697 150.307C120.97 151.011 121.407 151.553 121.899 152.04C122.445 152.527 123.047 152.906 123.757 153.177C124.467 153.448 125.233 153.556 126.052 153.556H139.824V153.664Z" fill="#007AFF"/>
<path d="M150.317 159.621L153.978 153.664H158.952C159.553 153.664 160.154 153.664 160.81 153.664C161.466 153.664 162.012 153.664 162.504 153.718C162.231 153.285 161.903 152.798 161.52 152.148C161.138 151.498 160.81 150.902 160.482 150.361L156.93 144.242L147.694 159.675H140.48L153.159 138.664C153.596 138.014 154.088 137.419 154.744 136.877C155.399 136.336 156.164 136.065 157.148 136.065C158.077 136.065 158.842 136.336 159.443 136.823C160.045 137.31 160.591 137.96 161.028 138.664L173.379 159.675H150.317V159.621Z" fill="#007AFF"/>
<path d="M222.018 153.664L218.083 159.621H199.065V136.39H221.908L217.973 142.455H205.24V145.216H220.87L217.372 150.469H205.24V153.61H222.018V153.664Z" fill="#007AFF"/>
<path d="M196.879 136.39L184.255 157.401C183.817 158.05 183.271 158.646 182.67 159.188C182.014 159.729 181.249 160 180.32 160C179.391 160 178.626 159.729 178.025 159.242C177.423 158.754 176.877 158.105 176.44 157.401L164.089 136.39H171.576L180.429 151.823V151.769L189.665 136.39H196.879Z" fill="#007AFF"/>
<path d="M115.669 136.39L111.734 142.401H104.684V156.426L98.5633 159.621V142.401H89.3275L93.2623 136.39H115.669Z" fill="#007AFF"/>
<defs>
<filter id="filter0_dd_1252_34" x="60.2157" y="0.638189" width="200.999" height="224.987" filterUnits="userSpaceOnUse" color-interpolation-filters="sRGB">
<feFlood flood-opacity="0" result="BackgroundImageFix"/>
<feColorMatrix in="SourceAlpha" type="matrix" values="0 0 0 0 0 0 0 0 0 0 0 0 0 0 0 0 0 0 127 0" result="hardAlpha"/>
<feOffset dx="14.5117" dy="29.0235"/>
<feGaussianBlur stdDeviation="36.2793"/>
<feComposite in2="hardAlpha" operator="out"/>
<feColorMatrix type="matrix" values="0 0 0 0 0 0 0 0 0 0 0 0 0 0 0 0 0 0 0.25 0"/>
<feBlend mode="normal" in2="BackgroundImageFix" result="effect1_dropShadow_1252_34"/>
<feColorMatrix in="SourceAlpha" type="matrix" values="0 0 0 0 0 0 0 0 0 0 0 0 0 0 0 0 0 0 127 0" result="hardAlpha"/>
<feOffset dy="-29.0235"/>
<feGaussianBlur stdDeviation="36.2793"/>
<feComposite in2="hardAlpha" operator="out"/>
<feColorMatrix type="matrix" values="0 0 0 0 0 0 0 0 0 0 0 0 0 0 0 0 0 0 0.25 0"/>
<feBlend mode="normal" in2="effect1_dropShadow_1252_34" result="effect2_dropShadow_1252_34"/>
<feBlend mode="normal" in="SourceGraphic" in2="effect2_dropShadow_1252_34" result="shape"/>
</filter>
<filter id="filter1_dd_1252_34" x="103.498" y="9.10279" width="161.815" height="205.33" filterUnits="userSpaceOnUse" color-interpolation-filters="sRGB">
<feFlood flood-opacity="0" result="BackgroundImageFix"/>
<feColorMatrix in="SourceAlpha" type="matrix" values="0 0 0 0 0 0 0 0 0 0 0 0 0 0 0 0 0 0 127 0" result="hardAlpha"/>
<feOffset dx="14.5117" dy="29.0235"/>
<feGaussianBlur stdDeviation="36.2793"/>
<feComposite in2="hardAlpha" operator="out"/>
<feColorMatrix type="matrix" values="0 0 0 0 0 0 0 0 0 0 0 0 0 0 0 0 0 0 0.25 0"/>
<feBlend mode="normal" in2="BackgroundImageFix" result="effect1_dropShadow_1252_34"/>
<feColorMatrix in="SourceAlpha" type="matrix" values="0 0 0 0 0 0 0 0 0 0 0 0 0 0 0 0 0 0 127 0" result="hardAlpha"/>
<feOffset dy="-29.0235"/>
<feGaussianBlur stdDeviation="36.2793"/>
<feComposite in2="hardAlpha" operator="out"/>
<feColorMatrix type="matrix" values="0 0 0 0 0 0 0 0 0 0 0 0 0 0 0 0 0 0 0.25 0"/>
<feBlend mode="normal" in2="effect1_dropShadow_1252_34" result="effect2_dropShadow_1252_34"/>
<feBlend mode="normal" in="SourceGraphic" in2="effect2_dropShadow_1252_34" result="shape"/>
</filter>
<filter id="filter2_dd_1252_34" x="109.346" y="9.10279" width="161.815" height="205.33" filterUnits="userSpaceOnUse" color-interpolation-filters="sRGB">
<feFlood flood-opacity="0" result="BackgroundImageFix"/>
<feColorMatrix in="SourceAlpha" type="matrix" values="0 0 0 0 0 0 0 0 0 0 0 0 0 0 0 0 0 0 127 0" result="hardAlpha"/>
<feOffset dx="14.5117" dy="29.0235"/>
<feGaussianBlur stdDeviation="36.2793"/>
<feComposite in2="hardAlpha" operator="out"/>
<feColorMatrix type="matrix" values="0 0 0 0 0 0 0 0 0 0 0 0 0 0 0 0 0 0 0.25 0"/>
<feBlend mode="normal" in2="BackgroundImageFix" result="effect1_dropShadow_1252_34"/>
<feColorMatrix in="SourceAlpha" type="matrix" values="0 0 0 0 0 0 0 0 0 0 0 0 0 0 0 0 0 0 127 0" result="hardAlpha"/>
<feOffset dy="-29.0235"/>
<feGaussianBlur stdDeviation="36.2793"/>
<feComposite in2="hardAlpha" operator="out"/>
<feColorMatrix type="matrix" values="0 0 0 0 0 0 0 0 0 0 0 0 0 0 0 0 0 0 0.25 0"/>
<feBlend mode="normal" in2="effect1_dropShadow_1252_34" result="effect2_dropShadow_1252_34"/>
<feBlend mode="normal" in="SourceGraphic" in2="effect2_dropShadow_1252_34" result="shape"/>
</filter>
<filter id="filter3_dd_1252_34" x="113.991" y="0.638189" width="200.125" height="225.096" filterUnits="userSpaceOnUse" color-interpolation-filters="sRGB">
<feFlood flood-opacity="0" result="BackgroundImageFix"/>
<feColorMatrix in="SourceAlpha" type="matrix" values="0 0 0 0 0 0 0 0 0 0 0 0 0 0 0 0 0 0 127 0" result="hardAlpha"/>
<feOffset dx="14.5117" dy="29.0235"/>
<feGaussianBlur stdDeviation="36.2793"/>
<feComposite in2="hardAlpha" operator="out"/>
<feColorMatrix type="matrix" values="0 0 0 0 0 0 0 0 0 0 0 0 0 0 0 0 0 0 0.25 0"/>
<feBlend mode="normal" in2="BackgroundImageFix" result="effect1_dropShadow_1252_34"/>
<feColorMatrix in="SourceAlpha" type="matrix" values="0 0 0 0 0 0 0 0 0 0 0 0 0 0 0 0 0 0 127 0" result="hardAlpha"/>
<feOffset dy="-29.0235"/>
<feGaussianBlur stdDeviation="36.2793"/>
<feComposite in2="hardAlpha" operator="out"/>
<feColorMatrix type="matrix" values="0 0 0 0 0 0 0 0 0 0 0 0 0 0 0 0 0 0 0.25 0"/>
<feBlend mode="normal" in2="effect1_dropShadow_1252_34" result="effect2_dropShadow_1252_34"/>
<feBlend mode="normal" in="SourceGraphic" in2="effect2_dropShadow_1252_34" result="shape"/>
</filter>
<linearGradient id="paint0_linear_1252_34" x1="179.882" y1="100" x2="179.882" y2="151.823" gradientUnits="userSpaceOnUse">
<stop stop-color="#007AFF"/>
<stop offset="1" stop-color="#121212" stop-opacity="0"/>
</linearGradient>
</defs>
</svg>
