<svg width="283" height="226" viewBox="0 0 283 226" fill="none" xmlns="http://www.w3.org/2000/svg">
<g id="Group 34296">
<g id="Group 33746">
<path id="Vector" d="M194.226 105.361C187.121 106.877 172.584 100 172.584 100L154.386 112.076C154.058 111.968 153.73 111.859 153.402 111.697C156.08 107.365 155.807 104.603 155.807 104.603C153.238 105.469 150.506 107.202 149.795 107.69C148.374 106.227 146.844 106.39 145.696 107.581C144.767 106.986 142.253 105.415 139.849 104.603C139.849 104.603 139.576 107.256 142.09 111.372C141.707 111.534 141.379 111.697 141.051 111.805L123.235 100C123.235 100 108.644 106.877 101.594 105.361C101.594 105.361 90.7187 117.329 78.2039 120.578C79.4608 120.307 87.8769 118.628 90.7733 124.585C90.7733 124.585 103.944 121.173 110.884 131.3C110.884 131.3 122.798 124.91 132.799 129.675C136.952 131.625 139.576 136.39 139.576 136.39L148.429 151.823V151.769L157.665 136.39L161.49 130.433C161.982 130.217 162.474 129.946 162.966 129.729C172.967 124.964 184.88 131.354 184.88 131.354C191.821 121.173 204.992 124.639 204.992 124.639C207.943 118.682 216.304 120.307 217.561 120.632C205.101 117.329 194.226 105.361 194.226 105.361Z" fill="url(#paint0_linear_1140_364314)" fill-opacity="0.6"/>
<g id="Vector_2" filter="url(#filter0_dd_1140_364314)">
<path d="M137.062 112.13L132.034 109.152C129.138 107.365 126.187 105.578 123.29 103.737L125.749 122.094L122.525 104.116L112.415 124.043L121.651 104.061C121.104 104.495 120.339 105.09 119.41 105.848C117.497 107.365 114.819 109.26 112.142 111.047C110.775 111.913 109.409 112.834 108.098 113.592C107.442 113.971 106.786 114.35 106.185 114.675C105.584 115 105.037 115.379 104.436 115.65C102.25 116.733 100.774 117.437 100.774 117.437C100.774 117.437 102.195 116.679 104.381 115.542C104.928 115.271 105.474 114.892 106.075 114.513C106.677 114.134 107.278 113.755 107.934 113.376C109.245 112.563 110.557 111.643 111.868 110.722C114.492 108.827 117.06 106.877 118.918 105.307C119.683 104.711 120.284 104.17 120.776 103.737C118.426 104.874 116.022 105.903 113.563 106.769C112.032 107.311 110.557 107.798 108.972 108.123C108.589 108.231 108.207 108.285 107.824 108.394C107.442 108.448 107.059 108.556 106.622 108.61C105.857 108.718 105.037 108.773 104.217 108.773C105.037 108.718 105.802 108.61 106.567 108.448C106.95 108.394 107.332 108.285 107.715 108.177C108.098 108.069 108.48 107.96 108.863 107.852C110.393 107.365 111.868 106.877 113.344 106.282C116.295 105.09 119.191 103.791 121.979 102.329L122.197 102.22L122.416 102.329C125.749 104.332 129.028 106.444 132.362 108.556L137.281 111.751C138.92 112.834 140.505 113.917 142.144 115.054C140.45 114.08 138.756 113.159 137.062 112.13Z" fill="#007AFF"/>
</g>
<g id="Vector_3" filter="url(#filter1_dd_1140_364314)">
<path d="M144.768 112.147C144.166 111.551 144.057 110.685 144.057 110.685C144.057 110.685 144.932 110.793 145.533 111.389C146.134 111.985 146.243 112.851 146.243 112.851C146.243 112.851 145.369 112.743 144.768 112.147Z" fill="black"/>
</g>
<g id="Vector_4" filter="url(#filter2_dd_1140_364314)">
<path d="M151.38 112.147C150.779 112.743 149.905 112.851 149.905 112.851C149.905 112.851 150.014 111.985 150.615 111.389C151.216 110.793 152.091 110.685 152.091 110.685C152.091 110.685 151.981 111.551 151.38 112.147Z" fill="black"/>
</g>
<g id="Vector_5" filter="url(#filter3_dd_1140_364314)">
<path d="M191.384 115.65C190.838 115.379 190.291 115.054 189.635 114.675C189.034 114.35 188.378 113.971 187.723 113.592C186.411 112.834 185.045 111.913 183.678 111.047C181.001 109.26 178.323 107.365 176.41 105.848C175.7 105.307 175.044 104.82 174.552 104.386L183.678 124.152L173.459 104.007L170.289 121.932L172.694 103.682C169.907 105.524 167.065 107.311 164.223 109.098L159.414 112.076C157.829 113.051 156.19 114.025 154.55 114.946C156.08 113.863 157.61 112.726 159.195 111.697L163.895 108.502C167.065 106.444 170.18 104.332 173.404 102.329L173.623 102.22L173.841 102.329C176.629 103.791 179.525 105.09 182.476 106.282C183.952 106.877 185.427 107.365 186.957 107.852C187.34 107.96 187.723 108.069 188.105 108.177C188.488 108.285 188.87 108.394 189.253 108.448C190.018 108.61 190.838 108.718 191.603 108.773C190.783 108.773 190.018 108.718 189.198 108.61C188.816 108.556 188.433 108.502 187.996 108.394C187.613 108.339 187.231 108.231 186.848 108.123C185.263 107.798 183.788 107.256 182.258 106.769C179.798 105.903 177.394 104.874 175.044 103.737C175.536 104.17 176.191 104.711 176.902 105.307C178.76 106.877 181.328 108.827 183.952 110.722C185.318 111.643 186.63 112.563 187.886 113.376C188.542 113.755 189.143 114.134 189.745 114.513C190.346 114.892 190.892 115.271 191.439 115.542C193.57 116.679 195.046 117.437 195.046 117.437C195.046 117.437 193.57 116.733 191.384 115.65Z" fill="#007AFF"/>
</g>
</g>
<g id="Group 33745">
<path id="Vector_6" d="M22.2971 147.654C23.1715 147.979 23.882 148.52 24.4831 149.441C25.0843 150.307 25.3575 151.444 25.3575 152.852C25.3575 153.827 25.2482 154.747 24.975 155.56C24.7017 156.372 24.2645 157.076 23.6634 157.672C23.0622 158.267 22.2425 158.755 21.2041 159.08C20.1658 159.405 18.8542 159.621 17.324 159.621H0V145.488H17.488C17.9252 145.488 18.3624 145.379 18.6903 145.163C19.0182 144.946 19.1821 144.513 19.1821 143.917C19.1821 143.321 19.0182 142.942 18.6356 142.726C18.3077 142.509 17.8705 142.401 17.4333 142.401H0L4.15339 136.336H17.2147C18.417 136.336 19.4554 136.444 20.4391 136.715C21.3681 136.986 22.1878 137.365 22.8983 137.906C23.5541 138.448 24.1006 139.098 24.4831 139.91C24.8657 140.722 25.0296 141.643 25.0296 142.726C25.0296 143.43 24.975 144.025 24.811 144.567C24.6471 145.108 24.4285 145.542 24.2099 145.975C23.9913 146.408 23.6634 146.733 23.3355 147.004C22.9529 147.329 22.625 147.545 22.2971 147.654ZM6.12078 150.47V153.664H17.3787C18.0345 153.664 18.5263 153.502 18.7996 153.231C19.0728 152.96 19.2368 152.527 19.2368 152.04C19.2368 151.553 19.0728 151.119 18.7996 150.903C18.5263 150.632 18.0345 150.524 17.3787 150.524H6.12078V150.47Z" fill="#007AFF"/>
<path id="Vector_7" d="M36.7792 159.621L40.4408 153.664H45.4139C46.0151 153.664 46.6162 153.664 47.272 153.664C47.9278 153.664 48.4743 153.664 48.9662 153.718C48.6929 153.285 48.365 152.798 47.9825 152.148C47.5999 151.498 47.272 150.902 46.9441 150.361L43.3919 144.242L34.1561 159.675H26.8876L39.5664 138.664C40.0036 138.014 40.4954 137.419 41.1512 136.877C41.807 136.336 42.5721 136.065 43.5558 136.065C44.4849 136.065 45.25 136.336 45.8511 136.823C46.4523 137.31 46.9988 137.96 47.436 138.664L59.7868 159.675H36.7792V159.621Z" fill="#007AFF"/>
<path id="Vector_8" d="M107.824 153.664L103.889 159.621H93.9977C92.3035 159.621 90.7187 159.296 89.2432 158.701C87.7676 158.105 86.5107 157.293 85.4723 156.21C84.434 155.181 83.6142 153.881 83.0131 152.473C82.4119 151.011 82.1387 149.441 82.1387 147.762C82.1387 146.083 82.4119 144.513 83.0131 143.105C83.6142 141.697 84.434 140.506 85.4723 139.477C86.5107 138.448 87.7676 137.69 89.2432 137.148C90.7187 136.607 92.3035 136.336 93.9977 136.336H107.824L103.889 142.401H93.9977C93.1779 142.401 92.4128 142.563 91.7024 142.834C90.9919 143.105 90.3908 143.484 89.899 143.971C89.4071 144.459 88.9699 145.054 88.6967 145.758C88.4234 146.462 88.2595 147.22 88.2595 148.033C88.2595 148.845 88.4234 149.603 88.6967 150.307C88.9699 151.011 89.4071 151.553 89.899 152.04C90.4454 152.527 91.0466 152.906 91.757 153.177C92.4675 153.448 93.2326 153.556 94.0523 153.556H107.824V153.664Z" fill="#007AFF"/>
<path id="Vector_9" d="M118.317 159.621L121.979 153.664H126.952C127.553 153.664 128.154 153.664 128.81 153.664C129.466 153.664 130.012 153.664 130.504 153.718C130.231 153.285 129.903 152.798 129.52 152.148C129.138 151.498 128.81 150.902 128.482 150.361L124.93 144.242L115.694 159.675H108.48L121.159 138.664C121.596 138.014 122.088 137.419 122.744 136.877C123.399 136.336 124.165 136.065 125.148 136.065C126.077 136.065 126.842 136.336 127.444 136.823C128.045 137.31 128.591 137.96 129.028 138.664L141.379 159.675H118.317V159.621Z" fill="#007AFF"/>
<path id="Vector_10" d="M190.018 153.664L186.083 159.621H167.065V136.39H189.908L185.973 142.455H173.24V145.217H188.87L185.372 150.469H173.24V153.61H190.018V153.664Z" fill="#007AFF"/>
<path id="Vector_11" d="M164.879 136.39L152.255 157.401C151.817 158.051 151.271 158.646 150.67 159.188C150.014 159.729 149.249 160 148.32 160C147.391 160 146.626 159.729 146.025 159.242C145.423 158.754 144.877 158.105 144.44 157.401L132.089 136.39H139.576L148.429 151.823V151.769L157.665 136.39H164.879Z" fill="#007AFF"/>
<path id="Vector_12" d="M83.6688 136.39L79.734 142.401H72.6842V156.426L66.5634 159.621V142.401H57.3275L61.2623 136.39H83.6688Z" fill="#007AFF"/>
</g>
</g>
<defs>
<filter id="filter0_dd_1140_364314" x="28.2158" y="0.638144" width="200.999" height="224.987" filterUnits="userSpaceOnUse" color-interpolation-filters="sRGB">
<feFlood flood-opacity="0" result="BackgroundImageFix"/>
<feColorMatrix in="SourceAlpha" type="matrix" values="0 0 0 0 0 0 0 0 0 0 0 0 0 0 0 0 0 0 127 0" result="hardAlpha"/>
<feOffset dx="14.5117" dy="29.0235"/>
<feGaussianBlur stdDeviation="36.2793"/>
<feComposite in2="hardAlpha" operator="out"/>
<feColorMatrix type="matrix" values="0 0 0 0 0 0 0 0 0 0 0 0 0 0 0 0 0 0 0.25 0"/>
<feBlend mode="normal" in2="BackgroundImageFix" result="effect1_dropShadow_1140_364314"/>
<feColorMatrix in="SourceAlpha" type="matrix" values="0 0 0 0 0 0 0 0 0 0 0 0 0 0 0 0 0 0 127 0" result="hardAlpha"/>
<feOffset dy="-29.0235"/>
<feGaussianBlur stdDeviation="36.2793"/>
<feComposite in2="hardAlpha" operator="out"/>
<feColorMatrix type="matrix" values="0 0 0 0 0 0 0 0 0 0 0 0 0 0 0 0 0 0 0.25 0"/>
<feBlend mode="normal" in2="effect1_dropShadow_1140_364314" result="effect2_dropShadow_1140_364314"/>
<feBlend mode="normal" in="SourceGraphic" in2="effect2_dropShadow_1140_364314" result="shape"/>
</filter>
<filter id="filter1_dd_1140_364314" x="71.4985" y="9.10277" width="161.815" height="205.33" filterUnits="userSpaceOnUse" color-interpolation-filters="sRGB">
<feFlood flood-opacity="0" result="BackgroundImageFix"/>
<feColorMatrix in="SourceAlpha" type="matrix" values="0 0 0 0 0 0 0 0 0 0 0 0 0 0 0 0 0 0 127 0" result="hardAlpha"/>
<feOffset dx="14.5117" dy="29.0235"/>
<feGaussianBlur stdDeviation="36.2793"/>
<feComposite in2="hardAlpha" operator="out"/>
<feColorMatrix type="matrix" values="0 0 0 0 0 0 0 0 0 0 0 0 0 0 0 0 0 0 0.25 0"/>
<feBlend mode="normal" in2="BackgroundImageFix" result="effect1_dropShadow_1140_364314"/>
<feColorMatrix in="SourceAlpha" type="matrix" values="0 0 0 0 0 0 0 0 0 0 0 0 0 0 0 0 0 0 127 0" result="hardAlpha"/>
<feOffset dy="-29.0235"/>
<feGaussianBlur stdDeviation="36.2793"/>
<feComposite in2="hardAlpha" operator="out"/>
<feColorMatrix type="matrix" values="0 0 0 0 0 0 0 0 0 0 0 0 0 0 0 0 0 0 0.25 0"/>
<feBlend mode="normal" in2="effect1_dropShadow_1140_364314" result="effect2_dropShadow_1140_364314"/>
<feBlend mode="normal" in="SourceGraphic" in2="effect2_dropShadow_1140_364314" result="shape"/>
</filter>
<filter id="filter2_dd_1140_364314" x="77.3461" y="9.10277" width="161.815" height="205.33" filterUnits="userSpaceOnUse" color-interpolation-filters="sRGB">
<feFlood flood-opacity="0" result="BackgroundImageFix"/>
<feColorMatrix in="SourceAlpha" type="matrix" values="0 0 0 0 0 0 0 0 0 0 0 0 0 0 0 0 0 0 127 0" result="hardAlpha"/>
<feOffset dx="14.5117" dy="29.0235"/>
<feGaussianBlur stdDeviation="36.2793"/>
<feComposite in2="hardAlpha" operator="out"/>
<feColorMatrix type="matrix" values="0 0 0 0 0 0 0 0 0 0 0 0 0 0 0 0 0 0 0.25 0"/>
<feBlend mode="normal" in2="BackgroundImageFix" result="effect1_dropShadow_1140_364314"/>
<feColorMatrix in="SourceAlpha" type="matrix" values="0 0 0 0 0 0 0 0 0 0 0 0 0 0 0 0 0 0 127 0" result="hardAlpha"/>
<feOffset dy="-29.0235"/>
<feGaussianBlur stdDeviation="36.2793"/>
<feComposite in2="hardAlpha" operator="out"/>
<feColorMatrix type="matrix" values="0 0 0 0 0 0 0 0 0 0 0 0 0 0 0 0 0 0 0.25 0"/>
<feBlend mode="normal" in2="effect1_dropShadow_1140_364314" result="effect2_dropShadow_1140_364314"/>
<feBlend mode="normal" in="SourceGraphic" in2="effect2_dropShadow_1140_364314" result="shape"/>
</filter>
<filter id="filter3_dd_1140_364314" x="81.9914" y="0.638144" width="200.125" height="225.096" filterUnits="userSpaceOnUse" color-interpolation-filters="sRGB">
<feFlood flood-opacity="0" result="BackgroundImageFix"/>
<feColorMatrix in="SourceAlpha" type="matrix" values="0 0 0 0 0 0 0 0 0 0 0 0 0 0 0 0 0 0 127 0" result="hardAlpha"/>
<feOffset dx="14.5117" dy="29.0235"/>
<feGaussianBlur stdDeviation="36.2793"/>
<feComposite in2="hardAlpha" operator="out"/>
<feColorMatrix type="matrix" values="0 0 0 0 0 0 0 0 0 0 0 0 0 0 0 0 0 0 0.25 0"/>
<feBlend mode="normal" in2="BackgroundImageFix" result="effect1_dropShadow_1140_364314"/>
<feColorMatrix in="SourceAlpha" type="matrix" values="0 0 0 0 0 0 0 0 0 0 0 0 0 0 0 0 0 0 127 0" result="hardAlpha"/>
<feOffset dy="-29.0235"/>
<feGaussianBlur stdDeviation="36.2793"/>
<feComposite in2="hardAlpha" operator="out"/>
<feColorMatrix type="matrix" values="0 0 0 0 0 0 0 0 0 0 0 0 0 0 0 0 0 0 0.25 0"/>
<feBlend mode="normal" in2="effect1_dropShadow_1140_364314" result="effect2_dropShadow_1140_364314"/>
<feBlend mode="normal" in="SourceGraphic" in2="effect2_dropShadow_1140_364314" result="shape"/>
</filter>
<linearGradient id="paint0_linear_1140_364314" x1="147.882" y1="100" x2="147.882" y2="151.823" gradientUnits="userSpaceOnUse">
<stop stop-color="#007AFF"/>
<stop offset="1" stop-color="#121212" stop-opacity="0"/>
</linearGradient>
</defs>
</svg>
