<svg width="282" height="90" viewBox="0 0 282 90" fill="none" xmlns="http://www.w3.org/2000/svg">
<g clip-path="url(#clip0_1279_348627)">
<path d="M54.0057 55.1613C53.0165 64.813 44.8036 71.767 35.1519 71.3174C34.7022 71.2874 34.2526 71.2575 33.803 71.1975C33.2935 71.1376 32.8139 71.0476 32.3043 70.9577C30.2361 70.5381 28.3177 69.7588 26.5492 68.7396C26.1596 68.4998 25.7399 68.2301 25.3802 67.9603C20.8541 64.7231 17.8567 59.4776 17.7668 53.5127C17.6769 47.8176 17.6469 42.1225 17.7668 36.4274C17.8867 30.4325 20.8242 25.217 25.3802 22.0097C25.7699 21.74 26.1596 21.4702 26.5792 21.2304C28.3177 20.1813 30.2361 19.4319 32.3043 19.0123C32.7839 18.9224 33.2635 18.8325 33.7431 18.7725L38.7488 21.5901C38.5689 21.5601 38.3891 21.5301 38.1793 21.5002C36.7405 21.2903 35.2418 21.2604 33.7431 21.4702C33.2335 21.5301 32.7539 21.6201 32.2444 21.74C31.8547 21.8299 31.465 21.9498 31.0754 22.0697C24.9906 24.048 20.5244 29.863 20.4045 36.5173C20.3146 42.1225 20.3146 47.6977 20.4045 53.3029C20.4944 60.197 24.9606 65.922 31.1653 67.9003C31.5549 68.0202 31.9446 68.1401 32.3343 68.2301C33.5033 68.4998 34.7322 68.6497 35.9911 68.6497C36.7405 68.6497 37.4899 68.5898 38.2092 68.4998C38.6888 68.4399 39.1684 68.35 39.648 68.2301C46.3323 66.5815 51.308 60.6166 51.4579 53.3628C51.4878 51.4145 51.5478 49.4662 51.4279 47.5178C51.3979 46.9483 51.0083 46.169 50.5287 45.8693C47.2315 43.6212 43.8744 41.4331 40.4873 39.3349C40.0976 39.0951 39.2883 39.0951 38.9286 39.3349C35.6015 41.463 32.3343 43.6811 29.0971 45.8992C28.7673 46.139 28.3477 46.5587 28.3477 46.9184C28.2878 50.6052 28.3177 54.292 28.3177 58.0988H46.2423C46.1225 58.8481 45.9426 59.4176 45.6728 59.8373C45.433 60.2269 45.1333 60.4667 44.7436 60.6166C44.6537 60.8564 44.5338 61.0962 44.4139 61.336C44.1142 61.3959 43.7545 61.4259 43.3948 61.4259H41.2366C41.3565 61.2161 41.4764 61.0362 41.5963 60.8264H25.71C25.65 60.2269 25.5901 59.6874 25.5901 59.1778C25.5901 54.8915 25.62 50.5752 25.5601 46.2889C25.5601 45.3297 25.8299 44.7602 26.6392 44.2207C30.6557 41.6129 34.6423 38.9452 38.5989 36.2175C39.3782 35.678 39.9178 35.678 40.7271 36.1876C44.8036 38.8852 48.9101 41.553 53.0165 44.1907C53.8258 44.7003 54.2155 45.2398 54.1556 46.2289C54.0956 49.1664 54.3054 52.1938 54.0057 55.1613Z" fill="#228C22"/>
<path d="M54.0057 55.1613C53.0165 64.813 44.8036 71.767 35.1519 71.3174C34.7022 71.2875 34.2526 71.2575 33.803 71.1975C33.2935 71.1376 32.8139 71.0477 32.3043 70.9577C30.2361 70.5381 28.3177 69.7588 26.5492 68.7396C26.1596 68.4998 25.7399 68.2301 25.3802 67.9603C20.8541 64.7231 17.8567 59.4776 17.7668 53.5127C17.6769 47.8176 17.6469 42.1225 17.7668 36.4274C17.8867 30.4325 20.8242 25.217 25.3802 22.0097C25.7699 21.74 26.1596 21.4702 26.5792 21.2304C28.3177 20.1813 30.2361 19.4319 32.3043 19.0123C32.7839 18.9224 33.2635 18.8325 33.7431 18.7725C34.3426 18.6826 34.972 18.6526 35.6015 18.6226C45.0734 18.3229 53.2264 25.6666 54.1256 35.2584C54.1556 35.4382 54.1256 35.648 54.1256 36.0677C52.4171 35.1984 51.308 34.3591 50.7984 32.5007C49.2997 26.9855 44.9235 23.0289 39.5881 21.7699C39.3183 21.71 39.0485 21.65 38.7488 21.5901C38.5689 21.5601 38.3891 21.5301 38.1793 21.5002C36.7405 21.2904 35.2418 21.2604 33.7431 21.4702C33.2335 21.5301 32.7539 21.6201 32.2444 21.74C31.8547 21.8299 31.465 21.9498 31.0754 22.0697C24.9906 24.048 20.5244 29.863 20.4045 36.5173C20.3146 42.1225 20.3146 47.6977 20.4045 53.3029C20.4944 60.197 24.9606 65.9221 31.1653 67.9004C31.5549 68.0203 31.9446 68.1402 32.3343 68.2301C33.5033 68.4998 34.7322 68.6497 35.9911 68.6497C36.7405 68.6497 37.4899 68.5898 38.2092 68.4998C38.6888 68.4399 39.1684 68.35 39.648 68.2301C46.3323 66.5815 51.308 60.6166 51.4579 53.3628C51.4878 51.4145 51.5478 49.4662 51.4279 47.5178C51.3979 46.9483 51.0083 46.169 50.5287 45.8693C47.2315 43.6212 43.8744 41.4331 40.4873 39.3349C40.0976 39.0951 39.2883 39.0951 38.9286 39.3349C35.6015 41.463 32.3343 43.6811 29.0971 45.8992C28.7673 46.139 28.3477 46.5587 28.3477 46.9184C28.2878 50.6052 28.3177 54.292 28.3177 58.0988H46.2423C46.1225 58.8481 45.9426 59.4176 45.6728 59.8373C45.433 60.2269 45.1333 60.4667 44.7436 60.6166C44.3839 60.7665 43.9343 60.8264 43.3948 60.8264H25.71C25.65 60.2269 25.5901 59.6874 25.5901 59.1778C25.5901 54.8915 25.62 50.5752 25.5601 46.2889C25.5601 45.3297 25.8299 44.7602 26.6392 44.2207C30.6557 41.6129 34.6423 38.9452 38.5989 36.2175C39.3782 35.678 39.9178 35.678 40.7271 36.1876C44.8036 38.8853 48.9101 41.553 53.0165 44.1907C53.8258 44.7003 54.2155 45.2398 54.1556 46.229C54.0956 49.1664 54.3054 52.1938 54.0057 55.1613Z" fill="#228C22"/>
<path d="M40.3074 46.4088C41.1467 46.4088 41.9261 46.4088 42.7653 46.4088C42.7653 47.2481 42.7653 47.9974 42.7653 48.7468C40.2475 49.4062 40.0377 49.1964 40.3074 46.4088Z" fill="#228C22"/>
<path d="M40.2475 52.2838C40.2475 51.4145 40.2475 50.6951 40.2475 49.8559C41.0868 49.8559 41.8361 49.8559 42.7054 49.8559C42.7054 50.6352 42.7054 51.3845 42.7054 52.2838C41.986 52.2838 41.1767 52.2838 40.2475 52.2838Z" fill="#228C22"/>
<path d="M36.8604 48.8667C36.8604 48.0274 36.8604 47.2781 36.8604 46.4088C37.6697 46.4088 38.4191 46.4088 39.2883 46.4088C39.2883 47.2181 39.2883 47.9974 39.2883 48.8667C38.479 48.8667 37.7297 48.8667 36.8604 48.8667Z" fill="#228C22"/>
<path d="M39.2884 52.3137C38.4491 52.3137 37.6997 52.3137 36.8305 52.3137C36.8305 51.4745 36.8305 50.6951 36.8305 49.8259C37.6698 49.8259 38.4191 49.8259 39.2884 49.8259C39.2884 50.6951 39.2884 51.4445 39.2884 52.3137Z" fill="#228C22"/>
<path d="M39.3183 22.3095C38.2093 22.0697 37.0702 21.9198 35.8713 21.9198C35.2118 21.9198 34.5224 21.9498 33.833 22.0397C33.6831 22.0697 33.5632 22.0697 33.4134 22.0997C39.0485 24.1979 43.155 29.5333 43.4248 35.8279H46.0625C46.0026 30.3726 43.3648 25.4868 39.3183 22.3095ZM12.7611 53.4827V36.5173C12.7611 29.1136 18.0665 22.879 25.0805 21.4702C26.7891 20.2712 28.7374 19.342 30.8356 18.7725C30.1162 18.6826 29.3668 18.6227 28.6175 18.6227H27.5984C17.9766 18.6227 10.1234 26.4759 10.1234 36.0977V53.9024C10.1234 63.5241 17.9766 71.3774 27.5984 71.3774H28.6175C29.3668 71.3774 30.1162 71.3174 30.8356 71.2275C28.7973 70.658 26.879 69.7288 25.1704 68.5298C18.1265 67.181 12.7611 60.9164 12.7611 53.4827Z" fill="#228C22"/>
<path d="M33.773 21.4702C33.2635 21.5302 32.7839 21.6201 32.2743 21.74C30.9555 21.3803 29.5467 21.1705 28.1079 21.1705C27.5983 21.1705 27.0888 21.2004 26.5792 21.2604C28.3177 20.2113 30.2361 19.4619 32.3043 19.0423C34.4325 19.4919 36.4108 20.3612 38.1793 21.5302C36.7705 21.2904 35.2718 21.2904 33.773 21.4702Z" fill="#228C22"/>
<path d="M46.0925 35.8579H43.4548C43.185 29.5633 39.0785 24.2278 33.4434 22.1296C33.5932 22.0997 33.7131 22.0997 33.863 22.0697C34.5224 21.9798 35.2118 21.9498 35.9013 21.9498C37.1002 21.9498 38.2392 22.0697 39.3483 22.3395C43.3648 25.4868 46.0026 30.3726 46.0925 35.8579Z" fill="#228C22"/>
<path d="M25.1704 68.5598C26.879 69.7588 28.7674 70.658 30.8356 71.2575C30.1162 71.3474 29.3668 71.4074 28.6175 71.4074H27.5984C17.9766 71.3774 10.1234 63.5241 10.1234 53.9024V36.0977C10.1234 26.4759 17.9766 18.6227 27.5984 18.6227H28.6175C29.3668 18.6227 30.1162 18.6826 30.8356 18.7725C28.7374 19.372 26.7891 20.2712 25.0805 21.4702C18.0665 22.879 12.7611 29.1136 12.7611 36.5173V53.4827C12.7611 60.9164 18.1265 67.181 25.1704 68.5598Z" fill="#228C22"/>
<path d="M38.2093 68.4999C36.4408 69.6689 34.4325 70.5381 32.3043 70.9877C30.2361 70.5681 28.3178 69.7888 26.5493 68.7696C27.0588 68.8296 27.5684 68.8595 28.1079 68.8595C29.5767 68.8595 30.9855 68.6497 32.3343 68.2601C33.5033 68.5298 34.7323 68.6797 35.9912 68.6797C36.7405 68.6497 37.4899 68.5898 38.2093 68.4999Z" fill="#228C22"/>
<path d="M45.5829 58.0388C45.3731 58.9081 45.1034 59.7474 44.7437 60.5567C44.6537 60.7965 44.5338 61.0362 44.4139 61.276C43.245 63.7939 41.4765 65.982 39.3183 67.6606C38.2392 67.9004 37.1302 68.0502 35.9612 68.0502H35.9012C35.062 68.0502 34.2527 67.9903 33.4434 67.8404C36.7106 66.6115 39.4382 64.3034 41.2367 61.366C41.3566 61.1561 41.4765 60.9763 41.5964 60.7665C42.076 59.8972 42.4656 58.998 42.7654 58.0388H45.5829Z" fill="#228C22"/>
</g>
<path d="M79.2213 54.5369C77.2283 54.5369 75.4581 54.1735 73.9106 53.4466C72.3631 52.6964 71.1556 51.6647 70.2881 50.3517C69.4206 49.0152 68.9868 47.5029 68.9868 45.8148V37.9368C68.9868 36.2486 69.4089 34.748 70.253 33.435C71.1205 32.122 72.3162 31.1021 73.8403 30.3752C75.3643 29.6484 77.1111 29.285 79.0806 29.285C81.0501 29.285 82.7969 29.6015 84.3209 30.2346C85.8449 30.8442 87.029 31.7 87.873 32.802C88.7406 33.9039 89.1743 35.1583 89.1743 36.5651C89.1743 37.2685 88.9399 37.8195 88.4709 38.2181C88.002 38.6167 87.3807 38.816 86.6069 38.816C86.4428 38.816 86.1966 38.7926 85.8684 38.7457C85.9152 38.4643 85.9387 38.0188 85.9387 37.4092C85.9387 36.401 85.6456 35.4983 85.0594 34.7011C84.4967 33.9039 83.6878 33.2826 82.6327 32.8371C81.6011 32.3916 80.417 32.1689 79.0806 32.1689C77.7676 32.1689 76.5952 32.4151 75.5636 32.9075C74.5319 33.3764 73.723 34.0563 73.1369 34.9473C72.5742 35.8148 72.2928 36.8113 72.2928 37.9368V45.8148C72.2928 46.9402 72.5859 47.9484 73.172 48.8394C73.7582 49.7304 74.5788 50.422 75.6339 50.9144C76.689 51.4068 77.8848 51.653 79.2213 51.653C80.5343 51.653 81.7066 51.4302 82.7382 50.9848C83.7933 50.5393 84.6022 49.9062 85.165 49.0856C85.7511 48.265 86.0442 47.3388 86.0442 46.3072V44.3377H81.6128C80.886 44.3377 80.2998 44.0915 79.8543 43.5991C79.4088 43.0833 79.1861 42.415 79.1861 41.5944H87.7675C88.2365 41.5944 88.6116 41.7351 88.893 42.0165C89.1978 42.2978 89.3502 42.673 89.3502 43.1419V46.3423C89.3502 47.9367 88.9164 49.3552 88.0489 50.5979C87.2048 51.8406 86.009 52.8136 84.4616 53.517C82.9375 54.1969 81.1908 54.5369 79.2213 54.5369ZM101.39 39.027C100.077 39.027 98.9868 39.4256 98.1193 40.2228C97.2517 40.9965 96.818 41.9461 96.818 43.0715V52.286C96.818 53.0598 96.5601 53.6342 96.0442 54.0094C95.5519 54.3611 94.7899 54.5369 93.7582 54.5369V38.9215C93.7582 37.1865 94.743 36.3189 96.7125 36.3189V38.4643C96.3373 38.8629 96.0794 39.2146 95.9387 39.5194L96.0794 39.6601C97.58 37.4327 99.4557 36.3189 101.707 36.3189C102.551 36.3189 103.195 36.53 103.641 36.952C104.086 37.3506 104.309 37.843 104.309 38.4291C104.309 38.8512 104.204 39.2263 103.993 39.5546C103.336 39.2029 102.469 39.027 101.39 39.027ZM113.501 54.5369C112.071 54.5369 110.793 54.2673 109.667 53.728C108.542 53.1653 107.663 52.4033 107.03 51.442C106.397 50.4572 106.08 49.3552 106.08 48.136V42.9309C106.08 41.6882 106.408 40.5628 107.065 39.5546C107.745 38.5464 108.647 37.7609 109.773 37.1982C110.922 36.612 112.164 36.3189 113.501 36.3189C114.837 36.3189 116.057 36.6003 117.159 37.163C118.284 37.7257 119.163 38.4995 119.796 39.4842C120.453 40.469 120.781 41.5827 120.781 42.8254V45.0762C120.781 45.4514 120.64 45.7679 120.359 46.0258C120.078 46.2837 119.738 46.4127 119.339 46.4127H109.069V47.9953C109.069 49.1911 109.445 50.1524 110.195 50.8792C110.969 51.6061 112.071 51.9695 113.501 51.9695C114.931 51.9695 116.021 51.653 116.772 51.0199C117.522 50.3869 117.897 49.5311 117.897 48.4525C118.6 48.4056 119.187 48.5463 119.656 48.8746C120.148 49.1794 120.394 49.6366 120.394 50.2462C120.394 50.9965 120.066 51.6999 119.409 52.3564C118.776 53.0129 117.932 53.5404 116.877 53.939C115.822 54.3376 114.697 54.5369 113.501 54.5369ZM117.932 44.0211V42.8254C117.932 41.653 117.522 40.7034 116.701 39.9766C115.904 39.2263 114.837 38.8512 113.501 38.8512C112.164 38.8512 111.086 39.2263 110.265 39.9766C109.468 40.7034 109.069 41.653 109.069 42.8254V44.0211H117.932ZM131.91 54.5369C130.48 54.5369 129.202 54.2673 128.077 53.728C126.951 53.1653 126.072 52.4033 125.439 51.442C124.806 50.4572 124.489 49.3552 124.489 48.136V42.9309C124.489 41.6882 124.817 40.5628 125.474 39.5546C126.154 38.5464 127.057 37.7609 128.182 37.1982C129.331 36.612 130.574 36.3189 131.91 36.3189C133.247 36.3189 134.466 36.6003 135.568 37.163C136.693 37.7257 137.572 38.4995 138.205 39.4842C138.862 40.469 139.19 41.5827 139.19 42.8254V45.0762C139.19 45.4514 139.05 45.7679 138.768 46.0258C138.487 46.2837 138.147 46.4127 137.748 46.4127H127.479V47.9953C127.479 49.1911 127.854 50.1524 128.604 50.8792C129.378 51.6061 130.48 51.9695 131.91 51.9695C133.34 51.9695 134.431 51.653 135.181 51.0199C135.931 50.3869 136.306 49.5311 136.306 48.4525C137.01 48.4056 137.596 48.5463 138.065 48.8746C138.557 49.1794 138.803 49.6366 138.803 50.2462C138.803 50.9965 138.475 51.6999 137.819 52.3564C137.186 53.0129 136.341 53.5404 135.286 53.939C134.231 54.3376 133.106 54.5369 131.91 54.5369ZM136.341 44.0211V42.8254C136.341 41.653 135.931 40.7034 135.111 39.9766C134.313 39.2263 133.247 38.8512 131.91 38.8512C130.574 38.8512 129.495 39.2263 128.674 39.9766C127.877 40.7034 127.479 41.653 127.479 42.8254V44.0211H136.341ZM143.25 38.9215C143.25 37.1865 144.235 36.3189 146.204 36.3189V38.5698C145.993 38.7808 145.747 39.0974 145.466 39.5194L145.606 39.6601C146.31 38.6753 147.224 37.8781 148.35 37.2685C149.475 36.6355 150.694 36.3189 152.007 36.3189C153.907 36.3189 155.407 36.8817 156.509 38.0071C157.611 39.1325 158.162 40.5862 158.162 42.3682V52.286C158.162 53.0598 157.904 53.6342 157.388 54.0094C156.896 54.3611 156.134 54.5369 155.102 54.5369V42.6847C155.102 41.5592 154.786 40.6683 154.153 40.0118C153.52 39.3553 152.558 39.027 151.269 39.027C150.401 39.027 149.581 39.2146 148.807 39.5897C148.057 39.9414 147.447 40.4338 146.978 41.0669C146.533 41.6765 146.31 42.3447 146.31 43.0715V52.286C146.31 53.0598 146.052 53.6342 145.536 54.0094C145.044 54.3611 144.282 54.5369 143.25 54.5369V38.9215ZM181.604 54.5369C179.634 54.5369 177.876 54.1735 176.328 53.4466C174.781 52.6964 173.573 51.6647 172.706 50.3517C171.862 49.0152 171.44 47.5029 171.44 45.8148V37.9368C171.44 36.2486 171.862 34.748 172.706 33.435C173.573 32.122 174.769 31.1021 176.293 30.3752C177.817 29.6484 179.564 29.285 181.533 29.285C183.503 29.285 185.25 29.6015 186.774 30.2346C188.298 30.8442 189.482 31.7 190.326 32.802C191.193 33.9039 191.627 35.1701 191.627 36.6003C191.627 37.3037 191.393 37.8547 190.924 38.2533C190.455 38.6519 189.833 38.8512 189.06 38.8512C188.896 38.8512 188.649 38.8277 188.321 38.7808C188.368 38.4995 188.391 38.054 188.391 37.4444C188.391 36.4362 188.098 35.5335 187.512 34.7363C186.949 33.9391 186.141 33.3178 185.085 32.8723C184.054 32.4268 182.87 32.2041 181.533 32.2041C180.22 32.2041 179.048 32.4503 178.016 32.9426C176.985 33.4116 176.176 34.0915 175.59 34.9825C175.027 35.85 174.746 36.8348 174.746 37.9368V45.8148C174.746 46.9402 175.027 47.9484 175.59 48.8394C176.176 49.7069 176.985 50.3869 178.016 50.8792C179.071 51.3716 180.267 51.6178 181.604 51.6178C182.964 51.6178 184.171 51.3951 185.226 50.9496C186.281 50.5041 187.102 49.8945 187.688 49.1208C188.274 48.3236 188.567 47.4092 188.567 46.3775C188.567 46.0024 188.544 45.5569 188.497 45.0411C188.825 44.9942 189.06 44.9707 189.2 44.9707C189.974 44.9707 190.595 45.1935 191.064 45.6389C191.557 46.0844 191.803 46.6823 191.803 47.4326C191.803 48.816 191.369 50.0469 190.502 51.1254C189.634 52.204 188.427 53.0481 186.879 53.6577C185.355 54.2438 183.597 54.5369 181.604 54.5369ZM200.778 54.5369C198.762 54.5369 197.132 53.9976 195.89 52.9191C194.671 51.8406 194.061 50.422 194.061 48.6636C194.061 46.8816 194.706 45.4514 195.995 44.3728C197.285 43.2708 198.985 42.7198 201.095 42.7198C203.346 42.7198 205.198 43.517 206.652 45.1114L206.792 44.9707C206.534 44.6894 206.241 44.3963 205.913 44.0915V42.6143C205.913 41.4186 205.538 40.4924 204.788 39.8359C204.037 39.1794 202.971 38.8512 201.587 38.8512C199.125 38.8512 197.367 39.8242 196.312 41.7703C195.937 41.5827 195.62 41.3365 195.362 41.0317C195.128 40.7034 195.01 40.3752 195.01 40.0469C195.01 39.4139 195.327 38.816 195.96 38.2533C196.593 37.6671 197.425 37.1982 198.457 36.8465C199.512 36.4948 200.614 36.3189 201.763 36.3189C203.991 36.3189 205.737 36.8699 207.003 37.9719C208.293 39.0739 208.938 40.5979 208.938 42.544V52.1805C208.938 53.0012 208.703 53.599 208.234 53.9742C207.765 54.3493 207.027 54.5369 206.019 54.5369V52.8839C206.511 52.3681 206.781 52.0633 206.828 51.9695L206.687 51.8288C205.163 53.6342 203.193 54.5369 200.778 54.5369ZM201.306 52.1102C202.76 52.1102 203.897 51.8054 204.717 51.1958C205.561 50.5862 205.983 49.7421 205.983 48.6636C205.983 47.585 205.573 46.7292 204.753 46.0962C203.932 45.4631 202.806 45.1466 201.376 45.1466C200.04 45.1466 198.985 45.4631 198.211 46.0962C197.461 46.7058 197.086 47.5616 197.086 48.6636C197.086 49.7655 197.449 50.6213 198.176 51.2309C198.926 51.8171 199.969 52.1102 201.306 52.1102ZM219.543 54.5369C218.348 54.5369 217.222 54.3611 216.167 54.0094C215.112 53.6342 214.256 53.1067 213.6 52.4267C212.967 51.7468 212.65 50.9496 212.65 50.0352C212.65 48.9097 213.33 48.3001 214.69 48.2063C214.924 49.5193 215.475 50.4924 216.343 51.1254C217.234 51.735 218.359 52.0399 219.719 52.0399C221.079 52.0399 222.134 51.8406 222.884 51.442C223.635 51.0434 224.01 50.4338 224.01 49.6131C224.01 49.027 223.858 48.558 223.553 48.2063C223.248 47.8312 222.756 47.5147 222.076 47.2568C221.419 46.9754 220.469 46.7058 219.227 46.4479C217.679 46.0962 216.448 45.721 215.534 45.3224C214.62 44.9238 213.916 44.3963 213.424 43.7398C212.955 43.0833 212.72 42.2157 212.72 41.1372C212.72 40.2228 213.002 39.4022 213.564 38.6753C214.127 37.925 214.901 37.3506 215.886 36.952C216.894 36.53 218.031 36.3189 219.297 36.3189C220.469 36.3189 221.571 36.4831 222.603 36.8113C223.658 37.1396 224.502 37.6085 225.135 38.2181C225.792 38.8277 226.12 39.5311 226.12 40.3283C226.12 40.8676 225.909 41.3013 225.487 41.6296C225.065 41.9344 224.479 42.1102 223.729 42.1571C223.658 41.1255 223.236 40.3166 222.462 39.7304C221.712 39.1208 220.657 38.816 219.297 38.816C218.172 38.816 217.281 39.027 216.624 39.4491C215.968 39.8711 215.64 40.4338 215.64 41.1372C215.64 41.8875 215.944 42.4502 216.554 42.8254C217.187 43.1771 218.254 43.517 219.754 43.8453C222.216 44.3377 224.022 45.0176 225.171 45.8851C226.343 46.7292 226.929 47.9367 226.929 49.5076C226.929 51.102 226.284 52.3447 224.995 53.2356C223.705 54.1031 221.888 54.5369 219.543 54.5369ZM236.388 54.5369C234.723 54.5369 233.48 54.068 232.66 53.1301C231.839 52.1688 231.429 50.9144 231.429 49.3669V39.0974H228.158C228.158 38.3002 228.334 37.6906 228.685 37.2685C229.037 36.8465 229.518 36.6355 230.127 36.6355H231.464V33.2943C231.464 32.5206 231.71 31.9579 232.202 31.6062C232.718 31.231 233.48 31.0435 234.488 31.0435V36.6355H239.166C239.166 38.2767 238.427 39.0974 236.95 39.0974H234.524V49.2614C234.524 50.1993 234.688 50.8675 235.016 51.2661C235.368 51.6413 235.989 51.8288 236.88 51.8288C237.701 51.8288 238.474 51.6178 239.201 51.1958C239.506 51.5006 239.658 51.9109 239.658 52.4267C239.658 52.9894 239.365 53.4818 238.779 53.9039C238.193 54.3259 237.396 54.5369 236.388 54.5369ZM250.436 54.5369C249.006 54.5369 247.728 54.2673 246.603 53.728C245.478 53.1653 244.598 52.4033 243.965 51.442C243.332 50.4572 243.016 49.3552 243.016 48.136V42.9309C243.016 41.6882 243.344 40.5628 244 39.5546C244.68 38.5464 245.583 37.7609 246.708 37.1982C247.857 36.612 249.1 36.3189 250.436 36.3189C251.773 36.3189 252.992 36.6003 254.094 37.163C255.22 37.7257 256.099 38.4995 256.732 39.4842C257.388 40.469 257.717 41.5827 257.717 42.8254V45.0762C257.717 45.4514 257.576 45.7679 257.295 46.0258C257.013 46.2837 256.673 46.4127 256.275 46.4127H246.005V47.9953C246.005 49.1911 246.38 50.1524 247.131 50.8792C247.904 51.6061 249.006 51.9695 250.436 51.9695C251.867 51.9695 252.957 51.653 253.707 51.0199C254.458 50.3869 254.833 49.5311 254.833 48.4525C255.536 48.4056 256.122 48.5463 256.591 48.8746C257.084 49.1794 257.33 49.6366 257.33 50.2462C257.33 50.9965 257.002 51.6999 256.345 52.3564C255.712 53.0129 254.868 53.5404 253.813 53.939C252.758 54.3376 251.632 54.5369 250.436 54.5369ZM254.868 44.0211V42.8254C254.868 41.653 254.458 40.7034 253.637 39.9766C252.84 39.2263 251.773 38.8512 250.436 38.8512C249.1 38.8512 248.021 39.2263 247.201 39.9766C246.404 40.7034 246.005 41.653 246.005 42.8254V44.0211H254.868ZM266.876 54.5369C265.165 54.5369 263.887 54.068 263.043 53.1301C262.199 52.1688 261.777 50.9144 261.777 49.3669V31.5358C261.777 30.7621 262.023 30.1994 262.515 29.8477C263.031 29.4725 263.805 29.285 264.836 29.285V49.2614C264.836 50.1759 265.024 50.8324 265.399 51.2309C265.774 51.6295 266.396 51.8288 267.263 51.8288C268.131 51.8288 268.928 51.6178 269.655 51.1958C269.959 51.5475 270.112 51.9578 270.112 52.4267C270.112 52.9894 269.819 53.4818 269.233 53.9039C268.646 54.3259 267.861 54.5369 266.876 54.5369Z" fill="#228C22"/>
<path d="M74.483 64.2472H72.5712V67.7796H71.3051V58.9168H75.8504L77.3191 59.7651V63.3989L75.8504 64.2472L77.8889 67.7796H76.4835L74.483 64.2472ZM72.5712 60.0563V63.1077H76.053V60.0563H72.5712ZM84.4761 66.6781V67.7796H80.9437L79.475 66.9313V62.234L80.9437 61.3858H83.0074L84.4761 62.234V65.0448H80.7031V66.6781H84.4761ZM80.7031 62.4873V63.9433H83.248V62.4873H80.7031ZM87.4729 65.1841V66.7414H90.0177V65.1841H87.4729ZM87.7134 67.8429L86.2447 66.9946V64.9309L87.7134 64.0826H90.0177V62.5506H86.8778V61.4491H89.7772L91.2459 62.2974V67.8429H90.9167L90.0177 67.3238L89.1188 67.8429H87.7134ZM94.7423 67.7796L93.2736 66.9313V58.537H94.5018V66.6781H96.0211V67.7796H94.7423ZM101.974 63.7914V66.6401H105.759V67.7796H100.708V58.9168H105.759V60.0563H101.974V62.6519H105V63.7914H101.974ZM112.167 64.8676V66.9313L110.698 67.7796H107.406V66.6781H110.939V65.1208H108.875L107.406 64.2725V62.2974L108.875 61.4491H112.04V62.5506H108.634V64.0193H110.698L112.167 64.8676ZM113.688 62.5506V61.4491H114.853V60.3855L116.081 59.6765V61.4491H117.6V62.5506H116.081V66.6781H117.6V67.7796H116.321L114.853 66.9313V62.5506H113.688ZM120.35 65.1841V66.7414H122.895V65.1841H120.35ZM120.59 67.8429L119.122 66.9946V64.9309L120.59 64.0826H122.895V62.5506H119.755V61.4491H122.654L124.123 62.2974V67.8429H123.794L122.895 67.3238L121.996 67.8429H120.59ZM125.644 62.5506V61.4491H126.809V60.3855L128.037 59.6765V61.4491H129.556V62.5506H128.037V66.6781H129.556V67.7796H128.278L126.809 66.9313V62.5506H125.644ZM136.332 66.6781V67.7796H132.8L131.331 66.9313V62.234L132.8 61.3858H134.864L136.332 62.234V65.0448H132.559V66.6781H136.332ZM132.559 62.4873V63.9433H135.104V62.4873H132.559Z" fill="#228C22"/>
<defs>
<clipPath id="clip0_1279_348627">
<rect width="44.0922" height="52.7547" fill="white" transform="translate(10.1233 18.6226)"/>
</clipPath>
</defs>
</svg>
