<svg width="206" height="140" viewBox="0 0 206 140" fill="none" xmlns="http://www.w3.org/2000/svg">
<path d="M8.735 16.08V44H3.135V16.08H8.735ZM38.1478 44H32.5478L19.8678 24.84V44H14.2678V16.04H19.8678L32.5478 35.24V16.04H38.1478V44ZM68.7619 16.08L58.5219 44H51.7219L41.4819 16.08H47.4819L55.1619 38.28L62.8019 16.08H68.7619ZM77.7194 16.08V44H72.1194V16.08H77.7194ZM81.8922 30C81.8922 27.2533 82.5055 24.8 83.7322 22.64C84.9855 20.4533 86.6789 18.76 88.8122 17.56C90.9722 16.3333 93.3855 15.72 96.0522 15.72C99.1722 15.72 101.906 16.52 104.252 18.12C106.599 19.72 108.239 21.9333 109.172 24.76H102.732C102.092 23.4267 101.186 22.4267 100.012 21.76C98.8655 21.0933 97.5322 20.76 96.0122 20.76C94.3855 20.76 92.9322 21.1467 91.6522 21.92C90.3989 22.6667 89.4122 23.7333 88.6922 25.12C87.9989 26.5067 87.6522 28.1333 87.6522 30C87.6522 31.84 87.9989 33.4667 88.6922 34.88C89.4122 36.2667 90.3989 37.3467 91.6522 38.12C92.9322 38.8667 94.3855 39.24 96.0122 39.24C97.5322 39.24 98.8655 38.9067 100.012 38.24C101.186 37.5467 102.092 36.5333 102.732 35.2H109.172C108.239 38.0533 106.599 40.28 104.252 41.88C101.932 43.4533 99.1989 44.24 96.0522 44.24C93.3855 44.24 90.9722 43.64 88.8122 42.44C86.6789 41.2133 84.9855 39.52 83.7322 37.36C82.5055 35.2 81.8922 32.7467 81.8922 30ZM119.555 16.08V44H113.955V16.08H119.555ZM138.048 44.28C135.435 44.28 133.035 43.6667 130.848 42.44C128.661 41.2133 126.928 39.52 125.648 37.36C124.368 35.1733 123.728 32.7067 123.728 29.96C123.728 27.24 124.368 24.8 125.648 22.64C126.928 20.4533 128.661 18.7467 130.848 17.52C133.035 16.2933 135.435 15.68 138.048 15.68C140.688 15.68 143.088 16.2933 145.248 17.52C147.435 18.7467 149.155 20.4533 150.408 22.64C151.688 24.8 152.328 27.24 152.328 29.96C152.328 32.7067 151.688 35.1733 150.408 37.36C149.155 39.52 147.435 41.2133 145.248 42.44C143.061 43.6667 140.661 44.28 138.048 44.28ZM138.048 39.28C139.728 39.28 141.208 38.9067 142.488 38.16C143.768 37.3867 144.768 36.2933 145.488 34.88C146.208 33.4667 146.568 31.8267 146.568 29.96C146.568 28.0933 146.208 26.4667 145.488 25.08C144.768 23.6667 143.768 22.5867 142.488 21.84C141.208 21.0933 139.728 20.72 138.048 20.72C136.368 20.72 134.875 21.0933 133.568 21.84C132.288 22.5867 131.288 23.6667 130.568 25.08C129.848 26.4667 129.488 28.0933 129.488 29.96C129.488 31.8267 129.848 33.4667 130.568 34.88C131.288 36.2933 132.288 37.3867 133.568 38.16C134.875 38.9067 136.368 39.28 138.048 39.28ZM162.014 16.08V33.36C162.014 35.2533 162.508 36.7067 163.494 37.72C164.481 38.7067 165.868 39.2 167.654 39.2C169.468 39.2 170.868 38.7067 171.854 37.72C172.841 36.7067 173.334 35.2533 173.334 33.36V16.08H178.974V33.32C178.974 35.6933 178.454 37.7067 177.414 39.36C176.401 40.9867 175.028 42.2133 173.294 43.04C171.588 43.8667 169.681 44.28 167.574 44.28C165.494 44.28 163.601 43.8667 161.894 43.04C160.214 42.2133 158.881 40.9867 157.894 39.36C156.908 37.7067 156.414 35.6933 156.414 33.32V16.08H162.014ZM194.025 44.28C192.078 44.28 190.318 43.9467 188.745 43.28C187.198 42.6133 185.972 41.6533 185.065 40.4C184.158 39.1467 183.692 37.6667 183.665 35.96H189.665C189.745 37.1067 190.145 38.0133 190.865 38.68C191.612 39.3467 192.625 39.68 193.905 39.68C195.212 39.68 196.238 39.3733 196.985 38.76C197.732 38.12 198.105 37.2933 198.105 36.28C198.105 35.4533 197.852 34.7733 197.345 34.24C196.838 33.7067 196.198 33.2933 195.425 33C194.678 32.68 193.638 32.3333 192.305 31.96C190.492 31.4267 189.012 30.9067 187.865 30.4C186.745 29.8667 185.772 29.08 184.945 28.04C184.145 26.9733 183.745 25.56 183.745 23.8C183.745 22.1467 184.158 20.7067 184.985 19.48C185.812 18.2533 186.972 17.32 188.465 16.68C189.958 16.0133 191.665 15.68 193.585 15.68C196.465 15.68 198.798 16.3867 200.585 17.8C202.398 19.1867 203.398 21.1333 203.585 23.64H197.425C197.372 22.68 196.958 21.8933 196.185 21.28C195.438 20.64 194.438 20.32 193.185 20.32C192.092 20.32 191.212 20.6 190.545 21.16C189.905 21.72 189.585 22.5333 189.585 23.6C189.585 24.3467 189.825 24.9733 190.305 25.48C190.812 25.96 191.425 26.36 192.145 26.68C192.892 26.9733 193.932 27.32 195.265 27.72C197.078 28.2533 198.558 28.7867 199.705 29.32C200.852 29.8533 201.838 30.6533 202.665 31.72C203.492 32.7867 203.905 34.1867 203.905 35.92C203.905 37.4133 203.518 38.8 202.745 40.08C201.972 41.36 200.838 42.3867 199.345 43.16C197.852 43.9067 196.078 44.28 194.025 44.28Z" fill="white" fill-opacity="0.1"/>
<path d="M8.735 96.08V124H3.135V96.08H8.735ZM38.1478 124H32.5478L19.8678 104.84V124H14.2678V96.04H19.8678L32.5478 115.24V96.04H38.1478V124ZM68.7619 96.08L58.5219 124H51.7219L41.4819 96.08H47.4819L55.1619 118.28L62.8019 96.08H68.7619ZM77.7194 96.08V124H72.1194V96.08H77.7194ZM81.8922 110C81.8922 107.253 82.5055 104.8 83.7322 102.64C84.9855 100.453 86.6789 98.76 88.8122 97.56C90.9722 96.3333 93.3855 95.72 96.0522 95.72C99.1722 95.72 101.906 96.52 104.252 98.12C106.599 99.72 108.239 101.933 109.172 104.76H102.732C102.092 103.427 101.186 102.427 100.012 101.76C98.8655 101.093 97.5322 100.76 96.0122 100.76C94.3855 100.76 92.9322 101.147 91.6522 101.92C90.3989 102.667 89.4122 103.733 88.6922 105.12C87.9989 106.507 87.6522 108.133 87.6522 110C87.6522 111.84 87.9989 113.467 88.6922 114.88C89.4122 116.267 90.3989 117.347 91.6522 118.12C92.9322 118.867 94.3855 119.24 96.0122 119.24C97.5322 119.24 98.8655 118.907 100.012 118.24C101.186 117.547 102.092 116.533 102.732 115.2H109.172C108.239 118.053 106.599 120.28 104.252 121.88C101.932 123.453 99.1989 124.24 96.0522 124.24C93.3855 124.24 90.9722 123.64 88.8122 122.44C86.6789 121.213 84.9855 119.52 83.7322 117.36C82.5055 115.2 81.8922 112.747 81.8922 110ZM119.555 96.08V124H113.955V96.08H119.555ZM138.048 124.28C135.435 124.28 133.035 123.667 130.848 122.44C128.661 121.213 126.928 119.52 125.648 117.36C124.368 115.173 123.728 112.707 123.728 109.96C123.728 107.24 124.368 104.8 125.648 102.64C126.928 100.453 128.661 98.7467 130.848 97.52C133.035 96.2933 135.435 95.68 138.048 95.68C140.688 95.68 143.088 96.2933 145.248 97.52C147.435 98.7467 149.155 100.453 150.408 102.64C151.688 104.8 152.328 107.24 152.328 109.96C152.328 112.707 151.688 115.173 150.408 117.36C149.155 119.52 147.435 121.213 145.248 122.44C143.061 123.667 140.661 124.28 138.048 124.28ZM138.048 119.28C139.728 119.28 141.208 118.907 142.488 118.16C143.768 117.387 144.768 116.293 145.488 114.88C146.208 113.467 146.568 111.827 146.568 109.96C146.568 108.093 146.208 106.467 145.488 105.08C144.768 103.667 143.768 102.587 142.488 101.84C141.208 101.093 139.728 100.72 138.048 100.72C136.368 100.72 134.875 101.093 133.568 101.84C132.288 102.587 131.288 103.667 130.568 105.08C129.848 106.467 129.488 108.093 129.488 109.96C129.488 111.827 129.848 113.467 130.568 114.88C131.288 116.293 132.288 117.387 133.568 118.16C134.875 118.907 136.368 119.28 138.048 119.28ZM162.014 96.08V113.36C162.014 115.253 162.508 116.707 163.494 117.72C164.481 118.707 165.868 119.2 167.654 119.2C169.468 119.2 170.868 118.707 171.854 117.72C172.841 116.707 173.334 115.253 173.334 113.36V96.08H178.974V113.32C178.974 115.693 178.454 117.707 177.414 119.36C176.401 120.987 175.028 122.213 173.294 123.04C171.588 123.867 169.681 124.28 167.574 124.28C165.494 124.28 163.601 123.867 161.894 123.04C160.214 122.213 158.881 120.987 157.894 119.36C156.908 117.707 156.414 115.693 156.414 113.32V96.08H162.014ZM194.025 124.28C192.078 124.28 190.318 123.947 188.745 123.28C187.198 122.613 185.972 121.653 185.065 120.4C184.158 119.147 183.692 117.667 183.665 115.96H189.665C189.745 117.107 190.145 118.013 190.865 118.68C191.612 119.347 192.625 119.68 193.905 119.68C195.212 119.68 196.238 119.373 196.985 118.76C197.732 118.12 198.105 117.293 198.105 116.28C198.105 115.453 197.852 114.773 197.345 114.24C196.838 113.707 196.198 113.293 195.425 113C194.678 112.68 193.638 112.333 192.305 111.96C190.492 111.427 189.012 110.907 187.865 110.4C186.745 109.867 185.772 109.08 184.945 108.04C184.145 106.973 183.745 105.56 183.745 103.8C183.745 102.147 184.158 100.707 184.985 99.48C185.812 98.2533 186.972 97.32 188.465 96.68C189.958 96.0133 191.665 95.68 193.585 95.68C196.465 95.68 198.798 96.3867 200.585 97.8C202.398 99.1867 203.398 101.133 203.585 103.64H197.425C197.372 102.68 196.958 101.893 196.185 101.28C195.438 100.64 194.438 100.32 193.185 100.32C192.092 100.32 191.212 100.6 190.545 101.16C189.905 101.72 189.585 102.533 189.585 103.6C189.585 104.347 189.825 104.973 190.305 105.48C190.812 105.96 191.425 106.36 192.145 106.68C192.892 106.973 193.932 107.32 195.265 107.72C197.078 108.253 198.558 108.787 199.705 109.32C200.852 109.853 201.838 110.653 202.665 111.72C203.492 112.787 203.905 114.187 203.905 115.92C203.905 117.413 203.518 118.8 202.745 120.08C201.972 121.36 200.838 122.387 199.345 123.16C197.852 123.907 196.078 124.28 194.025 124.28Z" fill="white" fill-opacity="0.1"/>
<path d="M8.735 36.08V64H3.135V36.08H8.735ZM38.1478 64H32.5478L19.8678 44.84V64H14.2678V36.04H19.8678L32.5478 55.24V36.04H38.1478V64ZM68.7619 36.08L58.5219 64H51.7219L41.4819 36.08H47.4819L55.1619 58.28L62.8019 36.08H68.7619ZM77.7194 36.08V64H72.1194V36.08H77.7194ZM81.8922 50C81.8922 47.2533 82.5055 44.8 83.7322 42.64C84.9855 40.4533 86.6789 38.76 88.8122 37.56C90.9722 36.3333 93.3855 35.72 96.0522 35.72C99.1722 35.72 101.906 36.52 104.252 38.12C106.599 39.72 108.239 41.9333 109.172 44.76H102.732C102.092 43.4267 101.186 42.4267 100.012 41.76C98.8655 41.0933 97.5322 40.76 96.0122 40.76C94.3855 40.76 92.9322 41.1467 91.6522 41.92C90.3989 42.6667 89.4122 43.7333 88.6922 45.12C87.9989 46.5067 87.6522 48.1333 87.6522 50C87.6522 51.84 87.9989 53.4667 88.6922 54.88C89.4122 56.2667 90.3989 57.3467 91.6522 58.12C92.9322 58.8667 94.3855 59.24 96.0122 59.24C97.5322 59.24 98.8655 58.9067 100.012 58.24C101.186 57.5467 102.092 56.5333 102.732 55.2H109.172C108.239 58.0533 106.599 60.28 104.252 61.88C101.932 63.4533 99.1989 64.24 96.0522 64.24C93.3855 64.24 90.9722 63.64 88.8122 62.44C86.6789 61.2133 84.9855 59.52 83.7322 57.36C82.5055 55.2 81.8922 52.7467 81.8922 50ZM119.555 36.08V64H113.955V36.08H119.555ZM138.048 64.28C135.435 64.28 133.035 63.6667 130.848 62.44C128.661 61.2133 126.928 59.52 125.648 57.36C124.368 55.1733 123.728 52.7067 123.728 49.96C123.728 47.24 124.368 44.8 125.648 42.64C126.928 40.4533 128.661 38.7467 130.848 37.52C133.035 36.2933 135.435 35.68 138.048 35.68C140.688 35.68 143.088 36.2933 145.248 37.52C147.435 38.7467 149.155 40.4533 150.408 42.64C151.688 44.8 152.328 47.24 152.328 49.96C152.328 52.7067 151.688 55.1733 150.408 57.36C149.155 59.52 147.435 61.2133 145.248 62.44C143.061 63.6667 140.661 64.28 138.048 64.28ZM138.048 59.28C139.728 59.28 141.208 58.9067 142.488 58.16C143.768 57.3867 144.768 56.2933 145.488 54.88C146.208 53.4667 146.568 51.8267 146.568 49.96C146.568 48.0933 146.208 46.4667 145.488 45.08C144.768 43.6667 143.768 42.5867 142.488 41.84C141.208 41.0933 139.728 40.72 138.048 40.72C136.368 40.72 134.875 41.0933 133.568 41.84C132.288 42.5867 131.288 43.6667 130.568 45.08C129.848 46.4667 129.488 48.0933 129.488 49.96C129.488 51.8267 129.848 53.4667 130.568 54.88C131.288 56.2933 132.288 57.3867 133.568 58.16C134.875 58.9067 136.368 59.28 138.048 59.28ZM162.014 36.08V53.36C162.014 55.2533 162.508 56.7067 163.494 57.72C164.481 58.7067 165.868 59.2 167.654 59.2C169.468 59.2 170.868 58.7067 171.854 57.72C172.841 56.7067 173.334 55.2533 173.334 53.36V36.08H178.974V53.32C178.974 55.6933 178.454 57.7067 177.414 59.36C176.401 60.9867 175.028 62.2133 173.294 63.04C171.588 63.8667 169.681 64.28 167.574 64.28C165.494 64.28 163.601 63.8667 161.894 63.04C160.214 62.2133 158.881 60.9867 157.894 59.36C156.908 57.7067 156.414 55.6933 156.414 53.32V36.08H162.014ZM194.025 64.28C192.078 64.28 190.318 63.9467 188.745 63.28C187.198 62.6133 185.972 61.6533 185.065 60.4C184.158 59.1467 183.692 57.6667 183.665 55.96H189.665C189.745 57.1067 190.145 58.0133 190.865 58.68C191.612 59.3467 192.625 59.68 193.905 59.68C195.212 59.68 196.238 59.3733 196.985 58.76C197.732 58.12 198.105 57.2933 198.105 56.28C198.105 55.4533 197.852 54.7733 197.345 54.24C196.838 53.7067 196.198 53.2933 195.425 53C194.678 52.68 193.638 52.3333 192.305 51.96C190.492 51.4267 189.012 50.9067 187.865 50.4C186.745 49.8667 185.772 49.08 184.945 48.04C184.145 46.9733 183.745 45.56 183.745 43.8C183.745 42.1467 184.158 40.7067 184.985 39.48C185.812 38.2533 186.972 37.32 188.465 36.68C189.958 36.0133 191.665 35.68 193.585 35.68C196.465 35.68 198.798 36.3867 200.585 37.8C202.398 39.1867 203.398 41.1333 203.585 43.64H197.425C197.372 42.68 196.958 41.8933 196.185 41.28C195.438 40.64 194.438 40.32 193.185 40.32C192.092 40.32 191.212 40.6 190.545 41.16C189.905 41.72 189.585 42.5333 189.585 43.6C189.585 44.3467 189.825 44.9733 190.305 45.48C190.812 45.96 191.425 46.36 192.145 46.68C192.892 46.9733 193.932 47.32 195.265 47.72C197.078 48.2533 198.558 48.7867 199.705 49.32C200.852 49.8533 201.838 50.6533 202.665 51.72C203.492 52.7867 203.905 54.1867 203.905 55.92C203.905 57.4133 203.518 58.8 202.745 60.08C201.972 61.36 200.838 62.3867 199.345 63.16C197.852 63.9067 196.078 64.28 194.025 64.28Z" fill="white" fill-opacity="0.2"/>
<path d="M8.735 76.08V104H3.135V76.08H8.735ZM38.1478 104H32.5478L19.8678 84.84V104H14.2678V76.04H19.8678L32.5478 95.24V76.04H38.1478V104ZM68.7619 76.08L58.5219 104H51.7219L41.4819 76.08H47.4819L55.1619 98.28L62.8019 76.08H68.7619ZM77.7194 76.08V104H72.1194V76.08H77.7194ZM81.8922 90C81.8922 87.2533 82.5055 84.8 83.7322 82.64C84.9855 80.4533 86.6789 78.76 88.8122 77.56C90.9722 76.3333 93.3855 75.72 96.0522 75.72C99.1722 75.72 101.906 76.52 104.252 78.12C106.599 79.72 108.239 81.9333 109.172 84.76H102.732C102.092 83.4267 101.186 82.4267 100.012 81.76C98.8655 81.0933 97.5322 80.76 96.0122 80.76C94.3855 80.76 92.9322 81.1467 91.6522 81.92C90.3989 82.6667 89.4122 83.7333 88.6922 85.12C87.9989 86.5067 87.6522 88.1333 87.6522 90C87.6522 91.84 87.9989 93.4667 88.6922 94.88C89.4122 96.2667 90.3989 97.3467 91.6522 98.12C92.9322 98.8667 94.3855 99.24 96.0122 99.24C97.5322 99.24 98.8655 98.9067 100.012 98.24C101.186 97.5467 102.092 96.5333 102.732 95.2H109.172C108.239 98.0533 106.599 100.28 104.252 101.88C101.932 103.453 99.1989 104.24 96.0522 104.24C93.3855 104.24 90.9722 103.64 88.8122 102.44C86.6789 101.213 84.9855 99.52 83.7322 97.36C82.5055 95.2 81.8922 92.7467 81.8922 90ZM119.555 76.08V104H113.955V76.08H119.555ZM138.048 104.28C135.435 104.28 133.035 103.667 130.848 102.44C128.661 101.213 126.928 99.52 125.648 97.36C124.368 95.1733 123.728 92.7067 123.728 89.96C123.728 87.24 124.368 84.8 125.648 82.64C126.928 80.4533 128.661 78.7467 130.848 77.52C133.035 76.2933 135.435 75.68 138.048 75.68C140.688 75.68 143.088 76.2933 145.248 77.52C147.435 78.7467 149.155 80.4533 150.408 82.64C151.688 84.8 152.328 87.24 152.328 89.96C152.328 92.7067 151.688 95.1733 150.408 97.36C149.155 99.52 147.435 101.213 145.248 102.44C143.061 103.667 140.661 104.28 138.048 104.28ZM138.048 99.28C139.728 99.28 141.208 98.9067 142.488 98.16C143.768 97.3867 144.768 96.2933 145.488 94.88C146.208 93.4667 146.568 91.8267 146.568 89.96C146.568 88.0933 146.208 86.4667 145.488 85.08C144.768 83.6667 143.768 82.5867 142.488 81.84C141.208 81.0933 139.728 80.72 138.048 80.72C136.368 80.72 134.875 81.0933 133.568 81.84C132.288 82.5867 131.288 83.6667 130.568 85.08C129.848 86.4667 129.488 88.0933 129.488 89.96C129.488 91.8267 129.848 93.4667 130.568 94.88C131.288 96.2933 132.288 97.3867 133.568 98.16C134.875 98.9067 136.368 99.28 138.048 99.28ZM162.014 76.08V93.36C162.014 95.2533 162.508 96.7067 163.494 97.72C164.481 98.7067 165.868 99.2 167.654 99.2C169.468 99.2 170.868 98.7067 171.854 97.72C172.841 96.7067 173.334 95.2533 173.334 93.36V76.08H178.974V93.32C178.974 95.6933 178.454 97.7067 177.414 99.36C176.401 100.987 175.028 102.213 173.294 103.04C171.588 103.867 169.681 104.28 167.574 104.28C165.494 104.28 163.601 103.867 161.894 103.04C160.214 102.213 158.881 100.987 157.894 99.36C156.908 97.7067 156.414 95.6933 156.414 93.32V76.08H162.014ZM194.025 104.28C192.078 104.28 190.318 103.947 188.745 103.28C187.198 102.613 185.972 101.653 185.065 100.4C184.158 99.1467 183.692 97.6667 183.665 95.96H189.665C189.745 97.1067 190.145 98.0133 190.865 98.68C191.612 99.3467 192.625 99.68 193.905 99.68C195.212 99.68 196.238 99.3733 196.985 98.76C197.732 98.12 198.105 97.2933 198.105 96.28C198.105 95.4533 197.852 94.7733 197.345 94.24C196.838 93.7067 196.198 93.2933 195.425 93C194.678 92.68 193.638 92.3333 192.305 91.96C190.492 91.4267 189.012 90.9067 187.865 90.4C186.745 89.8667 185.772 89.08 184.945 88.04C184.145 86.9733 183.745 85.56 183.745 83.8C183.745 82.1467 184.158 80.7067 184.985 79.48C185.812 78.2533 186.972 77.32 188.465 76.68C189.958 76.0133 191.665 75.68 193.585 75.68C196.465 75.68 198.798 76.3867 200.585 77.8C202.398 79.1867 203.398 81.1333 203.585 83.64H197.425C197.372 82.68 196.958 81.8933 196.185 81.28C195.438 80.64 194.438 80.32 193.185 80.32C192.092 80.32 191.212 80.6 190.545 81.16C189.905 81.72 189.585 82.5333 189.585 83.6C189.585 84.3467 189.825 84.9733 190.305 85.48C190.812 85.96 191.425 86.36 192.145 86.68C192.892 86.9733 193.932 87.32 195.265 87.72C197.078 88.2533 198.558 88.7867 199.705 89.32C200.852 89.8533 201.838 90.6533 202.665 91.72C203.492 92.7867 203.905 94.1867 203.905 95.92C203.905 97.4133 203.518 98.8 202.745 100.08C201.972 101.36 200.838 102.387 199.345 103.16C197.852 103.907 196.078 104.28 194.025 104.28Z" fill="white" fill-opacity="0.2"/>
<path d="M8.735 56.08V84H3.135V56.08H8.735ZM38.1478 84H32.5478L19.8678 64.84V84H14.2678V56.04H19.8678L32.5478 75.24V56.04H38.1478V84ZM68.7619 56.08L58.5219 84H51.7219L41.4819 56.08H47.4819L55.1619 78.28L62.8019 56.08H68.7619ZM77.7194 56.08V84H72.1194V56.08H77.7194ZM81.8922 70C81.8922 67.2533 82.5055 64.8 83.7322 62.64C84.9855 60.4533 86.6789 58.76 88.8122 57.56C90.9722 56.3333 93.3855 55.72 96.0522 55.72C99.1722 55.72 101.906 56.52 104.252 58.12C106.599 59.72 108.239 61.9333 109.172 64.76H102.732C102.092 63.4267 101.186 62.4267 100.012 61.76C98.8655 61.0933 97.5322 60.76 96.0122 60.76C94.3855 60.76 92.9322 61.1467 91.6522 61.92C90.3989 62.6667 89.4122 63.7333 88.6922 65.12C87.9989 66.5067 87.6522 68.1333 87.6522 70C87.6522 71.84 87.9989 73.4667 88.6922 74.88C89.4122 76.2667 90.3989 77.3467 91.6522 78.12C92.9322 78.8667 94.3855 79.24 96.0122 79.24C97.5322 79.24 98.8655 78.9067 100.012 78.24C101.186 77.5467 102.092 76.5333 102.732 75.2H109.172C108.239 78.0533 106.599 80.28 104.252 81.88C101.932 83.4533 99.1989 84.24 96.0522 84.24C93.3855 84.24 90.9722 83.64 88.8122 82.44C86.6789 81.2133 84.9855 79.52 83.7322 77.36C82.5055 75.2 81.8922 72.7467 81.8922 70ZM119.555 56.08V84H113.955V56.08H119.555ZM138.048 84.28C135.435 84.28 133.035 83.6667 130.848 82.44C128.661 81.2133 126.928 79.52 125.648 77.36C124.368 75.1733 123.728 72.7067 123.728 69.96C123.728 67.24 124.368 64.8 125.648 62.64C126.928 60.4533 128.661 58.7467 130.848 57.52C133.035 56.2933 135.435 55.68 138.048 55.68C140.688 55.68 143.088 56.2933 145.248 57.52C147.435 58.7467 149.155 60.4533 150.408 62.64C151.688 64.8 152.328 67.24 152.328 69.96C152.328 72.7067 151.688 75.1733 150.408 77.36C149.155 79.52 147.435 81.2133 145.248 82.44C143.061 83.6667 140.661 84.28 138.048 84.28ZM138.048 79.28C139.728 79.28 141.208 78.9067 142.488 78.16C143.768 77.3867 144.768 76.2933 145.488 74.88C146.208 73.4667 146.568 71.8267 146.568 69.96C146.568 68.0933 146.208 66.4667 145.488 65.08C144.768 63.6667 143.768 62.5867 142.488 61.84C141.208 61.0933 139.728 60.72 138.048 60.72C136.368 60.72 134.875 61.0933 133.568 61.84C132.288 62.5867 131.288 63.6667 130.568 65.08C129.848 66.4667 129.488 68.0933 129.488 69.96C129.488 71.8267 129.848 73.4667 130.568 74.88C131.288 76.2933 132.288 77.3867 133.568 78.16C134.875 78.9067 136.368 79.28 138.048 79.28ZM162.014 56.08V73.36C162.014 75.2533 162.508 76.7067 163.494 77.72C164.481 78.7067 165.868 79.2 167.654 79.2C169.468 79.2 170.868 78.7067 171.854 77.72C172.841 76.7067 173.334 75.2533 173.334 73.36V56.08H178.974V73.32C178.974 75.6933 178.454 77.7067 177.414 79.36C176.401 80.9867 175.028 82.2133 173.294 83.04C171.588 83.8667 169.681 84.28 167.574 84.28C165.494 84.28 163.601 83.8667 161.894 83.04C160.214 82.2133 158.881 80.9867 157.894 79.36C156.908 77.7067 156.414 75.6933 156.414 73.32V56.08H162.014ZM194.025 84.28C192.078 84.28 190.318 83.9467 188.745 83.28C187.198 82.6133 185.972 81.6533 185.065 80.4C184.158 79.1467 183.692 77.6667 183.665 75.96H189.665C189.745 77.1067 190.145 78.0133 190.865 78.68C191.612 79.3467 192.625 79.68 193.905 79.68C195.212 79.68 196.238 79.3733 196.985 78.76C197.732 78.12 198.105 77.2933 198.105 76.28C198.105 75.4533 197.852 74.7733 197.345 74.24C196.838 73.7067 196.198 73.2933 195.425 73C194.678 72.68 193.638 72.3333 192.305 71.96C190.492 71.4267 189.012 70.9067 187.865 70.4C186.745 69.8667 185.772 69.08 184.945 68.04C184.145 66.9733 183.745 65.56 183.745 63.8C183.745 62.1467 184.158 60.7067 184.985 59.48C185.812 58.2533 186.972 57.32 188.465 56.68C189.958 56.0133 191.665 55.68 193.585 55.68C196.465 55.68 198.798 56.3867 200.585 57.8C202.398 59.1867 203.398 61.1333 203.585 63.64H197.425C197.372 62.68 196.958 61.8933 196.185 61.28C195.438 60.64 194.438 60.32 193.185 60.32C192.092 60.32 191.212 60.6 190.545 61.16C189.905 61.72 189.585 62.5333 189.585 63.6C189.585 64.3467 189.825 64.9733 190.305 65.48C190.812 65.96 191.425 66.36 192.145 66.68C192.892 66.9733 193.932 67.32 195.265 67.72C197.078 68.2533 198.558 68.7867 199.705 69.32C200.852 69.8533 201.838 70.6533 202.665 71.72C203.492 72.7867 203.905 74.1867 203.905 75.92C203.905 77.4133 203.518 78.8 202.745 80.08C201.972 81.36 200.838 82.3867 199.345 83.16C197.852 83.9067 196.078 84.28 194.025 84.28Z" fill="url(#paint0_linear_1131_363688)"/>
<path d="M8.735 56.08V84H3.135V56.08H8.735ZM38.1478 84H32.5478L19.8678 64.84V84H14.2678V56.04H19.8678L32.5478 75.24V56.04H38.1478V84ZM68.7619 56.08L58.5219 84H51.7219L41.4819 56.08H47.4819L55.1619 78.28L62.8019 56.08H68.7619ZM77.7194 56.08V84H72.1194V56.08H77.7194ZM81.8922 70C81.8922 67.2533 82.5055 64.8 83.7322 62.64C84.9855 60.4533 86.6789 58.76 88.8122 57.56C90.9722 56.3333 93.3855 55.72 96.0522 55.72C99.1722 55.72 101.906 56.52 104.252 58.12C106.599 59.72 108.239 61.9333 109.172 64.76H102.732C102.092 63.4267 101.186 62.4267 100.012 61.76C98.8655 61.0933 97.5322 60.76 96.0122 60.76C94.3855 60.76 92.9322 61.1467 91.6522 61.92C90.3989 62.6667 89.4122 63.7333 88.6922 65.12C87.9989 66.5067 87.6522 68.1333 87.6522 70C87.6522 71.84 87.9989 73.4667 88.6922 74.88C89.4122 76.2667 90.3989 77.3467 91.6522 78.12C92.9322 78.8667 94.3855 79.24 96.0122 79.24C97.5322 79.24 98.8655 78.9067 100.012 78.24C101.186 77.5467 102.092 76.5333 102.732 75.2H109.172C108.239 78.0533 106.599 80.28 104.252 81.88C101.932 83.4533 99.1989 84.24 96.0522 84.24C93.3855 84.24 90.9722 83.64 88.8122 82.44C86.6789 81.2133 84.9855 79.52 83.7322 77.36C82.5055 75.2 81.8922 72.7467 81.8922 70ZM119.555 56.08V84H113.955V56.08H119.555ZM138.048 84.28C135.435 84.28 133.035 83.6667 130.848 82.44C128.661 81.2133 126.928 79.52 125.648 77.36C124.368 75.1733 123.728 72.7067 123.728 69.96C123.728 67.24 124.368 64.8 125.648 62.64C126.928 60.4533 128.661 58.7467 130.848 57.52C133.035 56.2933 135.435 55.68 138.048 55.68C140.688 55.68 143.088 56.2933 145.248 57.52C147.435 58.7467 149.155 60.4533 150.408 62.64C151.688 64.8 152.328 67.24 152.328 69.96C152.328 72.7067 151.688 75.1733 150.408 77.36C149.155 79.52 147.435 81.2133 145.248 82.44C143.061 83.6667 140.661 84.28 138.048 84.28ZM138.048 79.28C139.728 79.28 141.208 78.9067 142.488 78.16C143.768 77.3867 144.768 76.2933 145.488 74.88C146.208 73.4667 146.568 71.8267 146.568 69.96C146.568 68.0933 146.208 66.4667 145.488 65.08C144.768 63.6667 143.768 62.5867 142.488 61.84C141.208 61.0933 139.728 60.72 138.048 60.72C136.368 60.72 134.875 61.0933 133.568 61.84C132.288 62.5867 131.288 63.6667 130.568 65.08C129.848 66.4667 129.488 68.0933 129.488 69.96C129.488 71.8267 129.848 73.4667 130.568 74.88C131.288 76.2933 132.288 77.3867 133.568 78.16C134.875 78.9067 136.368 79.28 138.048 79.28ZM162.014 56.08V73.36C162.014 75.2533 162.508 76.7067 163.494 77.72C164.481 78.7067 165.868 79.2 167.654 79.2C169.468 79.2 170.868 78.7067 171.854 77.72C172.841 76.7067 173.334 75.2533 173.334 73.36V56.08H178.974V73.32C178.974 75.6933 178.454 77.7067 177.414 79.36C176.401 80.9867 175.028 82.2133 173.294 83.04C171.588 83.8667 169.681 84.28 167.574 84.28C165.494 84.28 163.601 83.8667 161.894 83.04C160.214 82.2133 158.881 80.9867 157.894 79.36C156.908 77.7067 156.414 75.6933 156.414 73.32V56.08H162.014ZM194.025 84.28C192.078 84.28 190.318 83.9467 188.745 83.28C187.198 82.6133 185.972 81.6533 185.065 80.4C184.158 79.1467 183.692 77.6667 183.665 75.96H189.665C189.745 77.1067 190.145 78.0133 190.865 78.68C191.612 79.3467 192.625 79.68 193.905 79.68C195.212 79.68 196.238 79.3733 196.985 78.76C197.732 78.12 198.105 77.2933 198.105 76.28C198.105 75.4533 197.852 74.7733 197.345 74.24C196.838 73.7067 196.198 73.2933 195.425 73C194.678 72.68 193.638 72.3333 192.305 71.96C190.492 71.4267 189.012 70.9067 187.865 70.4C186.745 69.8667 185.772 69.08 184.945 68.04C184.145 66.9733 183.745 65.56 183.745 63.8C183.745 62.1467 184.158 60.7067 184.985 59.48C185.812 58.2533 186.972 57.32 188.465 56.68C189.958 56.0133 191.665 55.68 193.585 55.68C196.465 55.68 198.798 56.3867 200.585 57.8C202.398 59.1867 203.398 61.1333 203.585 63.64H197.425C197.372 62.68 196.958 61.8933 196.185 61.28C195.438 60.64 194.438 60.32 193.185 60.32C192.092 60.32 191.212 60.6 190.545 61.16C189.905 61.72 189.585 62.5333 189.585 63.6C189.585 64.3467 189.825 64.9733 190.305 65.48C190.812 65.96 191.425 66.36 192.145 66.68C192.892 66.9733 193.932 67.32 195.265 67.72C197.078 68.2533 198.558 68.7867 199.705 69.32C200.852 69.8533 201.838 70.6533 202.665 71.72C203.492 72.7867 203.905 74.1867 203.905 75.92C203.905 77.4133 203.518 78.8 202.745 80.08C201.972 81.36 200.838 82.3867 199.345 83.16C197.852 83.9067 196.078 84.28 194.025 84.28Z" fill="white"/>
<defs>
<linearGradient id="paint0_linear_1131_363688" x1="93.0121" y1="46" x2="93.0121" y2="86.5" gradientUnits="userSpaceOnUse">
<stop stop-color="#A1A1A1"/>
<stop offset="1" stop-color="#656564"/>
</linearGradient>
</defs>
</svg>
