<svg width="282" height="90" viewBox="0 0 282 90" fill="none" xmlns="http://www.w3.org/2000/svg">
<g clip-path="url(#clip0_1258_88)">
<g filter="url(#filter0_d_1258_88)">
<mask id="mask0_1258_88" style="mask-type:luminance" maskUnits="userSpaceOnUse" x="47" y="19" width="52" height="52">
<path d="M98.8096 45.2858C98.8096 59.381 87.381 70.8096 73.2858 70.8096C59.1905 70.8096 47.762 59.381 47.762 45.2858C47.762 31.1905 59.1905 19.762 73.2858 19.762C87.381 19.762 98.8096 31.1905 98.8096 45.2858Z" fill="white"/>
</mask>
<g mask="url(#mask0_1258_88)">
<path d="M124.619 16.1429H21.9528V75.762H124.619V16.1429Z" fill="black"/>
<g opacity="0.5">
<path d="M50.5242 75.7621L44.8099 65.8573H56.1433L50.5242 75.7621L44.8099 65.8573H56.1433L50.5242 75.7621Z" fill="url(#paint0_linear_1258_88)"/>
<path d="M50.5242 65.8573L44.8099 55.8573H56.1433L50.5242 65.8573L44.8099 55.8573H56.1433L50.5242 65.8573Z" fill="url(#paint1_linear_1258_88)"/>
<path d="M50.5242 55.8573L44.8099 45.9525H56.1433L50.5242 55.8573L44.8099 45.9525H56.1433L50.5242 55.8573Z" fill="url(#paint2_linear_1258_88)"/>
<path d="M50.5242 45.9525L44.8099 35.9525H56.1433L50.5242 45.9525L44.8099 35.9525H56.1433L50.5242 45.9525Z" fill="url(#paint3_linear_1258_88)"/>
<path d="M50.5242 35.9525L44.8099 25.9525H56.1433L50.5242 35.9525L44.8099 25.9525H56.1433L50.5242 35.9525Z" fill="url(#paint4_linear_1258_88)"/>
<path d="M50.5242 25.9525L44.8099 16.0477H56.1433L50.5242 25.9525L44.8099 16.0477H56.1433L50.5242 25.9525Z" fill="url(#paint5_linear_1258_88)"/>
<path d="M61.8578 75.7621L56.1436 65.8573H67.5721L61.8578 75.7621L56.1436 65.8573H67.5721L61.8578 75.7621Z" fill="url(#paint6_linear_1258_88)"/>
<path d="M61.8578 65.8573L56.1436 55.8573H67.5721L61.8578 65.8573L56.1436 55.8573H67.5721L61.8578 65.8573Z" fill="url(#paint7_linear_1258_88)"/>
<path d="M61.8578 55.8573L56.1436 45.9525H67.5721L61.8578 55.8573L56.1436 45.9525H67.5721L61.8578 55.8573Z" fill="url(#paint8_linear_1258_88)"/>
<path d="M61.8578 45.9525L56.1436 35.9525H67.5721L61.8578 45.9525L56.1436 35.9525H67.5721L61.8578 45.9525Z" fill="url(#paint9_linear_1258_88)"/>
<path d="M61.8578 35.9525L56.1436 25.9525H67.5721L61.8578 35.9525L56.1436 25.9525H67.5721L61.8578 35.9525Z" fill="url(#paint10_linear_1258_88)"/>
<path d="M61.8578 25.9525L56.1436 16.0477H67.5721L61.8578 25.9525L56.1436 16.0477H67.5721L61.8578 25.9525Z" fill="url(#paint11_linear_1258_88)"/>
<path d="M73.2864 75.7621L67.5721 65.8573H79.0007L73.2864 75.7621L67.5721 65.8573H79.0007L73.2864 75.7621Z" fill="url(#paint12_linear_1258_88)"/>
<path d="M73.2864 65.8573L67.5721 55.8573H79.0007L73.2864 65.8573L67.5721 55.8573H79.0007L73.2864 65.8573Z" fill="url(#paint13_linear_1258_88)"/>
<path d="M73.2864 55.8573L67.5721 45.9525H79.0007L73.2864 55.8573L67.5721 45.9525H79.0007L73.2864 55.8573Z" fill="url(#paint14_linear_1258_88)"/>
<path d="M73.2864 45.9525L67.5721 35.9525H79.0007L73.2864 45.9525L67.5721 35.9525H79.0007L73.2864 45.9525Z" fill="url(#paint15_linear_1258_88)"/>
<path d="M73.2864 35.9525L67.5721 25.9525H79.0007L73.2864 35.9525L67.5721 25.9525H79.0007L73.2864 35.9525Z" fill="url(#paint16_linear_1258_88)"/>
<path d="M73.2864 25.9525L67.5721 16.0477H79.0007L73.2864 25.9525L67.5721 16.0477H79.0007L73.2864 25.9525Z" fill="url(#paint17_linear_1258_88)"/>
<path d="M84.715 75.7621L79.0007 65.8573H90.4293L84.715 75.7621L79.0007 65.8573H90.4293L84.715 75.7621Z" fill="url(#paint18_linear_1258_88)"/>
<path d="M84.715 65.8573L79.0007 55.8573H90.4293L84.715 65.8573L79.0007 55.8573H90.4293L84.715 65.8573Z" fill="url(#paint19_linear_1258_88)"/>
<path d="M84.715 55.8573L79.0007 45.9525H90.4293L84.715 55.8573L79.0007 45.9525H90.4293L84.715 55.8573Z" fill="url(#paint20_linear_1258_88)"/>
<path d="M84.715 45.9525L79.0007 35.9525H90.4293L84.715 45.9525L79.0007 35.9525H90.4293L84.715 45.9525Z" fill="url(#paint21_linear_1258_88)"/>
<path d="M84.715 35.9525L79.0007 25.9525H90.4293L84.715 35.9525L79.0007 25.9525H90.4293L84.715 35.9525Z" fill="url(#paint22_linear_1258_88)"/>
<path d="M84.715 25.9525L79.0007 16.0477H90.4293L84.715 25.9525L79.0007 16.0477H90.4293L84.715 25.9525Z" fill="url(#paint23_linear_1258_88)"/>
<path d="M96.1436 75.7621L90.4293 65.8573H101.858L96.1436 75.7621L90.4293 65.8573H101.858L96.1436 75.7621Z" fill="url(#paint24_linear_1258_88)"/>
<path d="M96.1436 65.8573L90.4293 55.8573H101.858L96.1436 65.8573L90.4293 55.8573H101.858L96.1436 65.8573Z" fill="url(#paint25_linear_1258_88)"/>
<path d="M96.1436 55.8573L90.4293 45.9525H101.858L96.1436 55.8573L90.4293 45.9525H101.858L96.1436 55.8573Z" fill="url(#paint26_linear_1258_88)"/>
<path d="M96.1436 45.9525L90.4293 35.9525H101.858L96.1436 45.9525L90.4293 35.9525H101.858L96.1436 45.9525Z" fill="url(#paint27_linear_1258_88)"/>
<path d="M96.1436 35.9525L90.4293 25.9525H101.858L96.1436 35.9525L90.4293 25.9525H101.858L96.1436 35.9525Z" fill="url(#paint28_linear_1258_88)"/>
<path d="M96.1436 25.9525L90.4293 16.0477H101.858L96.1436 25.9525L90.4293 16.0477H101.858L96.1436 25.9525Z" fill="url(#paint29_linear_1258_88)"/>
</g>
<g opacity="0.5">
<path d="M96.1436 16.0477L101.858 26.0477H90.4293L96.1436 16.0477L101.858 26.0477H90.4293L96.1436 16.0477Z" fill="url(#paint30_linear_1258_88)"/>
<path d="M96.1436 26.0477L101.858 35.9525H90.4293L96.1436 26.0477L101.858 35.9525H90.4293L96.1436 26.0477Z" fill="url(#paint31_linear_1258_88)"/>
<path d="M96.1436 35.9525L101.858 45.9525H90.4293L96.1436 35.9525L101.858 45.9525H90.4293L96.1436 35.9525Z" fill="url(#paint32_linear_1258_88)"/>
<path d="M96.1436 45.9525L101.858 55.8573H90.4293L96.1436 45.9525L101.858 55.8573H90.4293L96.1436 45.9525Z" fill="url(#paint33_linear_1258_88)"/>
<path d="M96.1436 55.8573L101.858 65.8573H90.4293L96.1436 55.8573L101.858 65.8573H90.4293L96.1436 55.8573Z" fill="url(#paint34_linear_1258_88)"/>
<path d="M96.1436 65.8573L101.858 75.7621H90.4293L96.1436 65.8573L101.858 75.7621H90.4293L96.1436 65.8573Z" fill="url(#paint35_linear_1258_88)"/>
<path d="M84.715 16.0477L90.4293 26.0477H79.0007L84.715 16.0477L90.4293 26.0477H79.0007L84.715 16.0477Z" fill="url(#paint36_linear_1258_88)"/>
<path d="M84.715 26.0477L90.4293 35.9525H79.0007L84.715 26.0477L90.4293 35.9525H79.0007L84.715 26.0477Z" fill="url(#paint37_linear_1258_88)"/>
<path d="M84.715 35.9525L90.4293 45.9525H79.0007L84.715 35.9525L90.4293 45.9525H79.0007L84.715 35.9525Z" fill="url(#paint38_linear_1258_88)"/>
<path d="M84.715 45.9525L90.4293 55.8573H79.0007L84.715 45.9525L90.4293 55.8573H79.0007L84.715 45.9525Z" fill="url(#paint39_linear_1258_88)"/>
<path d="M84.715 55.8573L90.4293 65.8573H79.0007L84.715 55.8573L90.4293 65.8573H79.0007L84.715 55.8573Z" fill="url(#paint40_linear_1258_88)"/>
<path d="M84.715 65.8573L90.4293 75.7621H79.0007L84.715 65.8573L90.4293 75.7621H79.0007L84.715 65.8573Z" fill="url(#paint41_linear_1258_88)"/>
<path d="M73.2864 16.0477L79.0007 26.0477H67.5721L73.2864 16.0477L79.0007 26.0477H67.5721L73.2864 16.0477Z" fill="url(#paint42_linear_1258_88)"/>
<path d="M73.2864 26.0477L79.0007 35.9525H67.5721L73.2864 26.0477L79.0007 35.9525H67.5721L73.2864 26.0477Z" fill="url(#paint43_linear_1258_88)"/>
<path d="M73.2864 35.9525L79.0007 45.9525H67.5721L73.2864 35.9525L79.0007 45.9525H67.5721L73.2864 35.9525Z" fill="url(#paint44_linear_1258_88)"/>
<path d="M73.2864 45.9525L79.0007 55.8573H67.5721L73.2864 45.9525L79.0007 55.8573H67.5721L73.2864 45.9525Z" fill="url(#paint45_linear_1258_88)"/>
<path d="M73.2864 55.8573L79.0007 65.8573H67.5721L73.2864 55.8573L79.0007 65.8573H67.5721L73.2864 55.8573Z" fill="url(#paint46_linear_1258_88)"/>
<path d="M73.2864 65.8573L79.0007 75.7621H67.5721L73.2864 65.8573L79.0007 75.7621H67.5721L73.2864 65.8573Z" fill="url(#paint47_linear_1258_88)"/>
<path d="M61.8578 16.0477L67.5721 26.0477H56.1436L61.8578 16.0477L67.5721 26.0477H56.1436L61.8578 16.0477Z" fill="url(#paint48_linear_1258_88)"/>
<path d="M61.8578 26.0477L67.5721 35.9525H56.1436L61.8578 26.0477L67.5721 35.9525H56.1436L61.8578 26.0477Z" fill="url(#paint49_linear_1258_88)"/>
<path d="M61.8578 35.9525L67.5721 45.9525H56.1436L61.8578 35.9525L67.5721 45.9525H56.1436L61.8578 35.9525Z" fill="url(#paint50_linear_1258_88)"/>
<path d="M61.8578 45.9525L67.5721 55.8573H56.1436L61.8578 45.9525L67.5721 55.8573H56.1436L61.8578 45.9525Z" fill="url(#paint51_linear_1258_88)"/>
<path d="M61.8578 55.8573L67.5721 65.8573H56.1436L61.8578 55.8573L67.5721 65.8573H56.1436L61.8578 55.8573Z" fill="url(#paint52_linear_1258_88)"/>
<path d="M61.8578 65.8573L67.5721 75.7621H56.1436L61.8578 65.8573L67.5721 75.7621H56.1436L61.8578 65.8573Z" fill="url(#paint53_linear_1258_88)"/>
<path d="M50.5242 16.0477L56.1433 26.0477H44.8099L50.5242 16.0477L56.1433 26.0477H44.8099L50.5242 16.0477Z" fill="url(#paint54_linear_1258_88)"/>
<path d="M50.5242 26.0477L56.1433 35.9525H44.8099L50.5242 26.0477L56.1433 35.9525H44.8099L50.5242 26.0477Z" fill="url(#paint55_linear_1258_88)"/>
<path d="M50.5242 35.9525L56.1433 45.9525H44.8099L50.5242 35.9525L56.1433 45.9525H44.8099L50.5242 35.9525Z" fill="url(#paint56_linear_1258_88)"/>
<path d="M50.5242 45.9525L56.1433 55.8573H44.8099L50.5242 45.9525L56.1433 55.8573H44.8099L50.5242 45.9525Z" fill="url(#paint57_linear_1258_88)"/>
<path d="M50.5242 55.8573L56.1433 65.8573H44.8099L50.5242 55.8573L56.1433 65.8573H44.8099L50.5242 55.8573Z" fill="url(#paint58_linear_1258_88)"/>
<path d="M50.5242 65.8573L56.1433 75.7621H44.8099L50.5242 65.8573L56.1433 75.7621H44.8099L50.5242 65.8573Z" fill="url(#paint59_linear_1258_88)"/>
</g>
<path d="M124.619 16.1429H21.9528V75.762H124.619V16.1429Z" fill="url(#paint60_radial_1258_88)"/>
</g>
<path d="M61.5719 38.6191L58.6195 32.7144H64.429L67.3814 38.6191H61.5719Z" fill="url(#paint61_linear_1258_88)"/>
<path d="M73.2859 62.0476L64.4287 44.4286H70.3335L73.2859 50.3334L76.2382 44.4286H82.0478L73.2859 62.0476Z" fill="url(#paint62_linear_1258_88)"/>
<path d="M79.1906 38.6191L82.0477 32.7144H87.9525L85.0001 38.6191H79.1906Z" fill="url(#paint63_linear_1258_88)"/>
</g>
</g>
<path d="M117.784 31.248V48H114.424V31.248H117.784ZM135.432 48H132.072L124.464 36.504V48H121.104V31.224H124.464L132.072 42.744V31.224H135.432V48ZM153.8 31.248L147.656 48H143.576L137.432 31.248H141.032L145.64 44.568L150.224 31.248H153.8ZM159.174 31.248V48H155.814V31.248H159.174ZM161.678 39.6C161.678 37.952 162.046 36.48 162.782 35.184C163.534 33.872 164.55 32.856 165.83 32.136C167.126 31.4 168.574 31.032 170.174 31.032C172.046 31.032 173.686 31.512 175.094 32.472C176.502 33.432 177.486 34.76 178.046 36.456H174.182C173.798 35.656 173.254 35.056 172.55 34.656C171.862 34.256 171.062 34.056 170.15 34.056C169.174 34.056 168.302 34.288 167.534 34.752C166.782 35.2 166.19 35.84 165.758 36.672C165.342 37.504 165.134 38.48 165.134 39.6C165.134 40.704 165.342 41.68 165.758 42.528C166.19 43.36 166.782 44.008 167.534 44.472C168.302 44.92 169.174 45.144 170.15 45.144C171.062 45.144 171.862 44.944 172.55 44.544C173.254 44.128 173.798 43.52 174.182 42.72H178.046C177.486 44.432 176.502 45.768 175.094 46.728C173.702 47.672 172.062 48.144 170.174 48.144C168.574 48.144 167.126 47.784 165.83 47.064C164.55 46.328 163.534 45.312 162.782 44.016C162.046 42.72 161.678 41.248 161.678 39.6ZM184.276 31.248V48H180.916V31.248H184.276ZM195.372 48.168C193.804 48.168 192.364 47.8 191.052 47.064C189.74 46.328 188.7 45.312 187.932 44.016C187.164 42.704 186.78 41.224 186.78 39.576C186.78 37.944 187.164 36.48 187.932 35.184C188.7 33.872 189.74 32.848 191.052 32.112C192.364 31.376 193.804 31.008 195.372 31.008C196.956 31.008 198.396 31.376 199.692 32.112C201.004 32.848 202.036 33.872 202.788 35.184C203.556 36.48 203.94 37.944 203.94 39.576C203.94 41.224 203.556 42.704 202.788 44.016C202.036 45.312 201.004 46.328 199.692 47.064C198.38 47.8 196.94 48.168 195.372 48.168ZM195.372 45.168C196.38 45.168 197.268 44.944 198.036 44.496C198.804 44.032 199.404 43.376 199.836 42.528C200.268 41.68 200.484 40.696 200.484 39.576C200.484 38.456 200.268 37.48 199.836 36.648C199.404 35.8 198.804 35.152 198.036 34.704C197.268 34.256 196.38 34.032 195.372 34.032C194.364 34.032 193.468 34.256 192.684 34.704C191.916 35.152 191.316 35.8 190.884 36.648C190.452 37.48 190.236 38.456 190.236 39.576C190.236 40.696 190.452 41.68 190.884 42.528C191.316 43.376 191.916 44.032 192.684 44.496C193.468 44.944 194.364 45.168 195.372 45.168ZM209.751 31.248V41.616C209.751 42.752 210.047 43.624 210.639 44.232C211.231 44.824 212.063 45.12 213.135 45.12C214.223 45.12 215.063 44.824 215.655 44.232C216.247 43.624 216.543 42.752 216.543 41.616V31.248H219.927V41.592C219.927 43.016 219.615 44.224 218.991 45.216C218.383 46.192 217.559 46.928 216.519 47.424C215.495 47.92 214.351 48.168 213.087 48.168C211.839 48.168 210.703 47.92 209.679 47.424C208.671 46.928 207.871 46.192 207.279 45.216C206.687 44.224 206.391 43.016 206.391 41.592V31.248H209.751ZM228.958 48.168C227.79 48.168 226.734 47.968 225.79 47.568C224.862 47.168 224.126 46.592 223.582 45.84C223.038 45.088 222.758 44.2 222.742 43.176H226.342C226.39 43.864 226.63 44.408 227.062 44.808C227.51 45.208 228.118 45.408 228.886 45.408C229.67 45.408 230.286 45.224 230.734 44.856C231.182 44.472 231.406 43.976 231.406 43.368C231.406 42.872 231.254 42.464 230.95 42.144C230.646 41.824 230.262 41.576 229.798 41.4C229.35 41.208 228.726 41 227.926 40.776C226.838 40.456 225.95 40.144 225.262 39.84C224.59 39.52 224.006 39.048 223.51 38.424C223.03 37.784 222.79 36.936 222.79 35.88C222.79 34.888 223.038 34.024 223.534 33.288C224.03 32.552 224.726 31.992 225.622 31.608C226.518 31.208 227.542 31.008 228.694 31.008C230.422 31.008 231.822 31.432 232.894 32.28C233.982 33.112 234.582 34.28 234.694 35.784H230.998C230.966 35.208 230.718 34.736 230.254 34.368C229.806 33.984 229.206 33.792 228.454 33.792C227.798 33.792 227.27 33.96 226.87 34.296C226.486 34.632 226.294 35.12 226.294 35.76C226.294 36.208 226.438 36.584 226.726 36.888C227.03 37.176 227.398 37.416 227.83 37.608C228.278 37.784 228.902 37.992 229.702 38.232C230.79 38.552 231.678 38.872 232.366 39.192C233.054 39.512 233.646 39.992 234.142 40.632C234.638 41.272 234.886 42.112 234.886 43.152C234.886 44.048 234.654 44.88 234.19 45.648C233.726 46.416 233.046 47.032 232.15 47.496C231.254 47.944 230.19 48.168 228.958 48.168Z" fill="white"/>
<path d="M117.784 31.248V48H114.424V31.248H117.784ZM135.432 48H132.072L124.464 36.504V48H121.104V31.224H124.464L132.072 42.744V31.224H135.432V48ZM153.8 31.248L147.656 48H143.576L137.432 31.248H141.032L145.64 44.568L150.224 31.248H153.8ZM159.174 31.248V48H155.814V31.248H159.174ZM161.678 39.6C161.678 37.952 162.046 36.48 162.782 35.184C163.534 33.872 164.55 32.856 165.83 32.136C167.126 31.4 168.574 31.032 170.174 31.032C172.046 31.032 173.686 31.512 175.094 32.472C176.502 33.432 177.486 34.76 178.046 36.456H174.182C173.798 35.656 173.254 35.056 172.55 34.656C171.862 34.256 171.062 34.056 170.15 34.056C169.174 34.056 168.302 34.288 167.534 34.752C166.782 35.2 166.19 35.84 165.758 36.672C165.342 37.504 165.134 38.48 165.134 39.6C165.134 40.704 165.342 41.68 165.758 42.528C166.19 43.36 166.782 44.008 167.534 44.472C168.302 44.92 169.174 45.144 170.15 45.144C171.062 45.144 171.862 44.944 172.55 44.544C173.254 44.128 173.798 43.52 174.182 42.72H178.046C177.486 44.432 176.502 45.768 175.094 46.728C173.702 47.672 172.062 48.144 170.174 48.144C168.574 48.144 167.126 47.784 165.83 47.064C164.55 46.328 163.534 45.312 162.782 44.016C162.046 42.72 161.678 41.248 161.678 39.6ZM184.276 31.248V48H180.916V31.248H184.276ZM195.372 48.168C193.804 48.168 192.364 47.8 191.052 47.064C189.74 46.328 188.7 45.312 187.932 44.016C187.164 42.704 186.78 41.224 186.78 39.576C186.78 37.944 187.164 36.48 187.932 35.184C188.7 33.872 189.74 32.848 191.052 32.112C192.364 31.376 193.804 31.008 195.372 31.008C196.956 31.008 198.396 31.376 199.692 32.112C201.004 32.848 202.036 33.872 202.788 35.184C203.556 36.48 203.94 37.944 203.94 39.576C203.94 41.224 203.556 42.704 202.788 44.016C202.036 45.312 201.004 46.328 199.692 47.064C198.38 47.8 196.94 48.168 195.372 48.168ZM195.372 45.168C196.38 45.168 197.268 44.944 198.036 44.496C198.804 44.032 199.404 43.376 199.836 42.528C200.268 41.68 200.484 40.696 200.484 39.576C200.484 38.456 200.268 37.48 199.836 36.648C199.404 35.8 198.804 35.152 198.036 34.704C197.268 34.256 196.38 34.032 195.372 34.032C194.364 34.032 193.468 34.256 192.684 34.704C191.916 35.152 191.316 35.8 190.884 36.648C190.452 37.48 190.236 38.456 190.236 39.576C190.236 40.696 190.452 41.68 190.884 42.528C191.316 43.376 191.916 44.032 192.684 44.496C193.468 44.944 194.364 45.168 195.372 45.168ZM209.751 31.248V41.616C209.751 42.752 210.047 43.624 210.639 44.232C211.231 44.824 212.063 45.12 213.135 45.12C214.223 45.12 215.063 44.824 215.655 44.232C216.247 43.624 216.543 42.752 216.543 41.616V31.248H219.927V41.592C219.927 43.016 219.615 44.224 218.991 45.216C218.383 46.192 217.559 46.928 216.519 47.424C215.495 47.92 214.351 48.168 213.087 48.168C211.839 48.168 210.703 47.92 209.679 47.424C208.671 46.928 207.871 46.192 207.279 45.216C206.687 44.224 206.391 43.016 206.391 41.592V31.248H209.751ZM228.958 48.168C227.79 48.168 226.734 47.968 225.79 47.568C224.862 47.168 224.126 46.592 223.582 45.84C223.038 45.088 222.758 44.2 222.742 43.176H226.342C226.39 43.864 226.63 44.408 227.062 44.808C227.51 45.208 228.118 45.408 228.886 45.408C229.67 45.408 230.286 45.224 230.734 44.856C231.182 44.472 231.406 43.976 231.406 43.368C231.406 42.872 231.254 42.464 230.95 42.144C230.646 41.824 230.262 41.576 229.798 41.4C229.35 41.208 228.726 41 227.926 40.776C226.838 40.456 225.95 40.144 225.262 39.84C224.59 39.52 224.006 39.048 223.51 38.424C223.03 37.784 222.79 36.936 222.79 35.88C222.79 34.888 223.038 34.024 223.534 33.288C224.03 32.552 224.726 31.992 225.622 31.608C226.518 31.208 227.542 31.008 228.694 31.008C230.422 31.008 231.822 31.432 232.894 32.28C233.982 33.112 234.582 34.28 234.694 35.784H230.998C230.966 35.208 230.718 34.736 230.254 34.368C229.806 33.984 229.206 33.792 228.454 33.792C227.798 33.792 227.27 33.96 226.87 34.296C226.486 34.632 226.294 35.12 226.294 35.76C226.294 36.208 226.438 36.584 226.726 36.888C227.03 37.176 227.398 37.416 227.83 37.608C228.278 37.784 228.902 37.992 229.702 38.232C230.79 38.552 231.678 38.872 232.366 39.192C233.054 39.512 233.646 39.992 234.142 40.632C234.638 41.272 234.886 42.112 234.886 43.152C234.886 44.048 234.654 44.88 234.19 45.648C233.726 46.416 233.046 47.032 232.15 47.496C231.254 47.944 230.19 48.168 228.958 48.168Z" fill="url(#paint64_linear_1258_88)"/>
<path d="M114.702 54.624V63H113.022V54.624H114.702ZM122.061 54.624V55.98H119.829V63H118.149V55.98H115.917V54.624H122.061ZM125.739 58.8C125.739 57.976 125.923 57.24 126.291 56.592C126.667 55.936 127.175 55.428 127.815 55.068C128.463 54.7 129.187 54.516 129.987 54.516C130.923 54.516 131.743 54.756 132.447 55.236C133.151 55.716 133.643 56.38 133.923 57.228H131.991C131.799 56.828 131.527 56.528 131.175 56.328C130.831 56.128 130.431 56.028 129.975 56.028C129.487 56.028 129.051 56.144 128.667 56.376C128.291 56.6 127.995 56.92 127.779 57.336C127.571 57.752 127.467 58.24 127.467 58.8C127.467 59.352 127.571 59.84 127.779 60.264C127.995 60.68 128.291 61.004 128.667 61.236C129.051 61.46 129.487 61.572 129.975 61.572C130.431 61.572 130.831 61.472 131.175 61.272C131.527 61.064 131.799 60.76 131.991 60.36H133.923C133.643 61.216 133.151 61.884 132.447 62.364C131.751 62.836 130.931 63.072 129.987 63.072C129.187 63.072 128.463 62.892 127.815 62.532C127.175 62.164 126.667 61.656 126.291 61.008C125.923 60.36 125.739 59.624 125.739 58.8ZM139.246 63.084C138.462 63.084 137.742 62.9 137.086 62.532C136.43 62.164 135.91 61.656 135.526 61.008C135.142 60.352 134.95 59.612 134.95 58.788C134.95 57.972 135.142 57.24 135.526 56.592C135.91 55.936 136.43 55.424 137.086 55.056C137.742 54.688 138.462 54.504 139.246 54.504C140.038 54.504 140.758 54.688 141.406 55.056C142.062 55.424 142.578 55.936 142.954 56.592C143.338 57.24 143.53 57.972 143.53 58.788C143.53 59.612 143.338 60.352 142.954 61.008C142.578 61.656 142.062 62.164 141.406 62.532C140.75 62.9 140.03 63.084 139.246 63.084ZM139.246 61.584C139.75 61.584 140.194 61.472 140.578 61.248C140.962 61.016 141.262 60.688 141.478 60.264C141.694 59.84 141.802 59.348 141.802 58.788C141.802 58.228 141.694 57.74 141.478 57.324C141.262 56.9 140.962 56.576 140.578 56.352C140.194 56.128 139.75 56.016 139.246 56.016C138.742 56.016 138.294 56.128 137.902 56.352C137.518 56.576 137.218 56.9 137.002 57.324C136.786 57.74 136.678 58.228 136.678 58.788C136.678 59.348 136.786 59.84 137.002 60.264C137.218 60.688 137.518 61.016 137.902 61.248C138.294 61.472 138.742 61.584 139.246 61.584ZM151.943 63H150.263L146.459 57.252V63H144.779V54.612H146.459L150.263 60.372V54.612H151.943V63ZM156.496 63.084C155.912 63.084 155.384 62.984 154.912 62.784C154.448 62.584 154.08 62.296 153.808 61.92C153.536 61.544 153.396 61.1 153.388 60.588H155.188C155.212 60.932 155.332 61.204 155.548 61.404C155.772 61.604 156.076 61.704 156.46 61.704C156.852 61.704 157.16 61.612 157.384 61.428C157.608 61.236 157.72 60.988 157.72 60.684C157.72 60.436 157.644 60.232 157.492 60.072C157.34 59.912 157.148 59.788 156.916 59.7C156.692 59.604 156.38 59.5 155.98 59.388C155.436 59.228 154.992 59.072 154.648 58.92C154.312 58.76 154.02 58.524 153.772 58.212C153.532 57.892 153.412 57.468 153.412 56.94C153.412 56.444 153.536 56.012 153.784 55.644C154.032 55.276 154.38 54.996 154.828 54.804C155.276 54.604 155.788 54.504 156.364 54.504C157.228 54.504 157.928 54.716 158.464 55.14C159.008 55.556 159.308 56.14 159.364 56.892H157.516C157.5 56.604 157.376 56.368 157.144 56.184C156.92 55.992 156.62 55.896 156.244 55.896C155.916 55.896 155.652 55.98 155.452 56.148C155.26 56.316 155.164 56.56 155.164 56.88C155.164 57.104 155.236 57.292 155.38 57.444C155.532 57.588 155.716 57.708 155.932 57.804C156.156 57.892 156.468 57.996 156.868 58.116C157.412 58.276 157.856 58.436 158.2 58.596C158.544 58.756 158.84 58.996 159.088 59.316C159.336 59.636 159.46 60.056 159.46 60.576C159.46 61.024 159.344 61.44 159.112 61.824C158.88 62.208 158.54 62.516 158.092 62.748C157.644 62.972 157.112 63.084 156.496 63.084ZM162.572 54.624V59.808C162.572 60.376 162.72 60.812 163.016 61.116C163.312 61.412 163.728 61.56 164.264 61.56C164.808 61.56 165.228 61.412 165.524 61.116C165.82 60.812 165.968 60.376 165.968 59.808V54.624H167.66V59.796C167.66 60.508 167.504 61.112 167.192 61.608C166.888 62.096 166.476 62.464 165.956 62.712C165.444 62.96 164.872 63.084 164.24 63.084C163.616 63.084 163.048 62.96 162.536 62.712C162.032 62.464 161.632 62.096 161.336 61.608C161.04 61.112 160.892 60.508 160.892 59.796V54.624H162.572ZM170.963 61.668H173.723V63H169.283V54.624H170.963V61.668ZM180.491 54.624V55.98H178.259V63H176.579V55.98H174.347V54.624H180.491ZM186.853 61.404H183.517L182.965 63H181.201L184.213 54.612H186.169L189.181 63H187.405L186.853 61.404ZM186.397 60.06L185.185 56.556L183.973 60.06H186.397ZM197.471 63H195.791L191.987 57.252V63H190.307V54.612H191.987L195.791 60.372V54.612H197.471V63ZM198.723 58.8C198.723 57.976 198.907 57.24 199.275 56.592C199.651 55.936 200.159 55.428 200.799 55.068C201.447 54.7 202.171 54.516 202.971 54.516C203.907 54.516 204.727 54.756 205.431 55.236C206.135 55.716 206.627 56.38 206.907 57.228H204.975C204.783 56.828 204.511 56.528 204.159 56.328C203.815 56.128 203.415 56.028 202.959 56.028C202.471 56.028 202.035 56.144 201.651 56.376C201.275 56.6 200.979 56.92 200.763 57.336C200.555 57.752 200.451 58.24 200.451 58.8C200.451 59.352 200.555 59.84 200.763 60.264C200.979 60.68 201.275 61.004 201.651 61.236C202.035 61.46 202.471 61.572 202.959 61.572C203.415 61.572 203.815 61.472 204.159 61.272C204.511 61.064 204.783 60.76 204.975 60.36H206.907C206.627 61.216 206.135 61.884 205.431 62.364C204.735 62.836 203.915 63.072 202.971 63.072C202.171 63.072 201.447 62.892 200.799 62.532C200.159 62.164 199.651 61.656 199.275 61.008C198.907 60.36 198.723 59.624 198.723 58.8ZM215.002 54.624L212.17 60.084V63H210.49V60.084L207.646 54.624H209.542L211.342 58.452L213.13 54.624H215.002Z" fill="white"/>
<path d="M114.702 54.624V63H113.022V54.624H114.702ZM122.061 54.624V55.98H119.829V63H118.149V55.98H115.917V54.624H122.061ZM125.739 58.8C125.739 57.976 125.923 57.24 126.291 56.592C126.667 55.936 127.175 55.428 127.815 55.068C128.463 54.7 129.187 54.516 129.987 54.516C130.923 54.516 131.743 54.756 132.447 55.236C133.151 55.716 133.643 56.38 133.923 57.228H131.991C131.799 56.828 131.527 56.528 131.175 56.328C130.831 56.128 130.431 56.028 129.975 56.028C129.487 56.028 129.051 56.144 128.667 56.376C128.291 56.6 127.995 56.92 127.779 57.336C127.571 57.752 127.467 58.24 127.467 58.8C127.467 59.352 127.571 59.84 127.779 60.264C127.995 60.68 128.291 61.004 128.667 61.236C129.051 61.46 129.487 61.572 129.975 61.572C130.431 61.572 130.831 61.472 131.175 61.272C131.527 61.064 131.799 60.76 131.991 60.36H133.923C133.643 61.216 133.151 61.884 132.447 62.364C131.751 62.836 130.931 63.072 129.987 63.072C129.187 63.072 128.463 62.892 127.815 62.532C127.175 62.164 126.667 61.656 126.291 61.008C125.923 60.36 125.739 59.624 125.739 58.8ZM139.246 63.084C138.462 63.084 137.742 62.9 137.086 62.532C136.43 62.164 135.91 61.656 135.526 61.008C135.142 60.352 134.95 59.612 134.95 58.788C134.95 57.972 135.142 57.24 135.526 56.592C135.91 55.936 136.43 55.424 137.086 55.056C137.742 54.688 138.462 54.504 139.246 54.504C140.038 54.504 140.758 54.688 141.406 55.056C142.062 55.424 142.578 55.936 142.954 56.592C143.338 57.24 143.53 57.972 143.53 58.788C143.53 59.612 143.338 60.352 142.954 61.008C142.578 61.656 142.062 62.164 141.406 62.532C140.75 62.9 140.03 63.084 139.246 63.084ZM139.246 61.584C139.75 61.584 140.194 61.472 140.578 61.248C140.962 61.016 141.262 60.688 141.478 60.264C141.694 59.84 141.802 59.348 141.802 58.788C141.802 58.228 141.694 57.74 141.478 57.324C141.262 56.9 140.962 56.576 140.578 56.352C140.194 56.128 139.75 56.016 139.246 56.016C138.742 56.016 138.294 56.128 137.902 56.352C137.518 56.576 137.218 56.9 137.002 57.324C136.786 57.74 136.678 58.228 136.678 58.788C136.678 59.348 136.786 59.84 137.002 60.264C137.218 60.688 137.518 61.016 137.902 61.248C138.294 61.472 138.742 61.584 139.246 61.584ZM151.943 63H150.263L146.459 57.252V63H144.779V54.612H146.459L150.263 60.372V54.612H151.943V63ZM156.496 63.084C155.912 63.084 155.384 62.984 154.912 62.784C154.448 62.584 154.08 62.296 153.808 61.92C153.536 61.544 153.396 61.1 153.388 60.588H155.188C155.212 60.932 155.332 61.204 155.548 61.404C155.772 61.604 156.076 61.704 156.46 61.704C156.852 61.704 157.16 61.612 157.384 61.428C157.608 61.236 157.72 60.988 157.72 60.684C157.72 60.436 157.644 60.232 157.492 60.072C157.34 59.912 157.148 59.788 156.916 59.7C156.692 59.604 156.38 59.5 155.98 59.388C155.436 59.228 154.992 59.072 154.648 58.92C154.312 58.76 154.02 58.524 153.772 58.212C153.532 57.892 153.412 57.468 153.412 56.94C153.412 56.444 153.536 56.012 153.784 55.644C154.032 55.276 154.38 54.996 154.828 54.804C155.276 54.604 155.788 54.504 156.364 54.504C157.228 54.504 157.928 54.716 158.464 55.14C159.008 55.556 159.308 56.14 159.364 56.892H157.516C157.5 56.604 157.376 56.368 157.144 56.184C156.92 55.992 156.62 55.896 156.244 55.896C155.916 55.896 155.652 55.98 155.452 56.148C155.26 56.316 155.164 56.56 155.164 56.88C155.164 57.104 155.236 57.292 155.38 57.444C155.532 57.588 155.716 57.708 155.932 57.804C156.156 57.892 156.468 57.996 156.868 58.116C157.412 58.276 157.856 58.436 158.2 58.596C158.544 58.756 158.84 58.996 159.088 59.316C159.336 59.636 159.46 60.056 159.46 60.576C159.46 61.024 159.344 61.44 159.112 61.824C158.88 62.208 158.54 62.516 158.092 62.748C157.644 62.972 157.112 63.084 156.496 63.084ZM162.572 54.624V59.808C162.572 60.376 162.72 60.812 163.016 61.116C163.312 61.412 163.728 61.56 164.264 61.56C164.808 61.56 165.228 61.412 165.524 61.116C165.82 60.812 165.968 60.376 165.968 59.808V54.624H167.66V59.796C167.66 60.508 167.504 61.112 167.192 61.608C166.888 62.096 166.476 62.464 165.956 62.712C165.444 62.96 164.872 63.084 164.24 63.084C163.616 63.084 163.048 62.96 162.536 62.712C162.032 62.464 161.632 62.096 161.336 61.608C161.04 61.112 160.892 60.508 160.892 59.796V54.624H162.572ZM170.963 61.668H173.723V63H169.283V54.624H170.963V61.668ZM180.491 54.624V55.98H178.259V63H176.579V55.98H174.347V54.624H180.491ZM186.853 61.404H183.517L182.965 63H181.201L184.213 54.612H186.169L189.181 63H187.405L186.853 61.404ZM186.397 60.06L185.185 56.556L183.973 60.06H186.397ZM197.471 63H195.791L191.987 57.252V63H190.307V54.612H191.987L195.791 60.372V54.612H197.471V63ZM198.723 58.8C198.723 57.976 198.907 57.24 199.275 56.592C199.651 55.936 200.159 55.428 200.799 55.068C201.447 54.7 202.171 54.516 202.971 54.516C203.907 54.516 204.727 54.756 205.431 55.236C206.135 55.716 206.627 56.38 206.907 57.228H204.975C204.783 56.828 204.511 56.528 204.159 56.328C203.815 56.128 203.415 56.028 202.959 56.028C202.471 56.028 202.035 56.144 201.651 56.376C201.275 56.6 200.979 56.92 200.763 57.336C200.555 57.752 200.451 58.24 200.451 58.8C200.451 59.352 200.555 59.84 200.763 60.264C200.979 60.68 201.275 61.004 201.651 61.236C202.035 61.46 202.471 61.572 202.959 61.572C203.415 61.572 203.815 61.472 204.159 61.272C204.511 61.064 204.783 60.76 204.975 60.36H206.907C206.627 61.216 206.135 61.884 205.431 62.364C204.735 62.836 203.915 63.072 202.971 63.072C202.171 63.072 201.447 62.892 200.799 62.532C200.159 62.164 199.651 61.656 199.275 61.008C198.907 60.36 198.723 59.624 198.723 58.8ZM215.002 54.624L212.17 60.084V63H210.49V60.084L207.646 54.624H209.542L211.342 58.452L213.13 54.624H215.002Z" fill="url(#paint65_linear_1258_88)" fill-opacity="0.6"/>
<defs>
<filter id="filter0_d_1258_88" x="43.762" y="19.762" width="59.0476" height="59.0476" filterUnits="userSpaceOnUse" color-interpolation-filters="sRGB">
<feFlood flood-opacity="0" result="BackgroundImageFix"/>
<feColorMatrix in="SourceAlpha" type="matrix" values="0 0 0 0 0 0 0 0 0 0 0 0 0 0 0 0 0 0 127 0" result="hardAlpha"/>
<feOffset dy="4"/>
<feGaussianBlur stdDeviation="2"/>
<feComposite in2="hardAlpha" operator="out"/>
<feColorMatrix type="matrix" values="0 0 0 0 0 0 0 0 0 0 0 0 0 0 0 0 0 0 0.25 0"/>
<feBlend mode="normal" in2="BackgroundImageFix" result="effect1_dropShadow_1258_88"/>
<feBlend mode="normal" in="SourceGraphic" in2="effect1_dropShadow_1258_88" result="shape"/>
</filter>
<linearGradient id="paint0_linear_1258_88" x1="56.1901" y1="70.7875" x2="44.7779" y2="70.7875" gradientUnits="userSpaceOnUse">
<stop stop-color="#1A1A1A" stop-opacity="0.3"/>
<stop offset="0.3518" stop-color="#262626" stop-opacity="0.4675"/>
<stop offset="0.63" stop-color="#333333" stop-opacity="0.6"/>
</linearGradient>
<linearGradient id="paint1_linear_1258_88" x1="56.1901" y1="60.8347" x2="44.7779" y2="60.8347" gradientUnits="userSpaceOnUse">
<stop stop-color="#1A1A1A" stop-opacity="0.3"/>
<stop offset="0.3518" stop-color="#262626" stop-opacity="0.4675"/>
<stop offset="0.63" stop-color="#333333" stop-opacity="0.6"/>
</linearGradient>
<linearGradient id="paint2_linear_1258_88" x1="56.1901" y1="50.882" x2="44.7779" y2="50.882" gradientUnits="userSpaceOnUse">
<stop stop-color="#1A1A1A" stop-opacity="0.3"/>
<stop offset="0.3518" stop-color="#262626" stop-opacity="0.4675"/>
<stop offset="0.63" stop-color="#333333" stop-opacity="0.6"/>
</linearGradient>
<linearGradient id="paint3_linear_1258_88" x1="56.1901" y1="40.9293" x2="44.7779" y2="40.9293" gradientUnits="userSpaceOnUse">
<stop stop-color="#1A1A1A" stop-opacity="0.3"/>
<stop offset="0.3518" stop-color="#262626" stop-opacity="0.4675"/>
<stop offset="0.63" stop-color="#333333" stop-opacity="0.6"/>
</linearGradient>
<linearGradient id="paint4_linear_1258_88" x1="56.1901" y1="30.9765" x2="44.7779" y2="30.9765" gradientUnits="userSpaceOnUse">
<stop stop-color="#1A1A1A" stop-opacity="0.3"/>
<stop offset="0.3518" stop-color="#262626" stop-opacity="0.4675"/>
<stop offset="0.63" stop-color="#333333" stop-opacity="0.6"/>
</linearGradient>
<linearGradient id="paint5_linear_1258_88" x1="56.1901" y1="21.0239" x2="44.7779" y2="21.0239" gradientUnits="userSpaceOnUse">
<stop stop-color="#1A1A1A" stop-opacity="0.3"/>
<stop offset="0.3518" stop-color="#262626" stop-opacity="0.4675"/>
<stop offset="0.63" stop-color="#333333" stop-opacity="0.6"/>
</linearGradient>
<linearGradient id="paint6_linear_1258_88" x1="67.6026" y1="70.7875" x2="56.1904" y2="70.7875" gradientUnits="userSpaceOnUse">
<stop stop-color="#1A1A1A" stop-opacity="0.3"/>
<stop offset="0.3518" stop-color="#262626" stop-opacity="0.4675"/>
<stop offset="0.63" stop-color="#333333" stop-opacity="0.6"/>
</linearGradient>
<linearGradient id="paint7_linear_1258_88" x1="67.6026" y1="60.8347" x2="56.1904" y2="60.8347" gradientUnits="userSpaceOnUse">
<stop stop-color="#1A1A1A" stop-opacity="0.3"/>
<stop offset="0.3518" stop-color="#262626" stop-opacity="0.4675"/>
<stop offset="0.63" stop-color="#333333" stop-opacity="0.6"/>
</linearGradient>
<linearGradient id="paint8_linear_1258_88" x1="67.6026" y1="50.882" x2="56.1904" y2="50.882" gradientUnits="userSpaceOnUse">
<stop stop-color="#1A1A1A" stop-opacity="0.3"/>
<stop offset="0.3518" stop-color="#262626" stop-opacity="0.4675"/>
<stop offset="0.63" stop-color="#333333" stop-opacity="0.6"/>
</linearGradient>
<linearGradient id="paint9_linear_1258_88" x1="67.6026" y1="40.9293" x2="56.1904" y2="40.9293" gradientUnits="userSpaceOnUse">
<stop stop-color="#1A1A1A" stop-opacity="0.3"/>
<stop offset="0.3518" stop-color="#262626" stop-opacity="0.4675"/>
<stop offset="0.63" stop-color="#333333" stop-opacity="0.6"/>
</linearGradient>
<linearGradient id="paint10_linear_1258_88" x1="67.6026" y1="30.9765" x2="56.1904" y2="30.9765" gradientUnits="userSpaceOnUse">
<stop stop-color="#1A1A1A" stop-opacity="0.3"/>
<stop offset="0.3518" stop-color="#262626" stop-opacity="0.4675"/>
<stop offset="0.63" stop-color="#333333" stop-opacity="0.6"/>
</linearGradient>
<linearGradient id="paint11_linear_1258_88" x1="67.6026" y1="21.0239" x2="56.1904" y2="21.0239" gradientUnits="userSpaceOnUse">
<stop stop-color="#1A1A1A" stop-opacity="0.3"/>
<stop offset="0.3518" stop-color="#262626" stop-opacity="0.4675"/>
<stop offset="0.63" stop-color="#333333" stop-opacity="0.6"/>
</linearGradient>
<linearGradient id="paint12_linear_1258_88" x1="79.0151" y1="70.7875" x2="67.6026" y2="70.7875" gradientUnits="userSpaceOnUse">
<stop stop-color="#1A1A1A" stop-opacity="0.3"/>
<stop offset="0.3518" stop-color="#262626" stop-opacity="0.4675"/>
<stop offset="0.63" stop-color="#333333" stop-opacity="0.6"/>
</linearGradient>
<linearGradient id="paint13_linear_1258_88" x1="79.0151" y1="60.8347" x2="67.6026" y2="60.8347" gradientUnits="userSpaceOnUse">
<stop stop-color="#1A1A1A" stop-opacity="0.3"/>
<stop offset="0.3518" stop-color="#262626" stop-opacity="0.4675"/>
<stop offset="0.63" stop-color="#333333" stop-opacity="0.6"/>
</linearGradient>
<linearGradient id="paint14_linear_1258_88" x1="79.0151" y1="50.882" x2="67.6026" y2="50.882" gradientUnits="userSpaceOnUse">
<stop stop-color="#1A1A1A" stop-opacity="0.3"/>
<stop offset="0.3518" stop-color="#262626" stop-opacity="0.4675"/>
<stop offset="0.63" stop-color="#333333" stop-opacity="0.6"/>
</linearGradient>
<linearGradient id="paint15_linear_1258_88" x1="79.0151" y1="40.9293" x2="67.6026" y2="40.9293" gradientUnits="userSpaceOnUse">
<stop stop-color="#1A1A1A" stop-opacity="0.3"/>
<stop offset="0.3518" stop-color="#262626" stop-opacity="0.4675"/>
<stop offset="0.63" stop-color="#333333" stop-opacity="0.6"/>
</linearGradient>
<linearGradient id="paint16_linear_1258_88" x1="79.0151" y1="30.9765" x2="67.6026" y2="30.9765" gradientUnits="userSpaceOnUse">
<stop stop-color="#1A1A1A" stop-opacity="0.3"/>
<stop offset="0.3518" stop-color="#262626" stop-opacity="0.4675"/>
<stop offset="0.63" stop-color="#333333" stop-opacity="0.6"/>
</linearGradient>
<linearGradient id="paint17_linear_1258_88" x1="79.0151" y1="21.0239" x2="67.6026" y2="21.0239" gradientUnits="userSpaceOnUse">
<stop stop-color="#1A1A1A" stop-opacity="0.3"/>
<stop offset="0.3518" stop-color="#262626" stop-opacity="0.4675"/>
<stop offset="0.63" stop-color="#333333" stop-opacity="0.6"/>
</linearGradient>
<linearGradient id="paint18_linear_1258_88" x1="90.4273" y1="70.7875" x2="79.0151" y2="70.7875" gradientUnits="userSpaceOnUse">
<stop stop-color="#1A1A1A" stop-opacity="0.3"/>
<stop offset="0.3518" stop-color="#262626" stop-opacity="0.4675"/>
<stop offset="0.63" stop-color="#333333" stop-opacity="0.6"/>
</linearGradient>
<linearGradient id="paint19_linear_1258_88" x1="90.4273" y1="60.8347" x2="79.0151" y2="60.8347" gradientUnits="userSpaceOnUse">
<stop stop-color="#1A1A1A" stop-opacity="0.3"/>
<stop offset="0.3518" stop-color="#262626" stop-opacity="0.4675"/>
<stop offset="0.63" stop-color="#333333" stop-opacity="0.6"/>
</linearGradient>
<linearGradient id="paint20_linear_1258_88" x1="90.4273" y1="50.882" x2="79.0151" y2="50.882" gradientUnits="userSpaceOnUse">
<stop stop-color="#1A1A1A" stop-opacity="0.3"/>
<stop offset="0.3518" stop-color="#262626" stop-opacity="0.4675"/>
<stop offset="0.63" stop-color="#333333" stop-opacity="0.6"/>
</linearGradient>
<linearGradient id="paint21_linear_1258_88" x1="90.4273" y1="40.9293" x2="79.0151" y2="40.9293" gradientUnits="userSpaceOnUse">
<stop stop-color="#1A1A1A" stop-opacity="0.3"/>
<stop offset="0.3518" stop-color="#262626" stop-opacity="0.4675"/>
<stop offset="0.63" stop-color="#333333" stop-opacity="0.6"/>
</linearGradient>
<linearGradient id="paint22_linear_1258_88" x1="90.4273" y1="30.9765" x2="79.0151" y2="30.9765" gradientUnits="userSpaceOnUse">
<stop stop-color="#1A1A1A" stop-opacity="0.3"/>
<stop offset="0.3518" stop-color="#262626" stop-opacity="0.4675"/>
<stop offset="0.63" stop-color="#333333" stop-opacity="0.6"/>
</linearGradient>
<linearGradient id="paint23_linear_1258_88" x1="90.4273" y1="21.0239" x2="79.0151" y2="21.0239" gradientUnits="userSpaceOnUse">
<stop stop-color="#1A1A1A" stop-opacity="0.3"/>
<stop offset="0.3518" stop-color="#262626" stop-opacity="0.4675"/>
<stop offset="0.63" stop-color="#333333" stop-opacity="0.6"/>
</linearGradient>
<linearGradient id="paint24_linear_1258_88" x1="101.84" y1="70.7875" x2="90.4273" y2="70.7875" gradientUnits="userSpaceOnUse">
<stop stop-color="#1A1A1A" stop-opacity="0.3"/>
<stop offset="0.3518" stop-color="#262626" stop-opacity="0.4675"/>
<stop offset="0.63" stop-color="#333333" stop-opacity="0.6"/>
</linearGradient>
<linearGradient id="paint25_linear_1258_88" x1="101.84" y1="60.8347" x2="90.4273" y2="60.8347" gradientUnits="userSpaceOnUse">
<stop stop-color="#1A1A1A" stop-opacity="0.3"/>
<stop offset="0.3518" stop-color="#262626" stop-opacity="0.4675"/>
<stop offset="0.63" stop-color="#333333" stop-opacity="0.6"/>
</linearGradient>
<linearGradient id="paint26_linear_1258_88" x1="101.84" y1="50.882" x2="90.4273" y2="50.882" gradientUnits="userSpaceOnUse">
<stop stop-color="#1A1A1A" stop-opacity="0.3"/>
<stop offset="0.3518" stop-color="#262626" stop-opacity="0.4675"/>
<stop offset="0.63" stop-color="#333333" stop-opacity="0.6"/>
</linearGradient>
<linearGradient id="paint27_linear_1258_88" x1="101.84" y1="40.9293" x2="90.4273" y2="40.9293" gradientUnits="userSpaceOnUse">
<stop stop-color="#1A1A1A" stop-opacity="0.3"/>
<stop offset="0.3518" stop-color="#262626" stop-opacity="0.4675"/>
<stop offset="0.63" stop-color="#333333" stop-opacity="0.6"/>
</linearGradient>
<linearGradient id="paint28_linear_1258_88" x1="101.84" y1="30.9765" x2="90.4273" y2="30.9765" gradientUnits="userSpaceOnUse">
<stop stop-color="#1A1A1A" stop-opacity="0.3"/>
<stop offset="0.3518" stop-color="#262626" stop-opacity="0.4675"/>
<stop offset="0.63" stop-color="#333333" stop-opacity="0.6"/>
</linearGradient>
<linearGradient id="paint29_linear_1258_88" x1="101.84" y1="21.0239" x2="90.4273" y2="21.0239" gradientUnits="userSpaceOnUse">
<stop stop-color="#1A1A1A" stop-opacity="0.3"/>
<stop offset="0.3518" stop-color="#262626" stop-opacity="0.4675"/>
<stop offset="0.63" stop-color="#333333" stop-opacity="0.6"/>
</linearGradient>
<linearGradient id="paint30_linear_1258_88" x1="101.84" y1="21.0242" x2="90.4273" y2="21.0242" gradientUnits="userSpaceOnUse">
<stop stop-color="#4D4D4D" stop-opacity="0.4"/>
<stop offset="0.0999838" stop-color="#464646" stop-opacity="0.4"/>
<stop offset="0.6149" stop-color="#262626" stop-opacity="0.4"/>
<stop offset="0.9" stop-color="#1A1A1A" stop-opacity="0.4"/>
</linearGradient>
<linearGradient id="paint31_linear_1258_88" x1="101.84" y1="30.9769" x2="90.4273" y2="30.9769" gradientUnits="userSpaceOnUse">
<stop stop-color="#4D4D4D" stop-opacity="0.4"/>
<stop offset="0.0999838" stop-color="#464646" stop-opacity="0.4"/>
<stop offset="0.6149" stop-color="#262626" stop-opacity="0.4"/>
<stop offset="0.9" stop-color="#1A1A1A" stop-opacity="0.4"/>
</linearGradient>
<linearGradient id="paint32_linear_1258_88" x1="101.84" y1="40.9294" x2="90.4273" y2="40.9294" gradientUnits="userSpaceOnUse">
<stop stop-color="#4D4D4D" stop-opacity="0.4"/>
<stop offset="0.0999838" stop-color="#464646" stop-opacity="0.4"/>
<stop offset="0.6149" stop-color="#262626" stop-opacity="0.4"/>
<stop offset="0.9" stop-color="#1A1A1A" stop-opacity="0.4"/>
</linearGradient>
<linearGradient id="paint33_linear_1258_88" x1="101.84" y1="50.8821" x2="90.4273" y2="50.8821" gradientUnits="userSpaceOnUse">
<stop stop-color="#4D4D4D" stop-opacity="0.4"/>
<stop offset="0.0999838" stop-color="#464646" stop-opacity="0.4"/>
<stop offset="0.6149" stop-color="#262626" stop-opacity="0.4"/>
<stop offset="0.9" stop-color="#1A1A1A" stop-opacity="0.4"/>
</linearGradient>
<linearGradient id="paint34_linear_1258_88" x1="101.84" y1="60.8352" x2="90.4273" y2="60.8352" gradientUnits="userSpaceOnUse">
<stop stop-color="#4D4D4D" stop-opacity="0.4"/>
<stop offset="0.0999838" stop-color="#464646" stop-opacity="0.4"/>
<stop offset="0.6149" stop-color="#262626" stop-opacity="0.4"/>
<stop offset="0.9" stop-color="#1A1A1A" stop-opacity="0.4"/>
</linearGradient>
<linearGradient id="paint35_linear_1258_88" x1="101.84" y1="70.7878" x2="90.4273" y2="70.7878" gradientUnits="userSpaceOnUse">
<stop stop-color="#4D4D4D" stop-opacity="0.4"/>
<stop offset="0.0999838" stop-color="#464646" stop-opacity="0.4"/>
<stop offset="0.6149" stop-color="#262626" stop-opacity="0.4"/>
<stop offset="0.9" stop-color="#1A1A1A" stop-opacity="0.4"/>
</linearGradient>
<linearGradient id="paint36_linear_1258_88" x1="90.4273" y1="21.0242" x2="79.0151" y2="21.0242" gradientUnits="userSpaceOnUse">
<stop stop-color="#4D4D4D" stop-opacity="0.4"/>
<stop offset="0.0999838" stop-color="#464646" stop-opacity="0.4"/>
<stop offset="0.6149" stop-color="#262626" stop-opacity="0.4"/>
<stop offset="0.9" stop-color="#1A1A1A" stop-opacity="0.4"/>
</linearGradient>
<linearGradient id="paint37_linear_1258_88" x1="90.4273" y1="30.9769" x2="79.0151" y2="30.9769" gradientUnits="userSpaceOnUse">
<stop stop-color="#4D4D4D" stop-opacity="0.4"/>
<stop offset="0.0999838" stop-color="#464646" stop-opacity="0.4"/>
<stop offset="0.6149" stop-color="#262626" stop-opacity="0.4"/>
<stop offset="0.9" stop-color="#1A1A1A" stop-opacity="0.4"/>
</linearGradient>
<linearGradient id="paint38_linear_1258_88" x1="90.4273" y1="40.9294" x2="79.0151" y2="40.9294" gradientUnits="userSpaceOnUse">
<stop stop-color="#4D4D4D" stop-opacity="0.4"/>
<stop offset="0.0999838" stop-color="#464646" stop-opacity="0.4"/>
<stop offset="0.6149" stop-color="#262626" stop-opacity="0.4"/>
<stop offset="0.9" stop-color="#1A1A1A" stop-opacity="0.4"/>
</linearGradient>
<linearGradient id="paint39_linear_1258_88" x1="90.4273" y1="50.8821" x2="79.0151" y2="50.8821" gradientUnits="userSpaceOnUse">
<stop stop-color="#4D4D4D" stop-opacity="0.4"/>
<stop offset="0.0999838" stop-color="#464646" stop-opacity="0.4"/>
<stop offset="0.6149" stop-color="#262626" stop-opacity="0.4"/>
<stop offset="0.9" stop-color="#1A1A1A" stop-opacity="0.4"/>
</linearGradient>
<linearGradient id="paint40_linear_1258_88" x1="90.4273" y1="60.8352" x2="79.0151" y2="60.8352" gradientUnits="userSpaceOnUse">
<stop stop-color="#4D4D4D" stop-opacity="0.4"/>
<stop offset="0.0999838" stop-color="#464646" stop-opacity="0.4"/>
<stop offset="0.6149" stop-color="#262626" stop-opacity="0.4"/>
<stop offset="0.9" stop-color="#1A1A1A" stop-opacity="0.4"/>
</linearGradient>
<linearGradient id="paint41_linear_1258_88" x1="90.4273" y1="70.7878" x2="79.0151" y2="70.7878" gradientUnits="userSpaceOnUse">
<stop stop-color="#4D4D4D" stop-opacity="0.4"/>
<stop offset="0.0999838" stop-color="#464646" stop-opacity="0.4"/>
<stop offset="0.6149" stop-color="#262626" stop-opacity="0.4"/>
<stop offset="0.9" stop-color="#1A1A1A" stop-opacity="0.4"/>
</linearGradient>
<linearGradient id="paint42_linear_1258_88" x1="79.0151" y1="21.0242" x2="67.6026" y2="21.0242" gradientUnits="userSpaceOnUse">
<stop stop-color="#4D4D4D" stop-opacity="0.4"/>
<stop offset="0.0999838" stop-color="#464646" stop-opacity="0.4"/>
<stop offset="0.6149" stop-color="#262626" stop-opacity="0.4"/>
<stop offset="0.9" stop-color="#1A1A1A" stop-opacity="0.4"/>
</linearGradient>
<linearGradient id="paint43_linear_1258_88" x1="79.0151" y1="30.9769" x2="67.6026" y2="30.9769" gradientUnits="userSpaceOnUse">
<stop stop-color="#4D4D4D" stop-opacity="0.4"/>
<stop offset="0.0999838" stop-color="#464646" stop-opacity="0.4"/>
<stop offset="0.6149" stop-color="#262626" stop-opacity="0.4"/>
<stop offset="0.9" stop-color="#1A1A1A" stop-opacity="0.4"/>
</linearGradient>
<linearGradient id="paint44_linear_1258_88" x1="79.0151" y1="40.9294" x2="67.6026" y2="40.9294" gradientUnits="userSpaceOnUse">
<stop stop-color="#4D4D4D" stop-opacity="0.4"/>
<stop offset="0.0999838" stop-color="#464646" stop-opacity="0.4"/>
<stop offset="0.6149" stop-color="#262626" stop-opacity="0.4"/>
<stop offset="0.9" stop-color="#1A1A1A" stop-opacity="0.4"/>
</linearGradient>
<linearGradient id="paint45_linear_1258_88" x1="79.0151" y1="50.8821" x2="67.6026" y2="50.8821" gradientUnits="userSpaceOnUse">
<stop stop-color="#4D4D4D" stop-opacity="0.4"/>
<stop offset="0.0999838" stop-color="#464646" stop-opacity="0.4"/>
<stop offset="0.6149" stop-color="#262626" stop-opacity="0.4"/>
<stop offset="0.9" stop-color="#1A1A1A" stop-opacity="0.4"/>
</linearGradient>
<linearGradient id="paint46_linear_1258_88" x1="79.0151" y1="60.8352" x2="67.6026" y2="60.8352" gradientUnits="userSpaceOnUse">
<stop stop-color="#4D4D4D" stop-opacity="0.4"/>
<stop offset="0.0999838" stop-color="#464646" stop-opacity="0.4"/>
<stop offset="0.6149" stop-color="#262626" stop-opacity="0.4"/>
<stop offset="0.9" stop-color="#1A1A1A" stop-opacity="0.4"/>
</linearGradient>
<linearGradient id="paint47_linear_1258_88" x1="79.0151" y1="70.7878" x2="67.6026" y2="70.7878" gradientUnits="userSpaceOnUse">
<stop stop-color="#4D4D4D" stop-opacity="0.4"/>
<stop offset="0.0999838" stop-color="#464646" stop-opacity="0.4"/>
<stop offset="0.6149" stop-color="#262626" stop-opacity="0.4"/>
<stop offset="0.9" stop-color="#1A1A1A" stop-opacity="0.4"/>
</linearGradient>
<linearGradient id="paint48_linear_1258_88" x1="67.6026" y1="21.0242" x2="56.1902" y2="21.0242" gradientUnits="userSpaceOnUse">
<stop stop-color="#4D4D4D" stop-opacity="0.4"/>
<stop offset="0.0999838" stop-color="#464646" stop-opacity="0.4"/>
<stop offset="0.6149" stop-color="#262626" stop-opacity="0.4"/>
<stop offset="0.9" stop-color="#1A1A1A" stop-opacity="0.4"/>
</linearGradient>
<linearGradient id="paint49_linear_1258_88" x1="67.6026" y1="30.9769" x2="56.1902" y2="30.9769" gradientUnits="userSpaceOnUse">
<stop stop-color="#4D4D4D" stop-opacity="0.4"/>
<stop offset="0.0999838" stop-color="#464646" stop-opacity="0.4"/>
<stop offset="0.6149" stop-color="#262626" stop-opacity="0.4"/>
<stop offset="0.9" stop-color="#1A1A1A" stop-opacity="0.4"/>
</linearGradient>
<linearGradient id="paint50_linear_1258_88" x1="67.6026" y1="40.9294" x2="56.1902" y2="40.9294" gradientUnits="userSpaceOnUse">
<stop stop-color="#4D4D4D" stop-opacity="0.4"/>
<stop offset="0.0999838" stop-color="#464646" stop-opacity="0.4"/>
<stop offset="0.6149" stop-color="#262626" stop-opacity="0.4"/>
<stop offset="0.9" stop-color="#1A1A1A" stop-opacity="0.4"/>
</linearGradient>
<linearGradient id="paint51_linear_1258_88" x1="67.6026" y1="50.8821" x2="56.1902" y2="50.8821" gradientUnits="userSpaceOnUse">
<stop stop-color="#4D4D4D" stop-opacity="0.4"/>
<stop offset="0.0999838" stop-color="#464646" stop-opacity="0.4"/>
<stop offset="0.6149" stop-color="#262626" stop-opacity="0.4"/>
<stop offset="0.9" stop-color="#1A1A1A" stop-opacity="0.4"/>
</linearGradient>
<linearGradient id="paint52_linear_1258_88" x1="67.6026" y1="60.8352" x2="56.1902" y2="60.8352" gradientUnits="userSpaceOnUse">
<stop stop-color="#4D4D4D" stop-opacity="0.4"/>
<stop offset="0.0999838" stop-color="#464646" stop-opacity="0.4"/>
<stop offset="0.6149" stop-color="#262626" stop-opacity="0.4"/>
<stop offset="0.9" stop-color="#1A1A1A" stop-opacity="0.4"/>
</linearGradient>
<linearGradient id="paint53_linear_1258_88" x1="67.6026" y1="70.7878" x2="56.1902" y2="70.7878" gradientUnits="userSpaceOnUse">
<stop stop-color="#4D4D4D" stop-opacity="0.4"/>
<stop offset="0.0999838" stop-color="#464646" stop-opacity="0.4"/>
<stop offset="0.6149" stop-color="#262626" stop-opacity="0.4"/>
<stop offset="0.9" stop-color="#1A1A1A" stop-opacity="0.4"/>
</linearGradient>
<linearGradient id="paint54_linear_1258_88" x1="56.1899" y1="21.0242" x2="44.7779" y2="21.0242" gradientUnits="userSpaceOnUse">
<stop stop-color="#4D4D4D" stop-opacity="0.4"/>
<stop offset="0.0999838" stop-color="#464646" stop-opacity="0.4"/>
<stop offset="0.6149" stop-color="#262626" stop-opacity="0.4"/>
<stop offset="0.9" stop-color="#1A1A1A" stop-opacity="0.4"/>
</linearGradient>
<linearGradient id="paint55_linear_1258_88" x1="56.1899" y1="30.9769" x2="44.7779" y2="30.9769" gradientUnits="userSpaceOnUse">
<stop stop-color="#4D4D4D" stop-opacity="0.4"/>
<stop offset="0.0999838" stop-color="#464646" stop-opacity="0.4"/>
<stop offset="0.6149" stop-color="#262626" stop-opacity="0.4"/>
<stop offset="0.9" stop-color="#1A1A1A" stop-opacity="0.4"/>
</linearGradient>
<linearGradient id="paint56_linear_1258_88" x1="56.1899" y1="40.9294" x2="44.7779" y2="40.9294" gradientUnits="userSpaceOnUse">
<stop stop-color="#4D4D4D" stop-opacity="0.4"/>
<stop offset="0.0999838" stop-color="#464646" stop-opacity="0.4"/>
<stop offset="0.6149" stop-color="#262626" stop-opacity="0.4"/>
<stop offset="0.9" stop-color="#1A1A1A" stop-opacity="0.4"/>
</linearGradient>
<linearGradient id="paint57_linear_1258_88" x1="56.1899" y1="50.8821" x2="44.7779" y2="50.8821" gradientUnits="userSpaceOnUse">
<stop stop-color="#4D4D4D" stop-opacity="0.4"/>
<stop offset="0.0999838" stop-color="#464646" stop-opacity="0.4"/>
<stop offset="0.6149" stop-color="#262626" stop-opacity="0.4"/>
<stop offset="0.9" stop-color="#1A1A1A" stop-opacity="0.4"/>
</linearGradient>
<linearGradient id="paint58_linear_1258_88" x1="56.1899" y1="60.8352" x2="44.7779" y2="60.8352" gradientUnits="userSpaceOnUse">
<stop stop-color="#4D4D4D" stop-opacity="0.4"/>
<stop offset="0.0999838" stop-color="#464646" stop-opacity="0.4"/>
<stop offset="0.6149" stop-color="#262626" stop-opacity="0.4"/>
<stop offset="0.9" stop-color="#1A1A1A" stop-opacity="0.4"/>
</linearGradient>
<linearGradient id="paint59_linear_1258_88" x1="56.1899" y1="70.7878" x2="44.7779" y2="70.7878" gradientUnits="userSpaceOnUse">
<stop stop-color="#4D4D4D" stop-opacity="0.4"/>
<stop offset="0.0999838" stop-color="#464646" stop-opacity="0.4"/>
<stop offset="0.6149" stop-color="#262626" stop-opacity="0.4"/>
<stop offset="0.9" stop-color="#1A1A1A" stop-opacity="0.4"/>
</linearGradient>
<radialGradient id="paint60_radial_1258_88" cx="0" cy="0" r="1" gradientUnits="userSpaceOnUse" gradientTransform="translate(73.3077 45.9062) scale(49.8777 27.3796)">
<stop offset="0.245" stop-opacity="0.16"/>
<stop offset="1" stop-opacity="0.98"/>
</radialGradient>
<linearGradient id="paint61_linear_1258_88" x1="58.5973" y1="35.6502" x2="67.4059" y2="35.6502" gradientUnits="userSpaceOnUse">
<stop stop-color="#B3B3B3"/>
<stop offset="1" stop-color="#656564"/>
</linearGradient>
<linearGradient id="paint62_linear_1258_88" x1="64.4694" y1="53.2672" x2="82.0864" y2="53.2672" gradientUnits="userSpaceOnUse">
<stop stop-color="#B3B3B3"/>
<stop offset="1" stop-color="#656564"/>
</linearGradient>
<linearGradient id="paint63_linear_1258_88" x1="79.1502" y1="35.6502" x2="87.9587" y2="35.6502" gradientUnits="userSpaceOnUse">
<stop stop-color="#B3B3B3"/>
<stop offset="1" stop-color="#656564"/>
</linearGradient>
<linearGradient id="paint64_linear_1258_88" x1="168.131" y1="25.6" x2="168.131" y2="49.9" gradientUnits="userSpaceOnUse">
<stop stop-color="#A1A1A1"/>
<stop offset="1" stop-color="#656564"/>
</linearGradient>
<linearGradient id="paint65_linear_1258_88" x1="158.649" y1="51.8" x2="158.649" y2="63.95" gradientUnits="userSpaceOnUse">
<stop stop-color="#A1A1A1"/>
<stop offset="1" stop-color="#656564"/>
</linearGradient>
<clipPath id="clip0_1258_88">
<rect width="54.2857" height="60" fill="white" transform="translate(45.8572 15)"/>
</clipPath>
</defs>
</svg>
