<svg width="122" height="18" viewBox="0 0 122 18" fill="none" xmlns="http://www.w3.org/2000/svg">
<path d="M3.92671 0.248V17H0.566706V0.248H3.92671ZM21.5744 17H18.2144L10.6064 5.504V17H7.24639V0.223999H10.6064L18.2144 11.744V0.223999H21.5744V17ZM39.9428 0.248L33.7988 17H29.7188L23.5748 0.248H27.1748L31.7828 13.568L36.3668 0.248H39.9428ZM45.3173 0.248V17H41.9573V0.248H45.3173ZM47.821 8.6C47.821 6.952 48.189 5.48 48.925 4.184C49.677 2.872 50.693 1.856 51.973 1.136C53.269 0.4 54.717 0.0319996 56.317 0.0319996C58.189 0.0319996 59.829 0.512 61.237 1.472C62.645 2.432 63.629 3.76 64.189 5.456H60.325C59.941 4.656 59.397 4.056 58.693 3.656C58.005 3.256 57.205 3.056 56.293 3.056C55.317 3.056 54.445 3.288 53.677 3.752C52.925 4.2 52.333 4.84 51.901 5.672C51.485 6.504 51.277 7.48 51.277 8.6C51.277 9.704 51.485 10.68 51.901 11.528C52.333 12.36 52.925 13.008 53.677 13.472C54.445 13.92 55.317 14.144 56.293 14.144C57.205 14.144 58.005 13.944 58.693 13.544C59.397 13.128 59.941 12.52 60.325 11.72H64.189C63.629 13.432 62.645 14.768 61.237 15.728C59.845 16.672 58.205 17.144 56.317 17.144C54.717 17.144 53.269 16.784 51.973 16.064C50.693 15.328 49.677 14.312 48.925 13.016C48.189 11.72 47.821 10.248 47.821 8.6ZM70.4189 0.248V17H67.0589V0.248H70.4189ZM81.5146 17.168C79.9466 17.168 78.5066 16.8 77.1946 16.064C75.8826 15.328 74.8426 14.312 74.0746 13.016C73.3066 11.704 72.9226 10.224 72.9226 8.576C72.9226 6.944 73.3066 5.48 74.0746 4.184C74.8426 2.872 75.8826 1.848 77.1946 1.112C78.5066 0.375999 79.9466 0.0079999 81.5146 0.0079999C83.0986 0.0079999 84.5386 0.375999 85.8346 1.112C87.1466 1.848 88.1786 2.872 88.9306 4.184C89.6986 5.48 90.0826 6.944 90.0826 8.576C90.0826 10.224 89.6986 11.704 88.9306 13.016C88.1786 14.312 87.1466 15.328 85.8346 16.064C84.5226 16.8 83.0826 17.168 81.5146 17.168ZM81.5146 14.168C82.5226 14.168 83.4106 13.944 84.1786 13.496C84.9466 13.032 85.5466 12.376 85.9786 11.528C86.4106 10.68 86.6266 9.696 86.6266 8.576C86.6266 7.456 86.4106 6.48 85.9786 5.648C85.5466 4.8 84.9466 4.152 84.1786 3.704C83.4106 3.256 82.5226 3.032 81.5146 3.032C80.5066 3.032 79.6106 3.256 78.8266 3.704C78.0586 4.152 77.4586 4.8 77.0266 5.648C76.5946 6.48 76.3786 7.456 76.3786 8.576C76.3786 9.696 76.5946 10.68 77.0266 11.528C77.4586 12.376 78.0586 13.032 78.8266 13.496C79.6106 13.944 80.5066 14.168 81.5146 14.168ZM95.8943 0.248V10.616C95.8943 11.752 96.1903 12.624 96.7823 13.232C97.3743 13.824 98.2063 14.12 99.2783 14.12C100.366 14.12 101.206 13.824 101.798 13.232C102.39 12.624 102.686 11.752 102.686 10.616V0.248H106.07V10.592C106.07 12.016 105.758 13.224 105.134 14.216C104.526 15.192 103.702 15.928 102.662 16.424C101.638 16.92 100.494 17.168 99.2303 17.168C97.9823 17.168 96.8463 16.92 95.8223 16.424C94.8143 15.928 94.0143 15.192 93.4223 14.216C92.8303 13.224 92.5343 12.016 92.5343 10.592V0.248H95.8943ZM115.101 17.168C113.933 17.168 112.877 16.968 111.933 16.568C111.005 16.168 110.269 15.592 109.725 14.84C109.181 14.088 108.901 13.2 108.885 12.176H112.485C112.533 12.864 112.773 13.408 113.205 13.808C113.653 14.208 114.261 14.408 115.029 14.408C115.813 14.408 116.429 14.224 116.877 13.856C117.325 13.472 117.549 12.976 117.549 12.368C117.549 11.872 117.397 11.464 117.093 11.144C116.789 10.824 116.405 10.576 115.941 10.4C115.493 10.208 114.869 10 114.069 9.776C112.981 9.456 112.093 9.144 111.405 8.84C110.733 8.52 110.149 8.048 109.653 7.424C109.173 6.784 108.933 5.936 108.933 4.88C108.933 3.888 109.181 3.024 109.677 2.288C110.173 1.552 110.869 0.991999 111.765 0.607999C112.661 0.208 113.685 0.0079999 114.837 0.0079999C116.565 0.0079999 117.965 0.432 119.037 1.28C120.125 2.112 120.725 3.28 120.837 4.784H117.141C117.109 4.208 116.861 3.736 116.397 3.368C115.949 2.984 115.349 2.792 114.597 2.792C113.941 2.792 113.413 2.96 113.013 3.296C112.629 3.632 112.437 4.12 112.437 4.76C112.437 5.208 112.581 5.584 112.869 5.888C113.173 6.176 113.541 6.416 113.973 6.608C114.421 6.784 115.045 6.992 115.845 7.232C116.933 7.552 117.821 7.872 118.509 8.192C119.197 8.512 119.789 8.992 120.285 9.632C120.781 10.272 121.029 11.112 121.029 12.152C121.029 13.048 120.797 13.88 120.333 14.648C119.869 15.416 119.189 16.032 118.293 16.496C117.397 16.944 116.333 17.168 115.101 17.168Z" fill="white"/>
<path d="M3.92671 0.248V17H0.566706V0.248H3.92671ZM21.5744 17H18.2144L10.6064 5.504V17H7.24639V0.223999H10.6064L18.2144 11.744V0.223999H21.5744V17ZM39.9428 0.248L33.7988 17H29.7188L23.5748 0.248H27.1748L31.7828 13.568L36.3668 0.248H39.9428ZM45.3173 0.248V17H41.9573V0.248H45.3173ZM47.821 8.6C47.821 6.952 48.189 5.48 48.925 4.184C49.677 2.872 50.693 1.856 51.973 1.136C53.269 0.4 54.717 0.0319996 56.317 0.0319996C58.189 0.0319996 59.829 0.512 61.237 1.472C62.645 2.432 63.629 3.76 64.189 5.456H60.325C59.941 4.656 59.397 4.056 58.693 3.656C58.005 3.256 57.205 3.056 56.293 3.056C55.317 3.056 54.445 3.288 53.677 3.752C52.925 4.2 52.333 4.84 51.901 5.672C51.485 6.504 51.277 7.48 51.277 8.6C51.277 9.704 51.485 10.68 51.901 11.528C52.333 12.36 52.925 13.008 53.677 13.472C54.445 13.92 55.317 14.144 56.293 14.144C57.205 14.144 58.005 13.944 58.693 13.544C59.397 13.128 59.941 12.52 60.325 11.72H64.189C63.629 13.432 62.645 14.768 61.237 15.728C59.845 16.672 58.205 17.144 56.317 17.144C54.717 17.144 53.269 16.784 51.973 16.064C50.693 15.328 49.677 14.312 48.925 13.016C48.189 11.72 47.821 10.248 47.821 8.6ZM70.4189 0.248V17H67.0589V0.248H70.4189ZM81.5146 17.168C79.9466 17.168 78.5066 16.8 77.1946 16.064C75.8826 15.328 74.8426 14.312 74.0746 13.016C73.3066 11.704 72.9226 10.224 72.9226 8.576C72.9226 6.944 73.3066 5.48 74.0746 4.184C74.8426 2.872 75.8826 1.848 77.1946 1.112C78.5066 0.375999 79.9466 0.0079999 81.5146 0.0079999C83.0986 0.0079999 84.5386 0.375999 85.8346 1.112C87.1466 1.848 88.1786 2.872 88.9306 4.184C89.6986 5.48 90.0826 6.944 90.0826 8.576C90.0826 10.224 89.6986 11.704 88.9306 13.016C88.1786 14.312 87.1466 15.328 85.8346 16.064C84.5226 16.8 83.0826 17.168 81.5146 17.168ZM81.5146 14.168C82.5226 14.168 83.4106 13.944 84.1786 13.496C84.9466 13.032 85.5466 12.376 85.9786 11.528C86.4106 10.68 86.6266 9.696 86.6266 8.576C86.6266 7.456 86.4106 6.48 85.9786 5.648C85.5466 4.8 84.9466 4.152 84.1786 3.704C83.4106 3.256 82.5226 3.032 81.5146 3.032C80.5066 3.032 79.6106 3.256 78.8266 3.704C78.0586 4.152 77.4586 4.8 77.0266 5.648C76.5946 6.48 76.3786 7.456 76.3786 8.576C76.3786 9.696 76.5946 10.68 77.0266 11.528C77.4586 12.376 78.0586 13.032 78.8266 13.496C79.6106 13.944 80.5066 14.168 81.5146 14.168ZM95.8943 0.248V10.616C95.8943 11.752 96.1903 12.624 96.7823 13.232C97.3743 13.824 98.2063 14.12 99.2783 14.12C100.366 14.12 101.206 13.824 101.798 13.232C102.39 12.624 102.686 11.752 102.686 10.616V0.248H106.07V10.592C106.07 12.016 105.758 13.224 105.134 14.216C104.526 15.192 103.702 15.928 102.662 16.424C101.638 16.92 100.494 17.168 99.2303 17.168C97.9823 17.168 96.8463 16.92 95.8223 16.424C94.8143 15.928 94.0143 15.192 93.4223 14.216C92.8303 13.224 92.5343 12.016 92.5343 10.592V0.248H95.8943ZM115.101 17.168C113.933 17.168 112.877 16.968 111.933 16.568C111.005 16.168 110.269 15.592 109.725 14.84C109.181 14.088 108.901 13.2 108.885 12.176H112.485C112.533 12.864 112.773 13.408 113.205 13.808C113.653 14.208 114.261 14.408 115.029 14.408C115.813 14.408 116.429 14.224 116.877 13.856C117.325 13.472 117.549 12.976 117.549 12.368C117.549 11.872 117.397 11.464 117.093 11.144C116.789 10.824 116.405 10.576 115.941 10.4C115.493 10.208 114.869 10 114.069 9.776C112.981 9.456 112.093 9.144 111.405 8.84C110.733 8.52 110.149 8.048 109.653 7.424C109.173 6.784 108.933 5.936 108.933 4.88C108.933 3.888 109.181 3.024 109.677 2.288C110.173 1.552 110.869 0.991999 111.765 0.607999C112.661 0.208 113.685 0.0079999 114.837 0.0079999C116.565 0.0079999 117.965 0.432 119.037 1.28C120.125 2.112 120.725 3.28 120.837 4.784H117.141C117.109 4.208 116.861 3.736 116.397 3.368C115.949 2.984 115.349 2.792 114.597 2.792C113.941 2.792 113.413 2.96 113.013 3.296C112.629 3.632 112.437 4.12 112.437 4.76C112.437 5.208 112.581 5.584 112.869 5.888C113.173 6.176 113.541 6.416 113.973 6.608C114.421 6.784 115.045 6.992 115.845 7.232C116.933 7.552 117.821 7.872 118.509 8.192C119.197 8.512 119.789 8.992 120.285 9.632C120.781 10.272 121.029 11.112 121.029 12.152C121.029 13.048 120.797 13.88 120.333 14.648C119.869 15.416 119.189 16.032 118.293 16.496C117.397 16.944 116.333 17.168 115.101 17.168Z" fill="url(#paint0_linear_1106_347426)"/>
<defs>
<linearGradient id="paint0_linear_1106_347426" x1="54.2736" y1="-7" x2="54.2736" y2="20" gradientUnits="userSpaceOnUse">
<stop stop-color="#A1A1A1"/>
<stop offset="1" stop-color="#656564"/>
</linearGradient>
</defs>
</svg>
