<svg width="201" height="30" viewBox="0 0 201 30" fill="none" xmlns="http://www.w3.org/2000/svg">
<path d="M5.735 1.08V29H0.135V1.08H5.735ZM35.1478 29H29.5478L16.8678 9.84V29H11.2678V1.04H16.8678L29.5478 20.24V1.04H35.1478V29ZM65.7619 1.08L55.5219 29H48.7219L38.4819 1.08H44.4819L52.1619 23.28L59.8019 1.08H65.7619ZM74.7194 1.08V29H69.1194V1.08H74.7194ZM78.8922 15C78.8922 12.2533 79.5055 9.8 80.7322 7.64C81.9855 5.45333 83.6789 3.76 85.8122 2.56C87.9722 1.33333 90.3855 0.719999 93.0522 0.719999C96.1722 0.719999 98.9055 1.52 101.252 3.12C103.599 4.72 105.239 6.93333 106.172 9.76H99.7322C99.0922 8.42667 98.1855 7.42667 97.0122 6.76C95.8655 6.09333 94.5322 5.76 93.0122 5.76C91.3855 5.76 89.9322 6.14667 88.6522 6.92C87.3989 7.66666 86.4122 8.73333 85.6922 10.12C84.9989 11.5067 84.6522 13.1333 84.6522 15C84.6522 16.84 84.9989 18.4667 85.6922 19.88C86.4122 21.2667 87.3989 22.3467 88.6522 23.12C89.9322 23.8667 91.3855 24.24 93.0122 24.24C94.5322 24.24 95.8655 23.9067 97.0122 23.24C98.1855 22.5467 99.0922 21.5333 99.7322 20.2H106.172C105.239 23.0533 103.599 25.28 101.252 26.88C98.9322 28.4533 96.1989 29.24 93.0522 29.24C90.3855 29.24 87.9722 28.64 85.8122 27.44C83.6789 26.2133 81.9855 24.52 80.7322 22.36C79.5055 20.2 78.8922 17.7467 78.8922 15ZM116.555 1.08V29H110.955V1.08H116.555ZM135.048 29.28C132.435 29.28 130.035 28.6667 127.848 27.44C125.661 26.2133 123.928 24.52 122.648 22.36C121.368 20.1733 120.728 17.7067 120.728 14.96C120.728 12.24 121.368 9.8 122.648 7.64C123.928 5.45333 125.661 3.74666 127.848 2.52C130.035 1.29333 132.435 0.68 135.048 0.68C137.688 0.68 140.088 1.29333 142.248 2.52C144.435 3.74666 146.155 5.45333 147.408 7.64C148.688 9.8 149.328 12.24 149.328 14.96C149.328 17.7067 148.688 20.1733 147.408 22.36C146.155 24.52 144.435 26.2133 142.248 27.44C140.061 28.6667 137.661 29.28 135.048 29.28ZM135.048 24.28C136.728 24.28 138.208 23.9067 139.488 23.16C140.768 22.3867 141.768 21.2933 142.488 19.88C143.208 18.4667 143.568 16.8267 143.568 14.96C143.568 13.0933 143.208 11.4667 142.488 10.08C141.768 8.66667 140.768 7.58667 139.488 6.84C138.208 6.09333 136.728 5.72 135.048 5.72C133.368 5.72 131.875 6.09333 130.568 6.84C129.288 7.58667 128.288 8.66667 127.568 10.08C126.848 11.4667 126.488 13.0933 126.488 14.96C126.488 16.8267 126.848 18.4667 127.568 19.88C128.288 21.2933 129.288 22.3867 130.568 23.16C131.875 23.9067 133.368 24.28 135.048 24.28ZM159.014 1.08V18.36C159.014 20.2533 159.508 21.7067 160.494 22.72C161.481 23.7067 162.868 24.2 164.654 24.2C166.468 24.2 167.868 23.7067 168.854 22.72C169.841 21.7067 170.334 20.2533 170.334 18.36V1.08H175.974V18.32C175.974 20.6933 175.454 22.7067 174.414 24.36C173.401 25.9867 172.028 27.2133 170.294 28.04C168.588 28.8667 166.681 29.28 164.574 29.28C162.494 29.28 160.601 28.8667 158.894 28.04C157.214 27.2133 155.881 25.9867 154.894 24.36C153.908 22.7067 153.414 20.6933 153.414 18.32V1.08H159.014ZM191.025 29.28C189.078 29.28 187.318 28.9467 185.745 28.28C184.198 27.6133 182.972 26.6533 182.065 25.4C181.158 24.1467 180.692 22.6667 180.665 20.96H186.665C186.745 22.1067 187.145 23.0133 187.865 23.68C188.612 24.3467 189.625 24.68 190.905 24.68C192.212 24.68 193.238 24.3733 193.985 23.76C194.732 23.12 195.105 22.2933 195.105 21.28C195.105 20.4533 194.852 19.7733 194.345 19.24C193.838 18.7067 193.198 18.2933 192.425 18C191.678 17.68 190.638 17.3333 189.305 16.96C187.492 16.4267 186.012 15.9067 184.865 15.4C183.745 14.8667 182.772 14.08 181.945 13.04C181.145 11.9733 180.745 10.56 180.745 8.8C180.745 7.14667 181.158 5.70667 181.985 4.48C182.812 3.25333 183.972 2.32 185.465 1.68C186.958 1.01333 188.665 0.68 190.585 0.68C193.465 0.68 195.798 1.38667 197.585 2.8C199.398 4.18667 200.398 6.13333 200.585 8.64H194.425C194.372 7.68 193.958 6.89333 193.185 6.28C192.438 5.64 191.438 5.32 190.185 5.32C189.092 5.32 188.212 5.6 187.545 6.16C186.905 6.72 186.585 7.53333 186.585 8.6C186.585 9.34667 186.825 9.97333 187.305 10.48C187.812 10.96 188.425 11.36 189.145 11.68C189.892 11.9733 190.932 12.32 192.265 12.72C194.078 13.2533 195.558 13.7867 196.705 14.32C197.852 14.8533 198.838 15.6533 199.665 16.72C200.492 17.7867 200.905 19.1867 200.905 20.92C200.905 22.4133 200.518 23.8 199.745 25.08C198.972 26.36 197.838 27.3867 196.345 28.16C194.852 28.9067 193.078 29.28 191.025 29.28Z" fill="url(#paint0_linear_1105_347188)"/>
<path d="M5.735 1.08V29H0.135V1.08H5.735ZM35.1478 29H29.5478L16.8678 9.84V29H11.2678V1.04H16.8678L29.5478 20.24V1.04H35.1478V29ZM65.7619 1.08L55.5219 29H48.7219L38.4819 1.08H44.4819L52.1619 23.28L59.8019 1.08H65.7619ZM74.7194 1.08V29H69.1194V1.08H74.7194ZM78.8922 15C78.8922 12.2533 79.5055 9.8 80.7322 7.64C81.9855 5.45333 83.6789 3.76 85.8122 2.56C87.9722 1.33333 90.3855 0.719999 93.0522 0.719999C96.1722 0.719999 98.9055 1.52 101.252 3.12C103.599 4.72 105.239 6.93333 106.172 9.76H99.7322C99.0922 8.42667 98.1855 7.42667 97.0122 6.76C95.8655 6.09333 94.5322 5.76 93.0122 5.76C91.3855 5.76 89.9322 6.14667 88.6522 6.92C87.3989 7.66666 86.4122 8.73333 85.6922 10.12C84.9989 11.5067 84.6522 13.1333 84.6522 15C84.6522 16.84 84.9989 18.4667 85.6922 19.88C86.4122 21.2667 87.3989 22.3467 88.6522 23.12C89.9322 23.8667 91.3855 24.24 93.0122 24.24C94.5322 24.24 95.8655 23.9067 97.0122 23.24C98.1855 22.5467 99.0922 21.5333 99.7322 20.2H106.172C105.239 23.0533 103.599 25.28 101.252 26.88C98.9322 28.4533 96.1989 29.24 93.0522 29.24C90.3855 29.24 87.9722 28.64 85.8122 27.44C83.6789 26.2133 81.9855 24.52 80.7322 22.36C79.5055 20.2 78.8922 17.7467 78.8922 15ZM116.555 1.08V29H110.955V1.08H116.555ZM135.048 29.28C132.435 29.28 130.035 28.6667 127.848 27.44C125.661 26.2133 123.928 24.52 122.648 22.36C121.368 20.1733 120.728 17.7067 120.728 14.96C120.728 12.24 121.368 9.8 122.648 7.64C123.928 5.45333 125.661 3.74666 127.848 2.52C130.035 1.29333 132.435 0.68 135.048 0.68C137.688 0.68 140.088 1.29333 142.248 2.52C144.435 3.74666 146.155 5.45333 147.408 7.64C148.688 9.8 149.328 12.24 149.328 14.96C149.328 17.7067 148.688 20.1733 147.408 22.36C146.155 24.52 144.435 26.2133 142.248 27.44C140.061 28.6667 137.661 29.28 135.048 29.28ZM135.048 24.28C136.728 24.28 138.208 23.9067 139.488 23.16C140.768 22.3867 141.768 21.2933 142.488 19.88C143.208 18.4667 143.568 16.8267 143.568 14.96C143.568 13.0933 143.208 11.4667 142.488 10.08C141.768 8.66667 140.768 7.58667 139.488 6.84C138.208 6.09333 136.728 5.72 135.048 5.72C133.368 5.72 131.875 6.09333 130.568 6.84C129.288 7.58667 128.288 8.66667 127.568 10.08C126.848 11.4667 126.488 13.0933 126.488 14.96C126.488 16.8267 126.848 18.4667 127.568 19.88C128.288 21.2933 129.288 22.3867 130.568 23.16C131.875 23.9067 133.368 24.28 135.048 24.28ZM159.014 1.08V18.36C159.014 20.2533 159.508 21.7067 160.494 22.72C161.481 23.7067 162.868 24.2 164.654 24.2C166.468 24.2 167.868 23.7067 168.854 22.72C169.841 21.7067 170.334 20.2533 170.334 18.36V1.08H175.974V18.32C175.974 20.6933 175.454 22.7067 174.414 24.36C173.401 25.9867 172.028 27.2133 170.294 28.04C168.588 28.8667 166.681 29.28 164.574 29.28C162.494 29.28 160.601 28.8667 158.894 28.04C157.214 27.2133 155.881 25.9867 154.894 24.36C153.908 22.7067 153.414 20.6933 153.414 18.32V1.08H159.014ZM191.025 29.28C189.078 29.28 187.318 28.9467 185.745 28.28C184.198 27.6133 182.972 26.6533 182.065 25.4C181.158 24.1467 180.692 22.6667 180.665 20.96H186.665C186.745 22.1067 187.145 23.0133 187.865 23.68C188.612 24.3467 189.625 24.68 190.905 24.68C192.212 24.68 193.238 24.3733 193.985 23.76C194.732 23.12 195.105 22.2933 195.105 21.28C195.105 20.4533 194.852 19.7733 194.345 19.24C193.838 18.7067 193.198 18.2933 192.425 18C191.678 17.68 190.638 17.3333 189.305 16.96C187.492 16.4267 186.012 15.9067 184.865 15.4C183.745 14.8667 182.772 14.08 181.945 13.04C181.145 11.9733 180.745 10.56 180.745 8.8C180.745 7.14667 181.158 5.70667 181.985 4.48C182.812 3.25333 183.972 2.32 185.465 1.68C186.958 1.01333 188.665 0.68 190.585 0.68C193.465 0.68 195.798 1.38667 197.585 2.8C199.398 4.18667 200.398 6.13333 200.585 8.64H194.425C194.372 7.68 193.958 6.89333 193.185 6.28C192.438 5.64 191.438 5.32 190.185 5.32C189.092 5.32 188.212 5.6 187.545 6.16C186.905 6.72 186.585 7.53333 186.585 8.6C186.585 9.34667 186.825 9.97333 187.305 10.48C187.812 10.96 188.425 11.36 189.145 11.68C189.892 11.9733 190.932 12.32 192.265 12.72C194.078 13.2533 195.558 13.7867 196.705 14.32C197.852 14.8533 198.838 15.6533 199.665 16.72C200.492 17.7867 200.905 19.1867 200.905 20.92C200.905 22.4133 200.518 23.8 199.745 25.08C198.972 26.36 197.838 27.3867 196.345 28.16C194.852 28.9067 193.078 29.28 191.025 29.28Z" fill="white"/>
<defs>
<linearGradient id="paint0_linear_1105_347188" x1="90.0121" y1="-9" x2="90.0121" y2="31.5" gradientUnits="userSpaceOnUse">
<stop stop-color="#A1A1A1"/>
<stop offset="1" stop-color="#656564"/>
</linearGradient>
</defs>
</svg>
