<svg width="104" height="80" viewBox="0 0 104 80" fill="none" xmlns="http://www.w3.org/2000/svg">
<g id="Frame" clip-path="url(#clip0_1259_348059)">
<g id="Group">
<path id="Vector" d="M12.6718 36.3496C13.2414 36.3496 13.7074 35.8836 13.7074 35.314V20.7638H15.7786C16.3482 20.7638 16.8142 20.2978 16.8142 19.7282C16.8142 19.1586 16.3482 18.6926 15.7786 18.6926H12.6718C12.1022 18.6926 11.6362 19.1586 11.6362 19.7282V35.314C11.6362 35.8836 12.1022 36.3496 12.6718 36.3496Z" fill="#B3B3B3"/>
<path id="Vector_2" d="M92.2059 50.2783C91.6363 50.2783 91.1703 50.7443 91.1703 51.3139V65.8641H89.0991C88.5295 65.8641 88.0635 66.3301 88.0635 66.8997C88.0635 67.4693 88.5295 67.9353 89.0991 67.9353H92.2059C92.7754 67.9353 93.2415 67.4693 93.2415 66.8997V51.3139C93.2415 50.7443 92.7754 50.2783 92.2059 50.2783Z" fill="#B3B3B3"/>
<path id="Vector_3" d="M93.2415 19.7282C93.2415 19.1586 92.7755 18.6926 92.2059 18.6926H88.5295C87.9599 18.6926 87.4939 19.1586 87.4939 19.7282C87.4939 20.2978 87.9599 20.7638 88.5295 20.7638H91.1703V24.9062C91.1703 25.4758 91.6363 25.9418 92.2059 25.9418C92.7755 25.9418 93.2415 25.4758 93.2415 24.9062V19.7282Z" fill="#B3B3B3"/>
<path id="Vector_4" d="M8.5295 67.9354C9.09907 67.9354 9.56509 67.4693 9.56509 66.8998V16.6214C9.56509 16.0519 10.0311 15.5858 10.6007 15.5858H15.7787C16.3483 15.5858 16.8143 15.1198 16.8143 14.5502C16.8143 13.9807 16.3483 13.5146 15.7787 13.5146H10.6007C8.89196 13.5146 7.4939 14.9127 7.4939 16.6214V66.8998C7.4939 67.4693 7.95992 67.9354 8.5295 67.9354Z" fill="#B3B3B3"/>
<path id="Vector_5" d="M93.2415 28.0647C93.2415 27.4951 92.7755 27.0291 92.2059 27.0291C91.6363 27.0291 91.1703 27.4951 91.1703 28.0647V28.8414C91.1703 29.4109 91.6363 29.8769 92.2059 29.8769C92.7755 29.8769 93.2415 29.4109 93.2415 28.8414V28.0647Z" fill="#B3B3B3"/>
<path id="Vector_6" d="M13.7074 65.864V61.7216C13.7074 61.1521 13.2414 60.686 12.6718 60.686C12.1022 60.686 11.6362 61.1521 11.6362 61.7216V66.8996C11.6362 67.4692 12.1022 67.9352 12.6718 67.9352H16.3482C16.9178 67.9352 17.3838 67.4692 17.3838 66.8996C17.3838 66.33 16.9178 65.864 16.3482 65.864H13.7074Z" fill="#B3B3B3"/>
<path id="Vector_7" d="M11.6362 58.6148C11.6362 59.1844 12.1022 59.6504 12.6718 59.6504C13.2414 59.6504 13.7074 59.1844 13.7074 58.6148V57.8381C13.7074 57.2685 13.2414 56.8025 12.6718 56.8025C12.1022 56.8025 11.6362 57.2685 11.6362 57.8381V58.6148Z" fill="#B3B3B3"/>
<path id="Vector_8" d="M57.9793 73.9934H46.3806C45.811 73.9934 45.345 74.4594 45.345 75.029C45.345 75.5986 45.811 76.0646 46.3806 76.0646H57.9275C58.4971 76.0646 58.9631 75.5986 58.9631 75.029C58.9631 74.4594 58.5489 73.9934 57.9793 73.9934Z" fill="#B3B3B3"/>
<path id="Vector_9" d="M19.9729 46.1876C20.5424 46.1876 21.0085 45.7216 21.0085 45.152V15.6892H43.7916C44.3612 15.6892 44.8272 15.2232 44.8272 14.6536C44.8272 14.084 44.3612 13.618 43.7916 13.618H21.0085V11.7022C21.0085 8.12934 23.9081 5.17789 27.4809 5.17789H42.9631C43.5327 5.17789 43.9987 4.71187 43.9987 4.14229C43.9987 3.57271 43.5327 3.10669 42.9631 3.10669H27.4809C22.769 3.10669 18.9373 6.9384 18.9373 11.7022V45.152C18.9373 45.7216 19.4033 46.1876 19.9729 46.1876Z" fill="#B3B3B3"/>
<path id="Vector_10" d="M84.387 13.7734C83.8175 13.7734 83.3514 14.2395 83.3514 14.809V15.5857C83.3514 16.1553 83.8175 16.6213 84.387 16.6213C84.9566 16.6213 85.4226 16.1553 85.4226 15.5857V14.809C85.4226 14.2395 84.9566 13.7734 84.387 13.7734Z" fill="#B3B3B3"/>
<path id="Vector_11" d="M19.9729 50.0713C20.5424 50.0713 21.0085 49.6053 21.0085 49.0357V48.259C21.0085 47.6894 20.5424 47.2234 19.9729 47.2234C19.4033 47.2234 18.9373 47.6894 18.9373 48.259V49.0357C18.9373 49.6053 19.4033 50.0713 19.9729 50.0713Z" fill="#B3B3B3"/>
<path id="Vector_12" d="M27.4809 60.7379H76.8272C81.5392 60.7379 85.3709 56.9062 85.3709 52.1424V18.7443C85.3709 18.1748 84.9049 17.7087 84.3353 17.7087C83.7657 17.7087 83.2997 18.1748 83.2997 18.7443V52.1942C83.2997 55.767 80.4 58.7184 76.8272 58.7184H27.4809C23.9081 58.7184 21.0085 55.8188 21.0085 52.1942C21.0085 51.6246 20.5424 51.1586 19.9729 51.1586C19.4033 51.1586 18.9373 51.6246 18.9373 52.1942C18.9373 56.9062 22.769 60.7379 27.4809 60.7379Z" fill="#B3B3B3"/>
<path id="Vector_13" d="M25.7204 10.5114C26.321 10.5114 26.8078 10.0246 26.8078 9.42405C26.8078 8.82351 26.321 8.33667 25.7204 8.33667C25.1199 8.33667 24.6331 8.82351 24.6331 9.42405C24.6331 10.0246 25.1199 10.5114 25.7204 10.5114Z" fill="#B3B3B3"/>
<path id="Vector_14" d="M29.4486 10.5114C30.0491 10.5114 30.536 10.0246 30.536 9.42405C30.536 8.82351 30.0491 8.33667 29.4486 8.33667C28.848 8.33667 28.3612 8.82351 28.3612 9.42405C28.3612 10.0246 28.848 10.5114 29.4486 10.5114Z" fill="#B3B3B3"/>
<path id="Vector_15" d="M33.1767 10.4594C33.7773 10.4594 34.2641 9.97259 34.2641 9.37205C34.2641 8.7715 33.7773 8.28467 33.1767 8.28467C32.5762 8.28467 32.0894 8.7715 32.0894 9.37205C32.0894 9.97259 32.5762 10.4594 33.1767 10.4594Z" fill="#B3B3B3"/>
<path id="Vector_16" d="M102.924 70.0066H97.4356V16.6214C97.4356 14.9127 96.0375 13.5146 94.3288 13.5146H88.5812C88.0117 13.5146 87.5456 13.9807 87.5456 14.5502C87.5456 15.1198 88.0117 15.5858 88.5812 15.5858H94.3288C94.8984 15.5858 95.3644 16.0519 95.3644 16.6214V70.0066H8.52947H1.43562C0.866044 70.0066 0.400024 70.4726 0.400024 71.0422V73.9418C0.400024 77.2557 3.09258 79.9483 6.4065 79.9483H97.9016C101.216 79.9483 103.908 77.2557 103.908 73.9418V71.0422C103.96 70.4726 103.494 70.0066 102.924 70.0066ZM101.889 73.9936C101.889 76.1684 100.128 77.9289 97.9534 77.9289H6.4065C4.23174 77.9289 2.47122 76.1684 2.47122 73.9936V72.1295H8.52947H96.3482H101.889V73.9936Z" fill="#B3B3B3"/>
<path id="Vector_17" d="M76.4647 27.1844H77.1896C77.7592 27.1844 78.2252 26.7184 78.2252 26.1488V22.8867C78.2252 22.3171 77.7592 21.8511 77.1896 21.8511H73.9275C73.3579 21.8511 72.8919 22.3171 72.8919 22.8867V26.1488C72.8919 26.7184 73.3579 27.1844 73.9275 27.1844H74.3417C73.1508 37.1262 65.2285 44.9967 55.2867 46.2394V45.8252C55.2867 45.2556 54.8207 44.7896 54.2511 44.7896H50.989C50.4194 44.7896 49.9534 45.2556 49.9534 45.8252V46.2394C40.0634 44.9967 32.1929 37.0744 30.9501 27.1844H31.3644C31.934 27.1844 32.4 26.7184 32.4 26.1488V22.8867C32.4 22.3171 31.934 21.8511 31.3644 21.8511H28.1022C27.5327 21.8511 27.0667 22.3171 27.0667 22.8867V26.1488C27.0667 26.7184 27.5327 27.1844 28.1022 27.1844H28.8789C29.8628 35.7281 35.3514 42.9773 42.9631 46.3948H32.1411C31.7268 45.4627 30.8466 44.8414 29.7592 44.8414C28.3094 44.8414 27.1702 45.9805 27.1702 47.4304C27.1702 48.8802 28.3094 50.0194 29.7592 50.0194C30.8466 50.0194 31.7268 49.398 32.1411 48.466H50.0052V49.0355C50.0052 49.6051 50.4712 50.0711 51.0408 50.0711H54.3029C54.8725 50.0711 55.3385 49.6051 55.3385 49.0355V48.466H73.2026C73.6168 49.398 74.4971 50.0194 75.5844 50.0194C77.0343 50.0194 78.1734 48.8802 78.1734 47.4304C78.1734 45.9805 77.0343 44.8414 75.5844 44.8414C74.4971 44.8414 73.6168 45.4627 73.2026 46.3948H62.3806C69.9922 42.9773 75.4809 35.7281 76.4647 27.1844ZM74.9631 23.9223H76.154V25.1132H74.9631V23.9223ZM29.1896 23.9223H30.3806V25.1132H29.1896V23.9223ZM53.2673 46.809V47.9999H52.0764V46.809H53.2673ZM29.7592 47.9482C29.4485 47.9482 29.2414 47.6893 29.2414 47.4304C29.2414 47.1715 29.5003 46.9126 29.7592 46.9126C30.0181 46.9126 30.277 47.1715 30.277 47.4304C30.277 47.6893 30.0699 47.9482 29.7592 47.9482ZM75.5844 46.8608C75.8951 46.8608 76.1022 47.1197 76.1022 47.3786C76.1022 47.6375 75.8433 47.8964 75.5844 47.8964C75.3255 47.8964 75.0666 47.6375 75.0666 47.3786C75.0666 47.1197 75.2738 46.8608 75.5844 46.8608Z" fill="#B3B3B3"/>
<path id="Vector_18" d="M46.8984 14.6019L44.1541 30.8608V30.9126C44.1541 30.9644 44.1541 31.0162 44.1541 31.0162C44.1541 31.068 44.1541 31.068 44.1541 31.1197C44.1541 31.1715 44.1541 31.1715 44.1541 31.2233C44.1541 31.2751 44.1541 31.2751 44.2058 31.3269C44.2058 31.3786 44.2058 31.3786 44.2576 31.4304C44.2576 31.4822 44.3094 31.4822 44.3094 31.534C44.3094 31.5858 44.3612 31.5858 44.3612 31.6375C44.3612 31.6893 44.413 31.6893 44.413 31.7411L44.4647 31.7929C47.2091 34.589 49.4874 37.7994 51.2479 41.2686L51.7657 42.2524C51.7657 42.2524 51.7657 42.3042 51.8175 42.3042C51.8175 42.356 51.8693 42.356 51.8693 42.4078L51.921 42.4595L51.9728 42.5113L52.0246 42.5631L52.0764 42.6149C52.0764 42.6149 52.1282 42.6149 52.1282 42.6667C52.1282 42.6667 52.1799 42.6667 52.1799 42.7184C52.1799 42.7184 52.1799 42.7184 52.2317 42.7184C52.2835 42.7184 52.3353 42.7702 52.3353 42.7702H52.3871C52.3871 42.7702 52.3871 42.7702 52.4388 42.7702C52.4906 42.7702 52.5942 42.7702 52.646 42.7702C52.6977 42.7702 52.8013 42.7702 52.8531 42.7702C52.8531 42.7702 52.8531 42.7702 52.9049 42.7702H52.9566C53.0084 42.7702 53.0602 42.7184 53.0602 42.7184C53.0602 42.7184 53.0602 42.7184 53.112 42.7184C53.112 42.7184 53.1638 42.7184 53.1638 42.6667C53.1638 42.6667 53.2155 42.6667 53.2155 42.6149L53.2673 42.5631C53.3191 42.5631 53.3191 42.5113 53.3191 42.5113L53.3709 42.4595L53.4227 42.4078C53.4227 42.356 53.4744 42.356 53.4744 42.3042C53.4744 42.3042 53.4744 42.2524 53.5262 42.2524L54.044 41.2686C55.8045 37.7476 58.0829 34.589 60.8272 31.7929L60.879 31.7411C60.879 31.6893 60.9307 31.6893 60.9307 31.6375C60.9307 31.5858 60.9825 31.5858 60.9825 31.534C60.9825 31.4822 61.0343 31.4822 61.0343 31.4304C61.0343 31.3786 61.0343 31.3786 61.0861 31.3269C61.0861 31.2751 61.0861 31.2751 61.1379 31.2233C61.1379 31.1715 61.1379 31.1715 61.1379 31.1197C61.1379 31.068 61.1379 31.068 61.1379 31.0162C61.1379 30.9644 61.1379 30.9126 61.1379 30.9126V30.8608L58.6007 15.6893H80.1929C80.7625 15.6893 81.2285 15.2233 81.2285 14.6537C81.2285 14.0841 80.7625 13.6181 80.1929 13.6181H58.4453C58.5489 12.1683 58.756 9.21683 59.0667 5.17799H76.7754C80.3482 5.17799 83.2479 8.07767 83.2479 11.7023C83.2479 12.2718 83.7139 12.7379 84.2835 12.7379C84.8531 12.7379 85.3191 12.2718 85.3191 11.7023C85.3191 6.99029 81.4874 3.1068 76.7754 3.1068H59.222C59.222 2.3301 58.9113 1.5534 58.3935 0.983819C57.824 0.36246 56.9955 0 56.1152 0H49.1249C48.2447 0 47.4162 0.36246 46.8466 0.983819C46.277 1.60518 45.9663 2.48544 46.0181 3.31392L46.8984 14.6019ZM52.0764 27.2362C52.0764 26.9256 52.3353 26.6667 52.646 26.6667C52.9566 26.6667 53.2155 26.9256 53.2155 27.2362C53.2155 27.5469 52.9566 27.8058 52.646 27.8058C52.3353 27.8058 52.0764 27.5469 52.0764 27.2362ZM48.3482 2.38188C48.5553 2.17476 48.866 2.0712 49.1249 2.0712H56.167C56.4777 2.0712 56.7366 2.17476 56.9437 2.38188C57.1508 2.589 57.2544 2.89968 57.2026 3.15858C56.4259 13.2039 56.3223 14.3948 56.3223 14.5502V14.6019C56.3223 14.6537 56.3223 14.6537 56.3223 14.7055C56.3223 14.7573 56.3223 14.7573 56.3223 14.8091L58.9631 30.7055C56.9437 32.8285 55.1314 35.1586 53.6298 37.644V29.6699C54.5618 29.2557 55.235 28.3236 55.235 27.2362C55.235 25.7864 54.044 24.5955 52.5942 24.5955C51.1443 24.5955 49.9534 25.7864 49.9534 27.2362C49.9534 28.3236 50.6265 29.3074 51.5586 29.6699V37.644C50.057 35.1586 48.2447 32.8285 46.2252 30.7055L48.7107 15.6893H53.1638C53.7333 15.6893 54.1994 15.2233 54.1994 14.6537C54.1994 14.0841 53.7333 13.6181 53.1638 13.6181H48.8142L48.0893 3.21036C48.0893 2.89968 48.1929 2.64078 48.3482 2.38188Z" fill="#B3B3B3"/>
</g>
</g>
<defs>
<clipPath id="clip0_1259_348059">
<rect width="103.56" height="80" fill="white" transform="translate(0.400024)"/>
</clipPath>
</defs>
</svg>
