<svg width="81" height="80" viewBox="0 0 81 80" fill="none" xmlns="http://www.w3.org/2000/svg">
<g id="Frame" clip-path="url(#clip0_1259_348050)">
<path id="Vector" d="M59.4978 62.7267C61.8128 61.3911 64.061 60.1001 66.3092 58.8091C68.2903 57.6738 70.2491 56.5163 72.2079 55.4034C75.0126 53.8007 78.2179 54.5575 79.7316 57.1841C81.2675 59.8107 80.3548 62.9938 77.5502 64.6187C70.1823 68.8925 62.7922 73.1441 55.4244 77.3956C53.9553 78.2414 52.3526 78.6644 50.6609 78.6644C44.0721 78.6644 37.5056 78.6644 30.9169 78.6644C29.381 78.6644 27.9564 78.3305 26.5763 77.6627C26.0643 77.4178 25.5301 77.1507 24.8846 76.8391C24.8846 77.4846 24.9069 78.0411 24.8846 78.5753C24.8401 79.4657 24.3504 79.9777 23.4823 79.9999C19.9875 80.0222 16.4928 80.0222 12.9759 79.9999C12.0855 79.9999 11.5958 79.488 11.5513 78.5976C11.529 78.2192 11.5513 77.8185 11.5513 77.3511C11.1951 77.3511 10.9057 77.3511 10.6164 77.3511C7.92298 77.3511 5.22961 77.3511 2.53623 77.3511C1.37874 77.3511 0.889038 76.8836 0.889038 75.7484C0.889038 69.7161 0.889038 63.6838 0.889038 57.6738C0.889038 56.4941 1.35648 56.0266 2.58075 56.0266C5.25187 56.0266 7.92299 56.0266 10.5718 56.0266C10.8612 56.0266 11.1728 56.0266 11.5513 56.0266C11.5513 55.5369 11.529 55.1363 11.5513 54.7356C11.5958 53.9343 12.0632 53.4 12.8423 53.3778C16.426 53.3555 20.0098 53.3555 23.5936 53.3778C24.3726 53.3778 24.8178 53.9343 24.8623 54.7356C24.8846 55.0917 24.8623 55.4479 24.8623 55.8263C24.8623 56.1825 24.8623 56.5386 24.8623 56.9838C26.6431 56.5386 28.357 56.2047 30.0265 55.6927C32.8312 54.8024 35.5468 54.9359 38.3737 55.7373C44.1612 57.3845 49.9931 58.8758 55.8028 60.4117C57.2942 60.7679 58.5852 61.4134 59.4978 62.7267ZM24.9069 59.6994C24.9069 60.0778 24.9069 60.3672 24.9069 60.6788C24.9069 64.641 24.9514 68.6254 24.8846 72.5876C24.8623 73.5225 25.1294 74.0122 25.9976 74.3906C27.6225 75.1251 29.1361 75.9932 31.0059 75.9932C37.5501 75.971 44.1166 76.0155 50.6609 75.9487C51.7516 75.9265 52.9759 75.6594 53.9108 75.1251C61.4344 70.8736 68.9135 66.5108 76.4149 62.1702C77.7728 61.3689 78.1957 59.7662 77.4389 58.4974C76.7043 57.2732 75.1016 56.8057 73.8106 57.5625C69.47 60.0333 65.1517 62.5486 60.8334 65.0639C60.6331 65.1752 60.4327 65.5314 60.4327 65.7762C60.1879 69.4935 57.1384 71.764 53.5323 70.8068C48.3904 69.449 43.2485 68.0467 38.1066 66.6666C37.105 66.3995 36.6598 65.7762 36.9046 64.9304C37.1272 64.1513 37.8173 63.8397 38.7744 64.0845C41.6459 64.8413 44.4951 65.6204 47.3665 66.3772C49.6592 67.0005 51.9742 67.6237 54.2669 68.2247C56.2702 68.7367 58.0065 67.2453 57.7171 65.2865C57.5168 63.9287 56.5596 63.3054 55.3131 62.9715C49.5257 61.4357 43.7605 59.8552 37.9731 58.3193C36.3259 57.8742 34.6564 57.2509 32.9202 57.6738C30.2491 58.3416 27.6225 59.0316 24.9069 59.6994ZM22.169 77.3065C22.169 70.2281 22.169 63.1496 22.169 56.0489C19.5201 56.0489 16.9158 56.0489 14.3114 56.0489C14.3114 63.1719 14.3114 70.2281 14.3114 77.3065C16.938 77.3065 19.5201 77.3065 22.169 77.3065ZM3.60468 74.5909C6.29805 74.5909 8.9024 74.5909 11.5067 74.5909C11.5067 69.2487 11.5067 63.9732 11.5067 58.6978C8.83562 58.6978 6.25354 58.6978 3.60468 58.6978C3.60468 64.0177 3.60468 69.2709 3.60468 74.5909Z" fill="#B3B3B3"/>
<path id="Vector_2" d="M68.8913 43.9844C68.8913 45.2754 68.8913 46.4997 68.8913 47.7239C68.869 50.306 67.1996 51.9977 64.6175 51.9977C61.7906 51.9977 58.9636 51.9977 56.1144 51.9977C55.6025 51.9977 55.2908 52.0868 55.0237 52.5987C54.3114 53.9343 53.1317 54.6021 51.6403 54.6688C50.7054 54.7134 49.7483 54.6911 48.8134 54.6688C46.632 54.6021 44.918 52.8436 44.918 50.6844C44.918 48.503 46.6542 46.7223 48.8579 46.6777C49.726 46.6555 50.5719 46.6555 51.44 46.6777C53.0872 46.7 54.2892 47.4123 55.135 48.8369C55.2686 49.0817 55.6692 49.3043 55.9364 49.3266C58.8523 49.3711 61.7683 49.3489 64.6843 49.3489C65.7305 49.3489 66.2424 48.8591 66.2424 47.8352C66.2647 46.5887 66.2424 45.3422 66.2424 44.0066C65.7527 44.0066 65.3521 44.0289 64.9514 44.0066C64.1055 43.9621 63.5936 43.4724 63.5936 42.6265C63.5713 38.2192 63.5713 33.7896 63.5936 29.3822C63.5936 28.5364 64.1278 28.0689 64.9514 28.0244C65.3298 28.0022 65.7305 28.0244 66.2647 28.0244C66.0421 19.7885 62.9258 12.9326 56.3593 8.01329C47.7894 1.55809 38.4183 0.734497 28.9803 5.72058C20.2324 10.3505 15.9809 18.03 15.5134 28.0022C16.0254 28.0022 16.4261 27.9799 16.8267 28.0022C17.6726 28.0467 18.2291 28.5141 18.2291 29.3377C18.2513 33.7896 18.2513 38.2192 18.2291 42.6711C18.2291 43.4056 17.7839 43.9621 17.0716 43.9621C14.3337 43.9621 11.5513 44.1179 8.83563 43.8063C4.80669 43.3166 1.97976 39.488 2.26913 35.3923C2.53624 31.4301 5.8974 28.158 9.85956 28.0022C10.8612 27.9576 11.8406 28.0022 12.8646 28.0022C13.1094 19.2765 16.4038 12.02 23.0593 6.45514C28.5351 1.84746 34.9458 -0.267173 42.0911 0.0221982C57.0271 0.6232 68.9136 12.9771 68.9581 28.0022C69.893 28.0022 70.8279 27.9799 71.7627 28.0022C75.7249 28.0912 78.908 30.9627 79.5312 35.0139C80.0877 38.6421 77.706 42.4039 74.1 43.5614C73.3209 43.8063 72.475 43.8953 71.6514 43.9621C70.7611 44.0511 69.893 43.9844 68.8913 43.9844ZM10.1934 30.6955C7.18844 30.7178 4.85121 33.1663 4.91799 36.1491C4.98477 38.9983 7.43329 41.4023 10.2157 41.2687C10.1934 37.7517 10.1934 34.257 10.1934 30.6955ZM71.6069 30.6955C71.6069 34.2793 71.6069 37.774 71.6069 41.291C74.5006 41.3132 76.8601 38.9315 76.8824 36.0378C76.9269 33.0995 74.5452 30.6733 71.6069 30.6955ZM15.5134 41.291C15.5134 37.7295 15.5134 34.2125 15.5134 30.7401C14.6231 30.7401 13.7772 30.7401 12.9536 30.7401C12.9536 34.3016 12.9536 37.774 12.9536 41.291C13.8217 41.291 14.6453 41.291 15.5134 41.291ZM68.8468 41.291C68.8468 37.7072 68.8468 34.2125 68.8468 30.6955C67.9564 30.6955 67.1328 30.6955 66.2869 30.6955C66.2869 34.2348 66.2869 37.7517 66.2869 41.291C67.1551 41.291 67.9787 41.291 68.8468 41.291ZM50.238 51.9755C50.7054 51.9755 51.1951 51.9977 51.6626 51.9755C52.3971 51.9087 52.9091 51.3299 52.8868 50.6399C52.8868 49.9499 52.3749 49.3711 51.6403 49.3266C50.7054 49.2821 49.7483 49.2821 48.8134 49.3266C48.0788 49.3711 47.5669 49.9499 47.5891 50.6399C47.5891 51.3299 48.1011 51.8864 48.8356 51.9532C49.3031 52.02 49.7705 51.9755 50.238 51.9755Z" fill="#B3B3B3"/>
<path id="Vector_3" d="M40.8668 45.3201C39.6425 45.3201 38.4182 45.3201 37.194 45.3201C36.0365 45.3201 35.569 44.8526 35.5468 43.7174C35.5468 42.3596 35.569 41.0018 35.5245 39.6439C35.5245 39.3768 35.3464 39.132 35.2352 38.8649C35.0126 38.9762 34.7232 39.0429 34.5451 39.1988C33.5657 40.1559 32.6308 41.1353 31.6514 42.0702C30.8278 42.8938 30.16 42.8938 29.3587 42.0925C27.6002 40.3562 25.864 38.5978 24.1277 36.8615C23.2819 36.0157 23.3042 35.3702 24.1723 34.502C25.1072 33.5449 26.0643 32.6323 26.9992 31.6751C27.1773 31.497 27.2218 31.1854 27.3331 30.9183C27.0882 30.8292 26.8434 30.6734 26.5985 30.6734C25.2407 30.6512 23.8829 30.6734 22.5251 30.6512C21.3676 30.6512 20.9001 30.1837 20.9001 29.0485C20.9001 26.5777 20.9001 24.1069 20.9001 21.6361C20.9001 20.4564 21.3676 20.0112 22.5919 19.989C23.9274 19.989 25.263 20.0112 26.5985 19.9667C26.8656 19.9667 27.1105 19.7886 27.3776 19.6773C27.2663 19.4547 27.1995 19.1654 27.0437 18.9873C26.0866 18.0079 25.1294 17.073 24.1723 16.0936C23.3487 15.27 23.3487 14.6022 24.15 13.8009C25.9085 12.0201 27.667 10.2616 29.4477 8.50315C30.2268 7.74633 30.8946 7.74633 31.6959 8.52541C32.6531 9.4603 33.5657 10.4175 34.5229 11.3523C34.7232 11.5527 35.0571 11.6417 35.3242 11.7753C35.4132 11.4859 35.569 11.1965 35.569 10.8849C35.5913 9.5716 35.569 8.28056 35.5913 6.96726C35.5913 5.80977 36.0587 5.32007 37.194 5.32007C39.687 5.32007 42.1801 5.32007 44.6954 5.32007C45.7861 5.32007 46.2535 5.80977 46.2535 6.92274C46.2535 8.28056 46.2313 9.63838 46.2758 10.9962C46.2758 11.2633 46.4539 11.5082 46.5652 11.7753C46.81 11.6417 47.1216 11.5749 47.2997 11.3969C48.2346 10.4842 49.1472 9.54934 50.0821 8.63671C50.9948 7.72407 51.618 7.72407 52.5084 8.59219C54.2446 10.3062 55.9586 12.0424 57.6948 13.7786C58.5407 14.6245 58.5407 15.27 57.6726 16.1381C56.7154 17.0952 55.736 18.0524 54.8011 19.0318C54.6453 19.2099 54.6008 19.4993 54.5117 19.7218C54.7566 19.8109 54.9792 19.9667 55.224 19.9667C56.6041 19.989 58.0064 19.9667 59.3865 19.989C60.4772 19.989 60.9447 20.4787 60.9447 21.5916C60.9447 24.0847 60.9447 26.6 60.9447 29.093C60.9447 30.1837 60.455 30.6512 59.3643 30.6734C57.9842 30.6734 56.5818 30.6734 55.2018 30.6957C54.9569 30.6957 54.7343 30.8738 54.5117 30.9628C54.623 31.1854 54.6675 31.4748 54.8234 31.6528C55.7583 32.61 56.7154 33.5449 57.6503 34.4798C58.5629 35.3924 58.5629 36.0157 57.6948 36.906C55.9808 38.6423 54.2446 40.3785 52.5084 42.0925C51.6625 42.9161 50.9948 42.9161 50.1489 42.0702C49.1917 41.1353 48.2791 40.1782 47.322 39.2433C47.1439 39.0652 46.8323 39.0207 46.5652 38.9094C46.4761 39.1542 46.3203 39.3768 46.3203 39.6217C46.298 40.9795 46.3203 42.3373 46.298 43.6951C46.298 44.8526 45.8306 45.3201 44.6954 45.3201C43.3821 45.3423 42.1355 45.3201 40.8668 45.3201ZM51.1951 11.2633C50.3715 12.0869 49.5256 12.955 48.6575 13.8009C47.411 15.0474 47.3665 15.0697 45.7193 14.3351C45.4744 14.2238 45.2073 14.1125 44.9402 14.0235C43.7382 13.5783 43.5601 13.3557 43.5601 12.0869C43.5601 10.7291 43.5601 9.39352 43.5601 8.03571C41.7349 8.03571 40.0209 8.03571 38.2179 8.03571C38.2179 9.37126 38.2179 10.6623 38.2179 11.9756C38.2179 13.3779 38.0843 13.556 36.7933 14.0457C36.4594 14.1793 36.1255 14.3128 35.7916 14.4686C34.5896 15.0251 34.3003 14.9806 33.3654 14.068C32.4082 13.1108 31.4511 12.1759 30.5607 11.2856C29.2697 12.5543 28.0676 13.7786 26.7766 15.0474C27.6002 15.8487 28.4461 16.6946 29.2919 17.5404C30.6275 18.8537 30.6275 18.876 29.8707 20.5454C29.7594 20.768 29.6703 21.0129 29.5813 21.2355C29.0916 22.5488 28.9135 22.6823 27.5334 22.6823C26.2201 22.6823 24.8846 22.6823 23.5713 22.6823C23.5713 24.5076 23.5713 26.2216 23.5713 28.0246C24.6842 28.0246 25.7749 28.1136 26.8434 28.0023C28.4461 27.8242 29.4922 28.3139 29.8039 29.9834C29.8261 30.117 29.9152 30.2282 29.982 30.3618C30.583 31.6528 30.5607 31.92 29.559 32.9216C28.6241 33.8565 27.6892 34.7692 26.8211 35.6373C28.1122 36.9506 29.3364 38.1526 30.583 39.4213C31.3843 38.62 32.2301 37.7742 33.076 36.9283C34.4116 35.5927 34.4116 35.5927 36.081 36.3496C36.3036 36.4609 36.5485 36.5499 36.771 36.6389C38.0843 37.1286 38.2179 37.3067 38.2179 38.6868C38.2179 40.0001 38.2179 41.3357 38.2179 42.649C40.0432 42.649 41.7571 42.649 43.5601 42.649C43.5601 41.2911 43.5601 39.9556 43.5601 38.62C43.5601 37.329 43.716 37.1064 44.8957 36.6612C45.2519 36.5276 45.608 36.3718 45.9641 36.1937C47.1661 35.6373 47.4555 35.6818 48.3904 36.5944C49.3476 37.5516 50.3047 38.5087 51.1728 39.3768C52.4639 38.0858 53.6659 36.8838 54.9569 35.5927C54.1333 34.7914 53.2429 33.9456 52.3748 33.0997C51.1061 31.8309 51.1061 31.8309 51.8406 30.1615C51.9519 29.9166 52.0632 29.6495 52.1522 29.3824C52.5974 28.1804 52.82 28.0246 54.0888 28.0023C55.4466 28.0023 56.7822 28.0023 58.14 28.0023C58.14 26.1771 58.14 24.4631 58.14 22.6601C56.8044 22.6601 55.5134 22.6601 54.2001 22.6601C52.7978 22.6601 52.6197 22.5265 52.13 21.2355C51.9964 20.9016 51.8629 20.5677 51.7071 20.2338C51.1506 19.0318 51.1951 18.7424 52.1077 17.8298C53.0649 16.8727 54.022 15.9378 54.9124 15.0474C53.6659 13.7563 52.4639 12.5321 51.1951 11.2633Z" fill="#B3B3B3"/>
<path id="Vector_4" d="M19.5647 74.0346C19.5647 74.2794 19.587 74.5465 19.5647 74.7914C19.4534 75.5037 19.0082 75.9266 18.2737 75.9711C17.5836 76.0156 17.0049 75.4814 16.9381 74.7691C16.8936 74.3239 16.9158 73.8787 16.9158 73.4336C16.9381 72.5654 17.4501 72.009 18.2069 71.9867C18.986 71.9644 19.5424 72.5432 19.5647 73.4558C19.587 73.6562 19.5647 73.8565 19.5647 74.0346Z" fill="#B3B3B3"/>
<path id="Vector_5" d="M32.9203 25.3089C32.9203 20.9016 36.5263 17.3401 40.9336 17.3401C45.3187 17.3401 48.9247 20.9684 48.9025 25.3534C48.8802 29.7608 45.2965 33.3223 40.8891 33.3445C36.504 33.3223 32.898 29.7163 32.9203 25.3089ZM46.2313 25.3089C46.2313 22.3707 43.8051 19.9889 40.8668 20.0112C37.9509 20.0335 35.5914 22.4152 35.5914 25.3312C35.5914 28.2917 37.9731 30.6734 40.9336 30.6734C43.8496 30.6512 46.2536 28.2472 46.2313 25.3089Z" fill="#B3B3B3"/>
</g>
<defs>
<clipPath id="clip0_1259_348050">
<rect width="79.5771" height="80" fill="white" transform="translate(0.911377)"/>
</clipPath>
</defs>
</svg>
