<svg width="80" height="80" viewBox="0 0 80 80" fill="none" xmlns="http://www.w3.org/2000/svg">
<g id="Frame" clip-path="url(#clip0_1259_348038)">
<path id="Vector" d="M44.0594 0C45.0195 0.480042 45.4787 1.29403 45.6456 2.33759C45.7291 2.90112 45.9796 3.44378 46.0422 4.00731C46.1674 4.92565 46.5431 5.48917 47.4823 5.7605C47.9832 5.9066 48.338 5.92747 48.7763 5.65614C49.6321 5.11349 50.5087 4.5917 51.3853 4.09079C52.3662 3.52726 53.2219 3.63162 54.0151 4.40386C55.6013 5.94834 57.1875 7.49283 58.7529 9.05818C59.546 9.85129 59.6295 10.7905 59.0451 11.7715C58.5024 12.6898 57.918 13.5873 57.3753 14.5056C56.9997 15.1318 57.6258 16.5719 58.3563 16.7597C59.3373 17.0102 60.3182 17.2398 61.2992 17.4902C62.6558 17.845 63.1567 18.4503 63.1567 19.8696C63.1776 21.2471 63.1567 22.6246 63.1567 24.0856C64.6177 24.0856 66.0161 24.0647 67.4145 24.0856C68.3537 24.1064 69.2929 24.0647 70.2112 24.2525C72.6323 24.7326 74.4481 26.8197 74.469 29.2825C74.5316 36.3579 74.4899 43.4542 74.4899 50.5296C74.4899 51.7402 73.5507 52.6376 72.4236 52.6168C71.2548 52.5959 70.42 51.6984 70.42 50.3835C70.42 43.8508 70.42 37.318 70.42 30.7853C70.42 30.4513 70.42 30.1174 70.42 29.7626C70.3782 28.6982 69.8773 28.1972 68.8337 28.1555C68.6876 28.1555 68.5207 28.1555 68.3746 28.1555C49.4651 28.1555 30.5765 28.1555 11.667 28.1555C9.97645 28.1555 9.5799 28.5312 9.5799 30.2009C9.5799 36.8589 9.5799 43.5377 9.5799 50.1957C9.5799 51.3853 9.1416 52.1367 8.28587 52.4707C7.03359 52.9507 5.67695 52.1158 5.50998 50.7592C5.46823 50.5087 5.4891 50.2374 5.4891 49.987C5.4891 43.329 5.4891 36.6501 5.4891 29.9922C5.4891 26.3188 7.76408 24.0856 11.4374 24.0647C13.1906 24.0647 14.923 24.0647 16.7596 24.0647C16.7805 23.7516 16.8014 23.4803 16.8014 23.209C16.8014 21.9776 16.7805 20.767 16.8223 19.5356C16.8431 18.3877 17.3649 17.7615 18.4711 17.4693C19.5355 17.198 20.6 16.9684 21.6435 16.6971C22.4158 16.5093 23.0002 15.0483 22.5828 14.3804C22.061 13.5038 21.5183 12.6689 20.9965 11.7923C20.3704 10.7279 20.4539 9.83042 21.3305 8.97469C22.8541 7.45108 24.3986 5.92747 25.9431 4.42473C26.7988 3.58988 27.6754 3.50639 28.7189 4.11166C29.6373 4.65432 30.5556 5.21785 31.474 5.73963C32.121 6.11531 33.6028 5.48917 33.8116 4.75867C34.0411 3.88208 34.2916 3.00548 34.4794 2.10801C34.6673 1.10618 35.1682 0.396556 36.1283 0.0208714C38.7581 0 41.4087 0 44.0594 0ZM59.0659 21.1218C58.0432 20.8714 57.0623 20.6209 56.0605 20.4122C55.1004 20.2035 54.516 19.6608 54.2029 18.7216C53.8898 17.8242 53.535 16.9267 53.0967 16.071C52.6167 15.1318 52.6375 14.2969 53.2219 13.4412C53.7646 12.6272 54.2446 11.7715 54.7456 10.9575C53.9733 10.1644 53.2637 9.39212 52.4914 8.68249C52.3453 8.55727 51.9697 8.55727 51.7818 8.64075C50.9887 9.07905 50.1956 9.55909 49.4234 10.0183C48.672 10.4774 47.9206 10.4774 47.1275 10.1017C46.1883 9.66345 45.2282 9.26689 44.2473 8.91208C43.3498 8.59901 42.8071 8.05635 42.5984 7.13801C42.3688 6.13619 42.0975 5.13436 41.847 4.1534C40.5948 4.1534 39.4051 4.1534 38.1737 4.1534C37.9232 5.1761 37.6728 6.15706 37.4432 7.13801C37.2345 8.05635 36.6709 8.61988 35.7735 8.93295C34.7925 9.26689 33.8324 9.66345 32.8932 10.1017C32.1001 10.4774 31.3487 10.4774 30.5974 10.0183C29.8251 9.53822 29.0529 9.05818 28.2389 8.61988C28.0511 8.51552 27.6963 8.47378 27.571 8.57814C26.7988 9.32951 26.0683 10.1435 25.2752 10.9575C25.797 11.7923 26.2979 12.6689 26.8405 13.5247C27.3414 14.2969 27.3623 15.0483 26.9657 15.8831C26.5066 16.8432 26.11 17.8242 25.7343 18.826C25.4213 19.6191 24.9204 20.1409 24.0855 20.3287C23.2089 20.5374 22.3114 20.7253 21.4348 20.9757C21.2261 21.0384 20.9339 21.2471 20.9131 21.3932C20.8713 22.2698 20.8922 23.1464 20.8922 24.0021C24.2316 24.0021 27.4667 24.0021 30.7017 24.0021C30.1799 18.2416 34.3542 14.0256 39.1129 13.6081C41.6383 13.3786 43.9133 14.0673 45.8543 15.6953C48.4841 17.845 49.5277 20.6627 49.2564 24.0021C52.5541 24.0021 55.7891 24.0021 59.0451 24.0021C59.0659 23.0211 59.0659 22.1237 59.0659 21.1218ZM45.103 24.0438C45.1447 23.5638 45.1865 23.1672 45.1865 22.7915C45.1656 19.7861 42.5984 17.4485 39.6138 17.6572C36.6918 17.8659 34.4586 20.5792 34.876 23.5012C34.8969 23.7099 35.1682 24.023 35.3352 24.023C38.5494 24.0647 41.7636 24.0438 45.103 24.0438Z" fill="#B3B3B3"/>
<path id="Vector_2" d="M80 75.3039C79.8539 75.7422 79.7287 76.2014 79.5408 76.6188C78.5807 78.7268 76.911 79.833 74.5943 79.9791C74.4482 79.9791 74.2812 79.9791 74.1351 79.9791C51.3853 79.9791 28.6355 79.9791 5.88573 79.9791C3.13071 79.9791 1.0227 78.539 0.292199 76.1179C0.125228 75.5544 0.0417428 74.9491 0.0208714 74.3647C0 71.1296 0 67.8946 0 64.6804C0 63.1568 0.813984 62.3428 2.29585 62.3428C10.7279 62.3428 19.1599 62.3428 27.592 62.3428C28.6981 62.3428 29.4078 62.8228 29.8043 63.8455C30.2844 65.056 30.7644 66.2457 31.2653 67.498C31.5784 67.498 31.8915 67.498 32.2045 67.498C37.4433 67.498 42.6611 67.498 47.8998 67.5189C48.4633 67.5189 48.7138 67.3519 48.9016 66.8301C49.2147 65.8909 49.6321 64.9934 49.9869 64.0751C50.5296 62.7185 51.0723 62.3636 52.5333 62.3636C60.7775 62.3636 69.0425 62.3845 77.2867 62.3428C78.5599 62.3428 79.4573 62.7185 79.9374 63.9081C80 67.7067 80 71.5053 80 75.3039ZM4.09079 66.4336C4.09079 69.0842 4.09079 71.6097 4.09079 74.1351C4.09079 75.3665 4.61257 75.9092 5.84399 75.9092C28.5938 75.9092 51.3436 75.9092 74.0934 75.9092C75.3665 75.9092 75.8883 75.3874 75.8883 74.0934C75.8883 71.7766 75.8883 69.4599 75.8883 67.1432C75.8883 66.9136 75.8466 66.7049 75.8257 66.4962C75.7005 66.4544 75.6379 66.4336 75.5961 66.4336C68.3955 66.4336 61.174 66.4127 53.9734 66.4544C53.7438 66.4544 53.4099 66.7049 53.3264 66.9345C52.8463 67.9989 52.4498 69.1051 52.0115 70.1904C51.6358 71.1296 50.947 71.6097 49.9035 71.6097C43.2872 71.6097 36.671 71.6097 30.0757 71.6097C29.0321 71.6097 28.3642 71.1296 27.9676 70.1904C27.5711 69.2095 27.1328 68.2285 26.778 67.2267C26.5693 66.6423 26.2979 66.4336 25.6718 66.4544C18.7634 66.4753 11.8758 66.4753 4.96739 66.4753C4.69606 66.4336 4.4456 66.4336 4.09079 66.4336Z" fill="#B3B3B3"/>
<path id="Vector_3" d="M32.7889 38.9668C32.7889 40.1982 32.8306 41.3253 32.768 42.4314C32.7471 42.6819 32.4549 42.995 32.2045 43.1202C30.2008 44.1638 28.1763 45.1656 26.1518 46.1883C25.9222 46.2927 25.7135 46.4179 25.3795 46.6057C27.4666 47.6493 29.4077 48.7346 31.4531 49.6112C32.5593 50.0912 32.9976 50.7174 32.8306 51.8862C32.7262 52.6167 32.8097 53.368 32.8097 54.2238C32.4549 54.0568 32.2045 53.9524 31.954 53.8272C28.3015 51.9488 24.6699 50.0495 20.9965 48.2128C20.4747 47.9624 20.3704 47.6493 20.2869 47.1066C20.0991 45.7709 20.6417 45.103 21.8314 44.5395C25.2543 42.9115 28.5937 41.0957 31.954 39.3634C32.2045 39.2173 32.4549 39.1129 32.7889 38.9668Z" fill="#B3B3B3"/>
<path id="Vector_4" d="M47.211 54.2656C47.211 53.0134 47.1693 51.8863 47.2319 50.7801C47.2528 50.5297 47.5241 50.2166 47.7745 50.0914C49.7991 49.0478 51.8653 48.046 53.9107 47.0233C54.1403 46.9189 54.349 46.7728 54.683 46.6058C53.6811 46.1049 52.7628 45.6249 51.8236 45.1657C50.4461 44.477 49.0686 43.83 47.7119 43.0995C47.4615 42.9742 47.2319 42.5777 47.211 42.2855C47.1484 41.221 47.1901 40.1775 47.1901 38.9878C47.5241 39.1339 47.7537 39.2174 47.9833 39.3426C51.6566 41.221 55.33 43.1203 59.0242 44.9779C59.5669 45.2492 59.6086 45.5831 59.6921 46.1049C59.9008 47.5033 59.2955 48.1503 58.085 48.7347C54.7247 50.3418 51.4479 52.095 48.1502 53.7856C47.8998 53.9108 47.6284 54.0569 47.211 54.2656Z" fill="#B3B3B3"/>
<path id="Vector_5" d="M45.7709 36.2117C44.9151 38.4241 44.1011 40.5112 43.308 42.5775C41.8679 46.3135 40.4278 50.0286 39.0085 53.7646C38.7998 54.2864 38.5702 54.5577 37.965 54.5159C37.0049 54.4533 36.0448 54.4951 35.0012 54.4951C35.0847 54.2237 35.1473 53.9942 35.2099 53.7854C37.3806 48.1502 39.5512 42.494 41.7218 36.8588C41.9096 36.3787 42.1184 36.17 42.661 36.1909C43.6628 36.2326 44.6438 36.2117 45.7709 36.2117Z" fill="#B3B3B3"/>
<path id="Vector_6" d="M72.4863 54.9961C73.7177 54.9961 74.7195 55.9979 74.6987 57.2502C74.6778 58.4607 73.7177 59.4208 72.5072 59.4208C71.2549 59.4208 70.2948 58.4399 70.2948 57.1876C70.2948 55.977 71.2758 54.9961 72.4863 54.9961Z" fill="#B3B3B3"/>
<path id="Vector_7" d="M7.49271 59.4C6.2613 59.3792 5.28034 58.3565 5.32209 57.1251C5.36383 55.9354 6.36565 54.9753 7.55532 54.9962C8.78673 54.9962 9.76769 55.998 9.74682 57.2503C9.72595 58.4817 8.74499 59.4418 7.49271 59.4Z" fill="#B3B3B3"/>
</g>
<defs>
<clipPath id="clip0_1259_348038">
<rect width="80" height="80" fill="white"/>
</clipPath>
</defs>
</svg>
