<svg width="18" height="18" viewBox="0 0 18 18" fill="none" xmlns="http://www.w3.org/2000/svg">
<g id="Frame" clip-path="url(#clip0_1140_365626)">
<g id="Group">
<path id="Vector" d="M9.43563 0C9.77693 0.0610966 10.1276 0.0986945 10.4642 0.17859C12.9608 0.770757 14.8824 2.90914 15.2143 5.4658C15.4387 7.1859 15.0367 8.74621 14.0128 10.1373C12.9047 11.6366 11.7873 13.1311 10.6652 14.6209C9.93589 15.589 8.62212 15.7629 7.68706 15.0204C7.53277 14.8982 7.39251 14.7478 7.27563 14.5927C6.16758 13.117 5.05953 11.6319 3.95615 10.1514C3.04446 8.9295 2.62368 7.55248 2.68446 6.02507C2.79667 3.35091 4.68083 0.963446 7.2429 0.249086C7.6216 0.145692 8.01901 0.0986945 8.40706 0.0281984C8.44446 0.018799 8.48654 0.00939948 8.52394 0C8.82784 0 9.13173 0 9.43563 0ZM13.8819 6.21306C13.8678 6.07206 13.8491 5.79948 13.8071 5.52689C13.3489 2.48616 10.0668 0.601567 7.21953 1.7342C4.15251 2.95614 3.10992 6.66423 5.08758 9.32898C6.16758 10.7859 7.25693 12.2381 8.3416 13.6903C8.72498 14.2026 9.22524 14.2073 9.60862 13.695C10.698 12.2381 11.7826 10.7812 12.872 9.32428C13.5312 8.44073 13.8678 7.45379 13.8819 6.21306Z" fill="#808080"/>
<path id="Vector_2" d="M8.99659 16.6037C9.9223 16.6037 10.848 16.599 11.7784 16.6037C12.1478 16.6037 12.4423 16.8762 12.475 17.2381C12.5124 17.5953 12.2693 17.9196 11.914 17.9948C11.8626 18.0042 11.8111 18.0089 11.7597 18.0089C9.90828 18.0089 8.05217 18.0089 6.20074 18.0089C5.81737 18.0089 5.51815 17.741 5.48542 17.3744C5.45269 17.0125 5.69113 16.6882 6.04646 16.6178C6.12126 16.6037 6.19607 16.6037 6.27087 16.6037C7.17789 16.6037 8.08958 16.6037 8.99659 16.6037Z" fill="#808080"/>
<path id="Vector_3" d="M8.97345 4.2207C10.1283 4.2207 11.0773 5.17005 11.0773 6.33089C11.0773 7.49172 10.1283 8.44577 8.97345 8.44107C7.828 8.44107 6.87891 7.49172 6.87891 6.34028C6.87891 5.17945 7.81865 4.2254 8.97345 4.2207ZM8.97813 7.03585C9.3615 7.03585 9.67943 6.71626 9.67475 6.33089C9.67475 5.94551 9.35683 5.62592 8.97345 5.63062C8.59008 5.63062 8.27683 5.94551 8.27683 6.33559C8.2815 6.72096 8.59475 7.03585 8.97813 7.03585Z" fill="#808080"/>
</g>
</g>
<defs>
<clipPath id="clip0_1140_365626">
<rect width="18" height="18" fill="white"/>
</clipPath>
</defs>
</svg>
