<svg width="18" height="19" viewBox="0 0 18 19" fill="none" xmlns="http://www.w3.org/2000/svg">
<g id="Frame">
<path id="Vector" d="M9.01539 16.3096C7.15539 16.3096 5.31039 16.3096 3.45039 16.3096C1.87539 16.3096 0.600391 15.3196 0.240391 13.8196C0.180391 13.5496 0.150391 13.2796 0.150391 13.0096C0.150391 10.6396 0.150391 8.26961 0.150391 5.89961C0.150391 4.20461 1.27539 2.89961 2.94039 2.62961C3.10539 2.59961 3.28539 2.59961 3.45039 2.59961C7.17039 2.59961 10.8904 2.59961 14.6104 2.59961C16.2754 2.59961 17.5654 3.67961 17.8654 5.29961C17.8954 5.49461 17.9104 5.70461 17.9104 5.89961C17.9104 8.26961 17.9104 10.6396 17.9104 13.0096C17.9104 14.7046 16.7854 16.0096 15.1204 16.2796C14.9404 16.3096 14.7454 16.3096 14.5504 16.3096C12.7054 16.3096 10.8604 16.3096 9.01539 16.3096ZM16.2904 6.04961C16.2004 6.12461 16.1404 6.16961 16.0654 6.21461C14.5504 7.39961 13.0354 8.58461 11.5204 9.75461C10.0204 10.9096 8.02539 10.9096 6.52539 9.73961C4.99539 8.55461 3.48039 7.36961 1.96539 6.18461C1.90539 6.13961 1.86039 6.09461 1.78539 6.04961C1.78539 6.10961 1.78539 6.13961 1.78539 6.16961C1.78539 8.47961 1.78539 10.7896 1.78539 13.0846C1.78539 13.2346 1.80039 13.3696 1.84539 13.5196C2.04039 14.2546 2.68539 14.7046 3.51039 14.7046C6.19539 14.7046 8.89539 14.7046 11.5804 14.7046C12.6004 14.7046 13.6054 14.7046 14.6254 14.7046C15.6004 14.7046 16.3054 14.0146 16.3054 13.0696C16.3054 10.7746 16.3054 8.47961 16.3054 6.18461C16.2904 6.15461 16.2904 6.12461 16.2904 6.04961ZM2.44539 4.51961C2.49039 4.56461 2.52039 4.57961 2.55039 4.60961C4.18539 5.88461 5.83539 7.15961 7.47039 8.43461C8.46039 9.19961 9.61539 9.19961 10.6054 8.41961C11.8654 7.44461 13.1104 6.46961 14.3704 5.49461C14.7904 5.16461 15.1954 4.84961 15.6304 4.51961C15.3304 4.29461 15.0004 4.20461 14.6554 4.20461C10.9054 4.20461 7.17039 4.20461 3.42039 4.20461C3.07539 4.20461 2.74539 4.29461 2.44539 4.51961Z" fill="#808080"/>
</g>
</svg>
