<svg width="18" height="19" viewBox="0 0 18 19" fill="none" xmlns="http://www.w3.org/2000/svg">
<g id="Frame" clip-path="url(#clip0_1140_365633)">
<g id="Group">
<path id="Vector" d="M0.00476317 5.45768C0.0333422 5.24832 0.0476317 5.03896 0.085737 4.83436C0.190527 4.32048 0.414395 3.86846 0.781159 3.49733C1.267 3.00248 1.73379 2.4886 2.25298 2.03658C3.04366 1.34665 3.9058 1.35141 4.6679 2.06513C5.4824 2.82643 6.2588 3.6258 7.01614 4.43944C7.5782 5.04372 7.57343 5.97155 7.02567 6.59487C6.6208 7.05641 6.17306 7.47988 5.73485 7.91763C5.64911 8.00327 5.63482 8.05561 5.69198 8.16981C6.13019 9.05006 6.74464 9.80185 7.41149 10.5156C8.09262 11.2436 8.8452 11.8954 9.69304 12.4378C9.93596 12.5901 10.1932 12.7186 10.4599 12.8661C10.7886 12.533 11.0982 12.1999 11.4316 11.8907C11.6745 11.6623 11.9222 11.4291 12.208 11.2674C12.8082 10.9295 13.5417 11.0152 14.037 11.491C14.8706 12.2903 15.6899 13.104 16.4806 13.9462C17.0664 14.5695 17.0759 15.5164 16.5044 16.1587C16.0042 16.7249 15.4708 17.2626 14.9278 17.7907C14.5134 18.1904 13.9942 18.4045 13.4178 18.4807C13.3797 18.4854 13.3416 18.5045 13.3035 18.514C13.0797 18.514 12.8558 18.514 12.6367 18.514C12.5986 18.5045 12.5605 18.4902 12.5224 18.4807C12.1413 18.4093 11.7555 18.3665 11.384 18.2713C10.0646 17.924 8.85949 17.3102 7.71156 16.5869C4.83938 14.7598 2.62927 12.3284 1.086 9.30224C0.652554 8.45054 0.314369 7.56077 0.123842 6.61866C0.0619211 6.31414 0.0428685 6.00486 0 5.70034C0.00476317 5.61945 0.00476317 5.53856 0.00476317 5.45768ZM1.04313 5.60518C1.06219 5.80978 1.07648 6.01438 1.10029 6.21422C1.10982 6.30462 1.13363 6.39979 1.15269 6.49019C1.42895 7.73206 1.9529 8.87401 2.61498 9.94935C4.38211 12.8137 6.73035 15.0501 9.76449 16.5394C10.6981 16.9961 11.665 17.3673 12.7129 17.4624C13.3607 17.5195 13.9323 17.3673 14.3943 16.8819C14.7753 16.4823 15.1659 16.0969 15.5517 15.7019C15.6089 15.6448 15.666 15.583 15.7137 15.5164C15.9614 15.1976 15.9614 14.8597 15.6899 14.56C15.4136 14.2555 15.1183 13.97 14.8277 13.6797C14.3752 13.2277 13.9275 12.7757 13.4702 12.3284C13.1416 12.0049 12.7891 12.0049 12.4414 12.3094C12.389 12.357 12.3366 12.4045 12.289 12.4569C11.8841 12.8566 11.484 13.261 11.0791 13.6607C10.7981 13.9367 10.4837 14.0033 10.1455 13.8367C9.80736 13.6654 9.46441 13.4894 9.14528 13.2896C8.04499 12.5949 7.09712 11.7241 6.24927 10.7487C5.66817 10.0778 5.13469 9.37362 4.7584 8.56473C4.43927 7.87956 4.48214 7.694 5.0299 7.16584C5.42048 6.78995 5.81106 6.4093 6.18735 6.00962C6.49219 5.68607 6.48267 5.36251 6.19688 5.01993C6.16354 4.98186 6.12543 4.93904 6.09209 4.90098C5.41096 4.2158 4.72506 3.53063 4.03916 2.85022C3.96295 2.77409 3.87245 2.69796 3.77719 2.64562C3.47711 2.47909 3.1675 2.55046 2.8579 2.85498C2.46732 3.23563 2.09579 3.63055 1.70045 4.00645C1.23842 4.45371 1.01932 4.97711 1.04313 5.60518Z" fill="#808080"/>
<path id="Vector_2" d="M10.017 0.5C10.2313 0.542823 10.4933 0.585646 10.7458 0.65226C12.3081 1.04718 13.6942 1.77518 14.8945 2.85052C16.1377 3.96868 17.0522 5.31047 17.5952 6.89492C17.7667 7.38977 17.8715 7.90841 17.9905 8.42228C18.0572 8.71253 17.8858 8.95044 17.6047 9.01705C17.3428 9.07891 17.0855 8.9314 17.0093 8.65543C16.9284 8.36994 16.8807 8.07494 16.7998 7.78469C16.271 5.85289 15.1803 4.29699 13.5846 3.09318C12.5367 2.30809 11.365 1.79897 10.0789 1.55155C9.98366 1.53251 9.88364 1.51348 9.78837 1.48017C9.55974 1.39453 9.43113 1.15186 9.474 0.913957C9.51687 0.680809 9.73598 0.5 10.017 0.5Z" fill="#808080"/>
<path id="Vector_3" d="M9.88289 3.76863C10.3497 3.84 10.8355 3.97323 11.2928 4.18734C13.1695 5.06284 14.3174 6.51407 14.7366 8.54103C14.7985 8.84079 14.6365 9.11201 14.3555 9.17862C14.0888 9.24048 13.8268 9.07394 13.7411 8.78845C13.622 8.40304 13.5505 7.9986 13.3838 7.63699C12.6741 6.08584 11.4738 5.14373 9.80192 4.79638C9.49708 4.73453 9.33513 4.55848 9.33036 4.29202C9.32084 3.99226 9.54947 3.76387 9.88289 3.76863Z" fill="#808080"/>
</g>
</g>
<defs>
<clipPath id="clip0_1140_365633">
<rect width="18" height="18" fill="white" transform="translate(0 0.5)"/>
</clipPath>
</defs>
</svg>
