<svg width="271" height="75" viewBox="0 0 271 75" fill="none" xmlns="http://www.w3.org/2000/svg">
<path d="M75.1157 37.5C75.1157 58.2172 58.3166 75 37.6157 75C16.9148 75 0.115692 58.2172 0.115692 37.5C0.115692 16.7991 16.9148 0 37.6157 0C58.3329 0 75.1157 16.7991 75.1157 37.5Z" fill="url(#paint0_linear_607_197)"/>
<path d="M20.4085 27.7046L16.0659 19.0357H24.6042L28.9468 27.7046H20.4085Z" fill="white"/>
<path d="M37.6157 62.1354L24.6041 36.243H33.273L37.6157 44.9119L41.9583 36.243H50.4966L37.6157 62.1354Z" fill="white"/>
<path d="M46.301 27.7046L50.4967 19.0357H59.1656L54.823 27.7046H46.301Z" fill="white"/>
<path d="M98.0545 19.6742V44.0755H93.1157V19.6742H98.0545ZM124.04 44.0593H119.102L107.899 27.3279V44.0755H102.944V19.6256H107.883L119.085 36.4056V19.6256H124.024V44.0593H124.04ZM151.073 19.6742L142.029 44.0755H136.027L126.984 19.6742H132.282L139.069 39.0755L145.823 19.6742H151.073ZM158.972 19.6742V44.0755H154.033V19.6742H158.972ZM162.667 31.8263C162.667 29.4314 163.207 27.2793 164.286 25.4023C165.398 23.4929 166.887 22.0043 168.767 20.9687C170.681 19.9007 172.807 19.3667 175.162 19.3667C177.909 19.3667 180.329 20.0625 182.406 21.4703C184.483 22.8619 185.922 24.8036 186.756 27.2793H181.065C180.493 26.1143 179.691 25.2405 178.661 24.658C177.647 24.0755 176.47 23.7842 175.129 23.7842C173.69 23.7842 172.414 24.124 171.286 24.8036C170.174 25.4509 169.307 26.3894 168.669 27.603C168.064 28.8166 167.753 30.2405 167.753 31.8748C167.753 33.4768 168.064 34.9007 168.669 36.1467C169.307 37.3602 170.174 38.2988 171.286 38.9784C172.414 39.6256 173.706 39.9492 175.129 39.9492C176.47 39.9492 177.647 39.658 178.661 39.0755C179.691 38.4768 180.493 37.5868 181.065 36.4217H186.756C185.939 38.9136 184.483 40.8554 182.406 42.2632C180.362 43.6386 177.942 44.3182 175.162 44.3182C172.807 44.3182 170.681 43.8004 168.767 42.7486C166.887 41.6806 165.382 40.192 164.286 38.3149C163.207 36.3732 162.667 34.2373 162.667 31.8263ZM195.931 19.6742V44.0755H190.992V19.6742H195.931ZM212.251 44.302C209.946 44.302 207.82 43.768 205.89 42.7001C203.96 41.6321 202.423 40.1434 201.295 38.2664C200.166 36.357 199.594 34.2049 199.594 31.7939C199.594 29.4153 200.166 27.2793 201.295 25.4023C202.423 23.4929 203.96 22.0043 205.89 20.9363C207.836 19.8522 209.946 19.3182 212.251 19.3182C214.59 19.3182 216.7 19.8522 218.613 20.9201C220.543 21.9881 222.064 23.4768 223.176 25.3861C224.304 27.2793 224.876 29.3991 224.876 31.7777C224.876 34.1725 224.304 36.3408 223.176 38.2502C222.064 40.1434 220.543 41.6159 218.613 42.6839C216.683 43.768 214.557 44.302 212.251 44.302ZM212.251 39.9331C213.74 39.9331 215.048 39.6094 216.176 38.9622C217.305 38.2826 218.188 37.3279 218.826 36.0981C219.463 34.8683 219.774 33.4282 219.774 31.7939C219.774 30.1596 219.463 28.7357 218.826 27.5221C218.188 26.2923 217.305 25.3376 216.176 24.6903C215.048 24.0431 213.74 23.7195 212.251 23.7195C210.763 23.7195 209.455 24.0431 208.294 24.6903C207.166 25.3376 206.282 26.2923 205.645 27.5221C205.007 28.7357 204.696 30.1596 204.696 31.7939C204.696 33.4282 205.007 34.8522 205.645 36.0981C206.282 37.3279 207.166 38.2826 208.294 38.9622C209.455 39.6094 210.78 39.9331 212.251 39.9331ZM233.413 19.6742V34.7713C233.413 36.4217 233.855 37.7001 234.721 38.5738C235.588 39.4314 236.815 39.8683 238.401 39.8683C240.003 39.8683 241.246 39.4314 242.113 38.5738C242.98 37.6839 243.421 36.4217 243.421 34.7713V19.6742H248.409V34.7389C248.409 36.8101 247.951 38.5738 247.036 40.014C246.136 41.4379 244.926 42.5059 243.405 43.234C241.9 43.9622 240.216 44.3182 238.352 44.3182C236.52 44.3182 234.836 43.9622 233.331 43.234C231.843 42.5059 230.666 41.4379 229.799 40.014C228.932 38.5738 228.491 36.8101 228.491 34.7389V19.6742H233.413ZM261.688 44.302C259.971 44.302 258.418 44.0107 257.028 43.4282C255.654 42.8457 254.575 42.0043 253.773 40.9039C252.972 39.8036 252.563 38.5091 252.53 37.0204H257.829C257.894 38.0237 258.254 38.8166 258.892 39.3991C259.546 39.9816 260.445 40.2729 261.574 40.2729C262.735 40.2729 263.634 39.9978 264.289 39.4638C264.943 38.8975 265.27 38.1855 265.27 37.2955C265.27 36.5674 265.041 35.9848 264.599 35.5156C264.158 35.0463 263.585 34.6903 262.898 34.4314C262.244 34.1564 261.329 33.8489 260.151 33.5253C258.548 33.056 257.24 32.603 256.226 32.1661C255.245 31.6968 254.378 31.0172 253.642 30.1111C252.939 29.1725 252.579 27.9428 252.579 26.4056C252.579 24.9654 252.939 23.7033 253.675 22.6353C254.411 21.5674 255.425 20.7421 256.75 20.192C258.091 19.6094 259.595 19.3182 261.296 19.3182C263.847 19.3182 265.908 19.9331 267.477 21.1628C269.08 22.3764 269.963 24.0755 270.127 26.2599H264.681C264.632 25.4185 264.272 24.7389 263.585 24.2049C262.931 23.6386 262.048 23.3635 260.936 23.3635C259.971 23.3635 259.186 23.6062 258.597 24.0916C258.025 24.5771 257.747 25.2891 257.747 26.2276C257.747 26.8748 257.96 27.425 258.385 27.878C258.826 28.2988 259.366 28.6547 260.004 28.9298C260.658 29.1887 261.574 29.4962 262.751 29.836C264.354 30.3052 265.662 30.7745 266.676 31.2276C267.69 31.6968 268.557 32.3926 269.293 33.3311C270.029 34.2696 270.388 35.4832 270.388 37.0043C270.388 38.3149 270.045 39.5285 269.358 40.645C268.671 41.7615 267.674 42.6677 266.349 43.3311C265.073 43.9784 263.504 44.302 261.688 44.302Z" fill="url(#paint1_linear_607_197)"/>
<path d="M100.475 58.3182V59.7005H97.5098V71.3182H96.0958V59.7005H93.1157V58.3182H100.475Z" fill="#C2C2C2"/>
<path d="M104.902 59.7144V64.058H108.461V65.4542H104.902V69.922H108.885V71.3182H103.629V58.3182H108.885V59.7144H104.902Z" fill="#C2C2C2"/>
<path d="M112.829 61.4807C113.35 60.4924 114.073 59.717 114.997 59.1544C115.905 58.5919 116.913 58.3182 118.039 58.3182C119.35 58.3182 120.493 58.6527 121.468 59.3217C122.443 59.9907 123.149 60.9334 123.603 62.165H121.72C121.384 61.4047 120.914 60.8117 120.275 60.4012C119.653 59.9907 118.897 59.7778 118.023 59.7778C117.182 59.7778 116.426 59.9907 115.77 60.4012C115.098 60.8117 114.577 61.4047 114.207 62.165C113.837 62.9252 113.636 63.8223 113.636 64.841C113.636 65.8445 113.82 66.7416 114.207 67.5018C114.594 68.262 115.115 68.855 115.77 69.2655C116.443 69.6761 117.182 69.8889 118.023 69.8889C118.897 69.8889 119.636 69.6913 120.275 69.2808C120.897 68.8702 121.384 68.2924 121.72 67.517H123.603C123.149 68.7334 122.443 69.6761 121.468 70.3299C120.493 70.9989 119.35 71.3182 118.039 71.3182C116.93 71.3182 115.905 71.0445 114.997 70.4819C114.089 69.9345 113.367 69.1591 112.829 68.1708C112.308 67.1825 112.039 66.0726 112.039 64.8258C112.039 63.5942 112.308 62.4691 112.829 61.4807Z" fill="#C2C2C2"/>
<path d="M134.116 58.3182V71.3182H132.694V65.4246H127.128V71.3182H125.705V58.3182H127.128V64.0251H132.694V58.3182H134.116Z" fill="#C2C2C2"/>
<path d="M143.816 61.4845C144.278 60.495 144.918 59.7186 145.737 59.1554C146.542 58.5922 147.435 58.3182 148.418 58.3182C149.58 58.3182 150.593 58.6531 151.457 59.3229C152.321 59.9926 152.947 60.9364 153.349 62.1695H151.68C151.383 61.4083 150.965 60.8147 150.399 60.4037C149.848 59.9926 149.178 59.7795 148.404 59.7795C147.659 59.7795 146.988 59.9926 146.408 60.4037C145.812 60.8147 145.35 61.4083 145.022 62.1695C144.695 62.9306 144.531 63.8135 144.531 64.8334C144.531 65.8381 144.695 66.7362 145.037 67.4973C145.38 68.2585 145.842 68.8521 146.422 69.2631C147.018 69.6741 147.674 69.8873 148.418 69.8873C149.193 69.8873 149.848 69.6894 150.414 69.2784C150.965 68.8674 151.397 68.2889 151.695 67.5126H153.364C152.961 68.7304 152.336 69.6741 151.472 70.3287C150.608 70.9985 149.595 71.3182 148.433 71.3182C147.45 71.3182 146.542 71.0442 145.737 70.4809C144.933 69.9329 144.292 69.1566 143.816 68.1671C143.354 67.1777 143.116 66.0664 143.116 64.8182C143.116 63.6004 143.339 62.4739 143.816 61.4845Z" fill="#C2C2C2"/>
<path d="M159.233 70.4525C158.369 69.9058 157.694 69.1313 157.192 68.1441C156.689 67.157 156.438 66.0331 156.438 64.803C156.438 63.5577 156.689 62.449 157.192 61.4619C157.694 60.4747 158.369 59.7002 159.233 59.1535C160.096 58.6067 161.038 58.3182 162.074 58.3182C163.126 58.3182 164.084 58.5915 164.948 59.1535C165.811 59.7002 166.486 60.4747 166.973 61.4619C167.46 62.449 167.711 63.5577 167.711 64.8182C167.711 66.0635 167.46 67.1873 166.973 68.1745C166.486 69.1616 165.795 69.921 164.948 70.4829C164.084 71.0296 163.126 71.3182 162.074 71.3182C161.038 71.2878 160.08 71.0144 159.233 70.4525ZM164.194 69.2224C164.822 68.8123 165.309 68.22 165.67 67.4607C166.031 66.7014 166.204 65.8053 166.204 64.803C166.204 63.7855 166.031 62.8894 165.67 62.1301C165.309 61.3707 164.822 60.7785 164.194 60.3684C163.566 59.9584 162.859 59.7457 162.074 59.7457C161.289 59.7457 160.567 59.9584 159.955 60.3684C159.327 60.7785 158.84 61.3707 158.479 62.1301C158.118 62.8894 157.945 63.7855 157.945 64.803C157.945 65.8053 158.118 66.7014 158.479 67.4607C158.84 68.22 159.327 68.8123 159.955 69.2224C160.583 69.6324 161.289 69.845 162.074 69.845C162.859 69.845 163.566 69.6324 164.194 69.2224Z" fill="#C2C2C2"/>
<path d="M178.983 71.3182H177.624L172.144 60.9741V71.3182H170.785V58.3182H172.144L177.624 68.6467V58.3182H178.983V71.3182Z" fill="#C2C2C2"/>
<path d="M183.844 70.8626C183.298 70.5588 182.855 70.1488 182.545 69.6172C182.235 69.0857 182.073 68.4782 182.058 67.7796H183.534C183.578 68.3719 183.785 68.8731 184.154 69.2831C184.508 69.6932 185.039 69.8906 185.718 69.8906C186.368 69.8906 186.884 69.6932 187.268 69.2983C187.652 68.9035 187.829 68.4023 187.829 67.7796C187.829 67.2936 187.711 66.8988 187.49 66.595C187.268 66.2913 186.988 66.0635 186.663 65.8964C186.324 65.7446 185.881 65.5623 185.32 65.3801C184.626 65.1675 184.065 64.9397 183.652 64.7271C183.239 64.5144 182.87 64.1651 182.574 63.6943C182.279 63.2235 182.132 62.6009 182.132 61.8112C182.132 61.1126 182.279 60.5051 182.574 59.9735C182.87 59.442 183.283 59.032 183.8 58.7282C184.316 58.47 184.921 58.3182 185.615 58.3182C186.604 58.3182 187.416 58.6219 188.051 59.2142C188.685 59.8065 189.04 60.5962 189.113 61.5834H187.593C187.549 61.0974 187.327 60.6721 186.958 60.2925C186.589 59.9128 186.087 59.7306 185.482 59.7306C184.907 59.7306 184.434 59.9128 184.08 60.2621C183.711 60.6266 183.534 61.1278 183.534 61.7656C183.534 62.2212 183.637 62.6009 183.859 62.8894C184.08 63.178 184.346 63.4058 184.656 63.5577C184.966 63.7247 185.423 63.907 185.999 64.0892C186.693 64.317 187.254 64.5448 187.682 64.7726C188.11 65.0004 188.464 65.3497 188.774 65.8053C189.084 66.2609 189.231 66.914 189.231 67.7037C189.231 68.3264 189.099 68.9035 188.818 69.4502C188.538 70.0121 188.139 70.4677 187.593 70.8018C187.062 71.1359 186.427 71.3182 185.704 71.3182C185.01 71.3182 184.39 71.1663 183.844 70.8626Z" fill="#C2C2C2"/>
<path d="M193.738 58.3182V66.4566C193.738 67.5951 193.982 68.4566 194.454 69.0105C194.927 69.5643 195.582 69.8413 196.435 69.8413C197.274 69.8413 197.929 69.5643 198.401 69.0105C198.858 68.4566 199.087 67.5951 199.087 66.4566V58.3182H200.504V66.4413C200.504 67.5182 200.321 68.4105 199.956 69.1489C199.59 69.8874 199.102 70.4259 198.477 70.7797C197.853 71.1336 197.167 71.3182 196.39 71.3182C195.613 71.3182 194.927 71.1336 194.302 70.7797C193.677 70.4259 193.19 69.872 192.839 69.1489C192.473 68.4105 192.306 67.5182 192.306 66.4413V58.3182H193.738Z" fill="#C2C2C2"/>
<path d="M204.221 69.9342H208.702V71.3182H202.554V58.3182H204.221V69.9342Z" fill="#C2C2C2"/>
<path d="M217.926 58.3182V59.7005H215.448V71.3182H214.267V59.7005H211.777V58.3182H217.926Z" fill="#C2C2C2"/>
<path d="M228.682 68.4119H223.55L222.612 71.3182H221L225.244 58.3182H227.02L231.248 71.3182H229.636L228.682 68.4119ZM228.254 67.0213L226.132 60.4276L223.994 67.0213H228.254Z" fill="#C2C2C2"/>
<path d="M241.496 71.3182H240.307L235.512 60.9741V71.3182H234.322V58.3182H235.512L240.307 68.6467V58.3182H241.496V71.3182Z" fill="#C2C2C2"/>
<path d="M245.34 61.4807C245.848 60.4924 246.553 59.717 247.454 59.1544C248.339 58.5919 249.322 58.3182 250.42 58.3182C251.698 58.3182 252.812 58.6527 253.762 59.3217C254.712 59.9907 255.401 60.9334 255.843 62.165H254.008C253.68 61.4047 253.221 60.8117 252.599 60.4012C251.993 59.9907 251.255 59.7778 250.403 59.7778C249.584 59.7778 248.847 59.9907 248.208 60.4012C247.552 60.8117 247.044 61.4047 246.684 62.165C246.323 62.9252 246.127 63.8223 246.127 64.841C246.127 65.8445 246.307 66.7416 246.684 67.5018C247.061 68.262 247.569 68.855 248.208 69.2655C248.863 69.6761 249.584 69.8889 250.403 69.8889C251.255 69.8889 251.976 69.6913 252.599 69.2808C253.205 68.8702 253.68 68.2924 254.008 67.517H255.843C255.401 68.7334 254.712 69.6761 253.762 70.3299C252.812 70.9989 251.698 71.3182 250.42 71.3182C249.338 71.3182 248.339 71.0445 247.454 70.4819C246.569 69.9345 245.865 69.1591 245.34 68.1708C244.832 67.1825 244.57 66.0726 244.57 64.8258C244.57 63.5942 244.832 62.4691 245.34 61.4807Z" fill="#C2C2C2"/>
<path d="M267.116 58.3182L263.278 66.4102V71.3182H261.747V66.4102L257.893 58.3182H259.605L262.504 64.9036L265.403 58.3182H267.116Z" fill="#C2C2C2"/>
<defs>
<linearGradient id="paint0_linear_607_197" x1="37.2428" y1="-22.4167" x2="38.0527" y2="107.166" gradientUnits="userSpaceOnUse">
<stop stop-color="#F79237"/>
<stop offset="1" stop-color="#E96939"/>
</linearGradient>
<linearGradient id="paint1_linear_607_197" x1="181.764" y1="-3.12125" x2="181.764" y2="78.6638" gradientUnits="userSpaceOnUse">
<stop stop-color="#F79237"/>
<stop offset="1" stop-color="#E96939"/>
</linearGradient>
</defs>
</svg>
